<svg width="151" height="74" viewBox="0 0 151 74" fill="none" xmlns="http://www.w3.org/2000/svg">
<g id="homepage - 1920">
<g id="RootLayout">
<g id="Frame 43">
<g id="Hero">
<g id="Frame 50">
<g id="Frame 47">
<g id="Frame 46">
<g id="Frame 21">
<g id="Frame 19">
<g id="Fab-City-logo 1" clip-path="url(#clip0_923_24439)">
<g id="Group">
<g id="Group_2">
<g id="Group_3">
<g id="Group_4">
<path id="Vector" d="M67.2894 47.8812H61.1628V53.608H58.9693V40.457H61.1628V45.9971H67.2894V40.457H69.4829V53.608H67.2894V47.8812Z" fill="#A4A7AC"/>
</g>
<g id="Group_5">
<path id="Vector_2" d="M80.4399 53.6084C79.8823 53.6084 79.4551 53.4602 79.1578 53.158C78.8606 52.842 78.6796 52.4464 78.6144 51.9712H78.5182C78.3231 52.5867 77.9693 53.0509 77.4513 53.3637C76.9334 53.6797 76.3084 53.8363 75.5693 53.8363C74.5225 53.8363 73.716 53.5726 73.1443 53.0451C72.5894 52.5182 72.3122 51.8066 72.3122 50.9141C72.3122 49.9362 72.6747 49.1998 73.3992 48.7114C74.1345 48.2193 75.2073 47.975 76.6165 47.975H78.4421V47.1453C78.4421 46.544 78.272 46.0798 77.9356 45.7528C77.6013 45.4263 77.078 45.2612 76.3649 45.2612C75.7703 45.2612 75.2867 45.3878 74.91 45.6404C74.5367 45.8905 74.2198 46.2117 73.9595 46.6015L72.6997 45.4896C73.0367 44.9373 73.5062 44.4842 74.1149 44.1324C74.7236 43.7674 75.5187 43.5859 76.5008 43.5859C77.8078 43.5859 78.81 43.8797 79.5089 44.4705C80.2051 45.0608 80.5557 45.9095 80.5557 47.0135V51.9332H81.6231V53.6084H80.4399ZM76.1725 52.2708C76.8318 52.2708 77.3752 52.1336 77.7997 51.8562C78.2269 51.5677 78.4421 51.1858 78.4421 50.7079V49.2964H76.6562C75.1959 49.2964 74.466 49.7357 74.466 50.6145V50.9526C74.466 51.392 74.6127 51.7243 74.91 51.9522C75.2214 52.1663 75.6405 52.2708 76.1725 52.2708Z" fill="#A4A7AC"/>
</g>
<g id="Group_6">
<path id="Vector_3" d="M84.0829 53.6084V43.8112H86.197V45.4316H86.2932C86.3976 45.1815 86.5193 44.9426 86.6611 44.7174C86.8166 44.4895 86.9976 44.2943 87.2046 44.1324C87.4253 43.9568 87.6769 43.8249 87.9628 43.7368C88.2601 43.6355 88.6025 43.5859 88.99 43.5859C89.6747 43.5859 90.2834 43.7479 90.8128 44.0749C91.3448 44.4019 91.7323 44.9041 91.9758 45.5829H92.0351C92.216 45.0307 92.5644 44.5581 93.0823 44.1709C93.6003 43.7811 94.265 43.5859 95.0802 43.5859C96.0878 43.5859 96.8715 43.9182 97.4264 44.5829C97.984 45.2369 98.2611 46.1732 98.2611 47.3927V53.6084H96.147V47.6375C96.147 46.8821 95.997 46.3188 95.6997 45.94C95.403 45.5524 94.9302 45.3577 94.2851 45.3577C94.0133 45.3577 93.7557 45.3931 93.5095 45.4701C93.2633 45.5334 93.0427 45.632 92.8503 45.7723C92.6693 45.9095 92.5193 46.0856 92.403 46.2998C92.2872 46.5113 92.2275 46.7582 92.2275 47.033V53.6084H90.1133V47.6375C90.1133 46.1157 89.4997 45.3577 88.2715 45.3577C88.0139 45.3577 87.7563 45.3931 87.4959 45.4701C87.2497 45.5334 87.0318 45.632 86.8367 45.7723C86.6438 45.9095 86.4883 46.0856 86.3726 46.2998C86.2535 46.5113 86.197 46.7582 86.197 47.033V53.6084H84.0829Z" fill="#A4A7AC"/>
</g>
<g id="Group_7">
<path id="Vector_4" d="M101.575 39.666H103.689V45.4313H103.786C104.006 44.8405 104.363 44.3901 104.852 44.0741C105.356 43.7476 105.945 43.5857 106.618 43.5857C107.898 43.5857 108.888 44.0388 109.587 44.9423C110.283 45.8348 110.634 47.0902 110.634 48.7106C110.634 50.331 110.283 51.5922 109.587 52.4984C108.888 53.3882 107.898 53.836 106.618 53.836C105.945 53.836 105.356 53.6709 104.852 53.3444C104.363 53.02 104.006 52.5669 103.786 51.9872H103.689V53.6082H101.575V39.666ZM105.979 52.0643C106.714 52.0643 107.303 51.839 107.742 51.3859C108.183 50.9218 108.401 50.312 108.401 49.5593V47.8619C108.401 47.1092 108.183 46.5052 107.742 46.0548C107.303 45.5879 106.714 45.3569 105.979 45.3569C105.331 45.3569 104.787 45.5136 104.349 45.8269C103.91 46.1286 103.689 46.53 103.689 47.0327V50.3864C103.689 50.8885 103.91 51.2978 104.349 51.6112C104.787 51.9134 105.331 52.0643 105.979 52.0643Z" fill="#A4A7AC"/>
</g>
<g id="Group_8">
<path id="Vector_5" d="M119.551 51.9874H119.475C119.384 52.2264 119.26 52.46 119.104 52.6853C118.962 52.9131 118.776 53.1136 118.544 53.2892C118.323 53.4512 118.051 53.583 117.729 53.6848C117.417 53.7835 117.055 53.8357 116.642 53.8357C115.595 53.8357 114.78 53.5092 114.196 52.8551C113.628 52.2016 113.345 51.268 113.345 50.0484V43.8105H115.459V49.7847C115.459 51.3033 116.104 52.0644 117.398 52.0644C117.669 52.0644 117.935 52.0312 118.193 51.9711C118.453 51.8941 118.68 51.787 118.872 51.6493C119.079 51.5122 119.24 51.3365 119.358 51.1224C119.486 50.9077 119.551 50.6582 119.551 50.3697V43.8105H121.665V53.6078H119.551V51.9874Z" fill="#A4A7AC"/>
</g>
<g id="Group_9">
<path id="Vector_6" d="M125.081 53.6078V43.8105H127.195V45.6947H127.291C127.435 45.192 127.732 44.7526 128.185 44.3765C128.635 44.0004 129.263 43.8105 130.067 43.8105H130.627V45.7912H129.795C128.955 45.7912 128.307 45.9231 127.854 46.1863C127.416 46.45 127.195 46.8377 127.195 47.3536V53.6078H125.081Z" fill="#A4A7AC"/>
</g>
<g id="Group_10">
<path id="Vector_7" d="M141.378 54.5334C141.378 55.5498 140.976 56.3163 140.175 56.8295C139.374 57.3459 138.067 57.6043 136.258 57.6043C135.43 57.6043 134.725 57.5468 134.142 57.434C133.576 57.3322 133.103 57.1839 132.727 56.9809C132.364 56.7804 132.099 56.5357 131.931 56.2477C131.764 55.9592 131.68 55.6242 131.68 55.2476C131.68 54.7096 131.83 54.2865 132.127 53.9869C132.435 53.6847 132.863 53.4763 133.406 53.3635V53.1572C132.645 52.9183 132.263 52.4161 132.263 51.6497C132.263 51.147 132.435 50.7651 132.786 50.5014C133.134 50.2239 133.556 50.0293 134.045 49.9164V49.8394C133.451 49.5651 132.993 49.1801 132.67 48.6916C132.359 48.189 132.203 47.604 132.203 46.9388C132.203 45.934 132.545 45.1238 133.231 44.5083C133.93 43.8932 134.926 43.5852 136.219 43.5852C136.929 43.5852 137.538 43.6843 138.042 43.8874V43.6237C138.042 43.1843 138.146 42.8441 138.353 42.6051C138.574 42.3551 138.907 42.2285 139.36 42.2285H140.911V43.8874H138.856V44.283C139.31 44.5715 139.657 44.9476 139.904 45.4118C140.15 45.8649 140.271 46.3734 140.271 46.9388C140.271 47.9305 139.923 48.7354 139.224 49.3505C138.528 49.9549 137.532 50.2545 136.239 50.2545C135.746 50.2545 135.308 50.205 134.92 50.1032C134.66 50.1912 134.433 50.3173 134.24 50.4824C134.045 50.6333 133.949 50.8337 133.949 51.0837C133.949 51.3475 134.071 51.5368 134.317 51.6497C134.563 51.7621 134.912 51.8201 135.364 51.8201H137.849C139.088 51.8201 139.988 52.0643 140.543 52.5533C141.101 53.0312 141.378 53.6905 141.378 54.5334ZM139.4 54.7586C139.4 54.4184 139.264 54.1489 138.992 53.9484C138.735 53.748 138.256 53.6462 137.557 53.6462H134.142C133.677 53.9099 133.445 54.2865 133.445 54.7781C133.445 55.179 133.607 55.5003 133.93 55.7392C134.266 55.9892 134.83 56.1158 135.619 56.1158H136.935C138.579 56.1158 139.4 55.6622 139.4 54.7586ZM136.239 48.7655C136.858 48.7655 137.337 48.6336 137.674 48.3699C138.021 48.0956 138.197 47.6752 138.197 47.1092V46.7331C138.197 46.1672 138.021 45.7526 137.674 45.4888C137.337 45.2114 136.858 45.0742 136.239 45.0742C135.619 45.0742 135.132 45.2114 134.784 45.4888C134.448 45.7526 134.277 46.1672 134.277 46.7331V47.1092C134.277 47.6752 134.448 48.0956 134.784 48.3699C135.132 48.6336 135.619 48.7655 136.239 48.7655Z" fill="#A4A7AC"/>
</g>
<g id="Group_11">
<path id="Vector_8" d="M36.9747 33.3304V20.1604C36.9747 20.0259 36.9383 19.8941 36.8704 19.7785C36.7997 19.6604 36.7002 19.5644 36.5818 19.4958L25.191 13.1018C25.072 13.0359 24.9361 13 24.7975 13C24.6589 13 24.5204 13.0359 24.4013 13.1018L13.0106 19.4958C12.8888 19.5644 12.7899 19.6604 12.722 19.7759C12.6513 19.8941 12.6144 20.0259 12.6144 20.1604V33.3304L24.4013 26.7138C24.5204 26.6452 24.6589 26.6093 24.7975 26.6093C24.9361 26.6093 25.072 26.6452 25.191 26.7138L36.9747 33.3304Z" fill="#A4A7AC"/>
</g>
<g id="Group_12">
<path id="Vector_9" d="M24.7943 53.8092L36.5302 60.3926C36.6492 60.4586 36.7851 60.4944 36.9237 60.4944C37.0622 60.4944 37.2008 60.4586 37.3199 60.3926L48.7106 53.9986C48.8324 53.9327 48.9313 53.834 48.9992 53.7185C49.0699 53.603 49.1068 53.4711 49.1068 53.3366V40.5481C49.1068 40.4135 49.0699 40.2817 48.9992 40.1667C48.9313 40.0485 48.8324 39.952 48.7106 39.8861L36.9775 33.3164V46.5248C36.9775 46.6594 36.9405 46.7912 36.8726 46.9094C36.8019 47.0249 36.703 47.1209 36.584 47.1895L24.7943 53.8092Z" fill="#A4A7AC"/>
</g>
<g id="Group_13">
<path id="Vector_10" d="M24.797 53.8092L13.0606 60.3926C12.9421 60.4586 12.8035 60.4944 12.6677 60.4944C12.5291 60.4944 12.39 60.4586 12.2715 60.3926L0.880722 53.9986C0.7617 53.9327 0.662787 53.834 0.592135 53.7185C0.5242 53.603 0.487244 53.4711 0.487244 53.3366V40.5481C0.487244 40.4135 0.5242 40.2817 0.592135 40.1667C0.662787 40.0485 0.7617 39.952 0.880722 39.8861L12.6139 33.3164V46.5248C12.6139 46.6594 12.6503 46.7912 12.7215 46.9094C12.7894 47.0249 12.891 47.1209 13.0101 47.1895L24.797 53.8092Z" fill="#A4A7AC"/>
</g>
<g id="Group_14">
<path id="Vector_11" d="M68.7981 25.8244H62.9313V23.3469H69.8166V19.8613H58.9693V35.465H62.9313V29.3073H68.7981V25.8244Z" fill="#A4A7AC"/>
</g>
<g id="Group_15">
<path id="Vector_12" d="M74.9139 19.8613L69.6248 35.465H73.6574L74.7666 31.8998H79.4987L80.6079 35.465H84.734L79.4987 19.8613H74.9139ZM78.4911 28.5324H75.7405L77.1074 23.9619L78.4911 28.5324Z" fill="#A4A7AC"/>
</g>
<g id="Group_16">
<path id="Vector_13" d="M98.5725 29.1266C98.3519 28.6761 98.0405 28.2726 97.6557 27.9429C97.2992 27.6491 96.8888 27.4239 96.4443 27.2809C96.8122 27.1412 97.1464 26.9296 97.4263 26.6575C97.7263 26.3415 97.9557 25.9681 98.1057 25.5614C98.2839 25.0619 98.3714 24.5344 98.36 24.0043C98.3856 23.452 98.2954 22.9029 98.0943 22.3865C97.8932 21.8701 97.5878 21.4007 97.197 20.9993C96.7698 20.6095 96.2633 20.3046 95.7117 20.1094C95.1595 19.9148 94.5736 19.8293 93.9878 19.8594H86.1829V35.4605H94.6758C95.2671 35.4663 95.853 35.3397 96.3905 35.0981C96.9084 34.8618 97.3725 34.5295 97.7546 34.1175C98.1508 33.6887 98.4622 33.1918 98.6714 32.6564C98.8894 32.0852 98.997 31.4807 98.9943 30.8736C99.0138 30.2585 98.8839 29.6488 98.6176 29.0912L98.5725 29.1266ZM90.1731 29.2257H93.7589C94.0644 29.2036 94.3698 29.3027 94.6019 29.5005C94.7068 29.6045 94.7888 29.7284 94.8399 29.8656C94.8937 30.0027 94.9133 30.1483 94.9051 30.2939V31.0249C94.9133 31.1705 94.8937 31.3156 94.8399 31.4532C94.7888 31.5904 94.7068 31.7143 94.6019 31.8183C94.3698 32.0134 94.0644 32.1152 93.7589 32.0931H90.1731V29.2257ZM94.3443 24.8941C94.3557 25.0397 94.3361 25.1853 94.285 25.3224C94.2372 25.4601 94.1606 25.5893 94.0617 25.6964C93.9481 25.795 93.8155 25.8721 93.6736 25.9216C93.5296 25.9707 93.3769 25.9902 93.2269 25.9818H90.1731V23.1556H93.2269C93.3769 23.1392 93.5323 23.1529 93.6769 23.2025C93.8209 23.2489 93.9513 23.3286 94.0617 23.433C94.1693 23.5375 94.2513 23.6667 94.2992 23.8065C94.3503 23.9468 94.3644 24.0976 94.3443 24.2432V24.8941Z" fill="#A4A7AC"/>
</g>
<g id="Group_17">
<path id="Vector_14" d="M109.023 35.7217C108.112 35.7654 107.201 35.6035 106.36 35.2517C105.523 34.9004 104.775 34.365 104.184 33.6893C103.01 32.3348 102.424 30.3741 102.424 27.8085C102.401 26.6576 102.554 25.5124 102.871 24.4053C103.131 23.5043 103.579 22.6641 104.184 21.9362C104.739 21.2715 105.452 20.7467 106.264 20.4118C107.136 20.0573 108.073 19.8817 109.015 19.8954C110.226 19.8595 111.423 20.1702 112.453 20.7884C113.424 21.4198 114.185 22.3154 114.635 23.3619L112.51 24.4411C112.277 23.7433 111.845 23.123 111.262 22.6588C110.481 22.1561 109.541 21.9362 108.61 22.0406C107.679 22.145 106.816 22.5654 106.174 23.2269C105.432 24.1885 105.064 25.3721 105.138 26.57V28.9046C105.067 30.102 105.435 31.2856 106.174 32.2446C106.827 32.9229 107.71 33.3459 108.661 33.4366C109.612 33.53 110.566 33.2826 111.344 32.7441C111.946 32.2583 112.402 31.6237 112.666 30.9095L114.708 32.1565C114.233 33.203 113.469 34.1013 112.499 34.7495C111.471 35.4115 110.257 35.7491 109.023 35.7217Z" fill="#A4A7AC"/>
</g>
<g id="Group_18">
<path id="Vector_15" d="M116.186 35.4199V33.4065H118.333V22.1424H116.186V20.1211H123.045V22.1424H120.881V33.4065H123.045V35.4199H116.186Z" fill="#A4A7AC"/>
</g>
<g id="Group_19">
<path id="Vector_16" d="M131.4 22.3127V35.4199H128.85V22.3127H124.163V20.1211H136.094V22.3127H131.4Z" fill="#A4A7AC"/>
</g>
<g id="Group_20">
<path id="Vector_17" d="M142.383 35.4199V29.3967L136.975 20.1211H139.881L143.713 26.9381H143.778L147.593 20.1211H150.389L144.933 29.3524V35.4199H142.383Z" fill="#A4A7AC"/>
</g>
</g>
</g>
</g>
</g>
</g>
</g>
</g>
</g>
</g>
</g>
</g>
</g>
</g>
<defs>
<clipPath id="clip0_923_24439">
<rect width="150" height="48" fill="white" transform="translate(0.5 13)"/>
</clipPath>
</defs>
</svg>
