<svg width="1080" height="1080" viewBox="0 0 1080 1080" fill="none" xmlns="http://www.w3.org/2000/svg">
<rect width="1080" height="1080" fill="#013026"/>
<g clip-path="url(#clip0_1_499)">
<path d="M716.721 410.683C718.053 410.682 719.354 410.288 720.461 409.548C721.568 408.808 722.431 407.756 722.941 406.526C723.45 405.296 723.583 403.943 723.324 402.637C723.064 401.331 722.422 400.131 721.481 399.19C720.539 398.248 719.34 397.607 718.034 397.348C716.728 397.088 715.375 397.221 714.144 397.731C712.914 398.24 711.863 399.103 711.123 400.21C710.383 401.317 709.989 402.619 709.989 403.95C709.989 405.736 710.698 407.448 711.961 408.711C713.223 409.973 714.936 410.683 716.721 410.683Z" fill="#D5881A"/>
<path d="M709.989 725.666C711.32 725.666 712.622 725.271 713.729 724.532C714.836 723.792 715.698 722.74 716.208 721.51C716.717 720.28 716.851 718.926 716.591 717.621C716.331 716.315 715.69 715.115 714.748 714.174C713.807 713.232 712.607 712.591 711.301 712.331C709.995 712.072 708.642 712.205 707.412 712.715C706.182 713.224 705.13 714.087 704.391 715.194C703.651 716.301 703.256 717.603 703.256 718.934C703.256 720.72 703.965 722.432 705.228 723.695C706.491 724.957 708.203 725.666 709.989 725.666Z" fill="#D5881A"/>
<path d="M805.702 647.071H792.237V660.536H805.702V647.071Z" fill="#33AF83"/>
<path d="M690.153 687.6C688.367 687.6 686.654 688.309 685.391 689.572C684.129 690.834 683.419 692.547 683.419 694.332C683.419 696.117 684.129 697.83 685.391 699.092C686.654 700.355 688.366 701.064 690.152 701.064H730.557V687.597H690.153V687.6Z" fill="#33AF83"/>
<path d="M760.698 606.393C759.367 606.393 758.065 606.788 756.958 607.528C755.851 608.268 754.988 609.319 754.479 610.549C753.97 611.779 753.836 613.133 754.096 614.439C754.356 615.745 754.997 616.944 755.939 617.886C756.88 618.827 758.08 619.468 759.386 619.728C760.691 619.988 762.045 619.854 763.275 619.345C764.505 618.835 765.557 617.972 766.296 616.865C767.036 615.758 767.431 614.457 767.431 613.125C767.431 611.34 766.722 609.627 765.459 608.365C764.196 607.102 762.484 606.393 760.698 606.393Z" fill="#D5881A"/>
<path d="M750.599 544.967H685.431V558.432H750.599V544.967Z" fill="#D5891B"/>
<path d="M750.599 586.614H685.431V600.079H750.599V586.614Z" fill="#D5891B"/>
<path d="M344.632 708.706H311.628V722.17H344.632V708.706Z" fill="#D5891B"/>
<path d="M404.467 708.706H371.463V722.17H404.467V708.706Z" fill="#D5891B"/>
<path d="M305.761 708.706H272.757V722.17H305.761V708.706Z" fill="#D5891B"/>
<path d="M305.761 667.334H272.757V680.798H305.761V667.334Z" fill="#D5891B"/>
<path d="M750.599 460.766H685.431V474.23H750.599V460.766Z" fill="#D5891B"/>
<path d="M750.599 502.525H685.431V515.989H750.599V502.525Z" fill="#D5891B"/>
<path d="M404.467 667.334H311.628V680.798H404.467V667.334Z" fill="#D5891B"/>
<path d="M404.467 627.501H311.628V640.965H404.467V627.501Z" fill="#D5891B"/>
<path d="M404.467 606.393H311.628V619.857H404.467V606.393Z" fill="#D5891B"/>
<path d="M725.889 667.334C724.557 667.334 723.256 667.729 722.149 668.469C721.042 669.209 720.179 670.26 719.669 671.49C719.16 672.72 719.027 674.074 719.287 675.38C719.546 676.686 720.188 677.885 721.129 678.827C722.071 679.768 723.27 680.409 724.576 680.669C725.882 680.929 727.236 680.795 728.466 680.286C729.696 679.776 730.747 678.913 731.487 677.806C732.227 676.699 732.621 675.398 732.621 674.066C732.621 672.281 731.912 670.568 730.649 669.306C729.387 668.043 727.674 667.334 725.889 667.334Z" fill="#D5881A"/>
<path d="M698.896 627.501H685.431V640.965H698.896V627.501Z" fill="#33AF83"/>
<path d="M698.896 712.202H685.431V725.666H698.896V712.202Z" fill="#33AF83"/>
<path d="M604.503 482.782H591.037V496.246H604.503V482.782Z" fill="#33AF83"/>
<path d="M637.721 482.782H624.256V496.246H637.721V482.782Z" fill="#33AF83"/>
<path d="M604.503 523.861H591.037V537.326H604.503V523.861Z" fill="#33AF83"/>
<path d="M637.721 523.861H624.256V537.326H637.721V523.861Z" fill="#33AF83"/>
<path d="M762.911 640.965C763.796 640.967 764.673 640.793 765.491 640.456C766.309 640.118 767.052 639.622 767.678 638.997C768.305 638.372 768.801 637.629 769.14 636.812C769.479 635.994 769.654 635.118 769.654 634.233C769.654 633.348 769.479 632.472 769.14 631.655C768.801 630.837 768.305 630.095 767.678 629.469C767.052 628.844 766.309 628.348 765.491 628.011C764.673 627.673 763.797 627.5 762.912 627.501H722.507V640.968H762.911V640.965Z" fill="#33AF83"/>
<path d="M725.509 660.536C727.295 660.536 729.008 659.826 730.271 658.564C731.533 657.301 732.242 655.589 732.242 653.803C732.242 652.018 731.533 650.306 730.271 649.043C729.008 647.781 727.296 647.071 725.51 647.071H685.105V660.538H725.509V660.536Z" fill="#33AF83"/>
<path d="M253.297 606.393H239.832V619.857H253.297V606.393Z" fill="#33AF83"/>
<path d="M245.386 523.86H231.92V537.325H245.386V523.86Z" fill="#33AF83"/>
<path d="M284.463 523.86H270.998V537.325H284.463V523.86Z" fill="#33AF83"/>
<path d="M304.001 523.86H290.536V537.325H304.001V523.86Z" fill="#33AF83"/>
<path d="M323.54 523.86H310.075V537.325H323.54V523.86Z" fill="#33AF83"/>
<path d="M343.079 523.86H329.613V537.325H343.079V523.86Z" fill="#33AF83"/>
<path d="M362.617 523.86H349.152V537.325H362.617V523.86Z" fill="#33AF83"/>
<path d="M245.386 566.074H231.92V579.538H245.386V566.074Z" fill="#33AF83"/>
<path d="M284.463 566.074H270.998V579.538H284.463V566.074Z" fill="#33AF83"/>
<path d="M304.001 566.074H290.536V579.538H304.001V566.074Z" fill="#33AF83"/>
<path d="M323.54 566.074H310.075V579.538H323.54V566.074Z" fill="#33AF83"/>
<path d="M343.079 566.074H329.613V579.538H343.079V566.074Z" fill="#33AF83"/>
<path d="M362.617 566.074H349.152V579.538H362.617V566.074Z" fill="#33AF83"/>
<path d="M547.573 502.753H507.255V516.217H547.573V502.753Z" fill="#D5891B"/>
<path d="M245.386 481.646H231.92V495.11H245.386V481.646Z" fill="#33AF83"/>
<path d="M264.924 481.646H251.459V495.11H264.924V481.646Z" fill="#33AF83"/>
<path d="M284.463 481.646H270.998V495.11H284.463V481.646Z" fill="#33AF83"/>
<path d="M343.079 481.646H329.613V495.11H343.079V481.646Z" fill="#33AF83"/>
<path d="M245.386 439.432H231.92V452.896H245.386V439.432Z" fill="#33AF83"/>
<path d="M284.463 439.432H270.998V452.896H284.463V439.432Z" fill="#33AF83"/>
<path d="M323.54 439.432H310.075V452.896H323.54V439.432Z" fill="#33AF83"/>
<path d="M343.079 439.432H329.613V452.896H343.079V439.432Z" fill="#33AF83"/>
<path d="M362.617 439.432H349.152V452.896H362.617V439.432Z" fill="#33AF83"/>
<path d="M201.145 586.614H187.68V600.079H201.145V586.614Z" fill="#D5881A"/>
<path d="M260.163 627.501H246.697V640.965H260.163V627.501Z" fill="#D5881A"/>
<path d="M177.141 606.396C175.356 606.396 173.642 607.105 172.38 608.368C171.117 609.63 170.408 611.342 170.408 613.128C170.408 614.913 171.117 616.626 172.38 617.888C173.642 619.151 175.354 619.86 177.14 619.86H217.545V606.393H177.141V606.396Z" fill="#33AF83"/>
<path d="M555.308 467.274C555.308 466.39 555.483 465.514 555.821 464.697C556.159 463.881 556.655 463.139 557.28 462.513C557.906 461.888 558.648 461.392 559.465 461.054C560.281 460.716 561.157 460.542 562.041 460.542L562.042 460.539H602.709C604.495 460.539 606.207 461.248 607.469 462.511C608.732 463.773 609.441 465.486 609.441 467.271C609.441 469.057 608.732 470.769 607.469 472.031C606.207 473.294 604.495 474.003 602.709 474.003L602.708 474.006H562.041C561.157 474.006 560.281 473.832 559.465 473.494C558.648 473.155 557.906 472.659 557.28 472.034C556.655 471.409 556.159 470.667 555.821 469.85C555.483 469.033 555.308 468.158 555.308 467.274Z" fill="#33AF83"/>
<path d="M555.308 425.059C555.308 424.174 555.483 423.299 555.821 422.482C556.159 421.665 556.655 420.923 557.28 420.298C557.906 419.673 558.648 419.177 559.465 418.839C560.281 418.5 561.157 418.326 562.041 418.326L562.042 418.324H602.709C603.594 418.322 604.47 418.496 605.288 418.833C606.106 419.171 606.849 419.667 607.476 420.292C608.102 420.917 608.598 421.66 608.937 422.477C609.276 423.295 609.451 424.171 609.451 425.056C609.451 425.941 609.276 426.817 608.937 427.634C608.598 428.452 608.102 429.194 607.476 429.819C606.849 430.445 606.106 430.94 605.288 431.278C604.47 431.616 603.594 431.789 602.709 431.788L602.708 431.791H562.041C561.157 431.791 560.281 431.617 559.465 431.278C558.648 430.94 557.906 430.444 557.28 429.819C556.655 429.194 556.159 428.452 555.821 427.635C555.483 426.818 555.308 425.943 555.308 425.059Z" fill="#33AF83"/>
<path d="M555.308 403.95C555.308 403.066 555.483 402.191 555.821 401.374C556.159 400.557 556.655 399.815 557.28 399.19C557.906 398.565 558.648 398.069 559.465 397.73C560.281 397.392 561.157 397.218 562.041 397.218L562.042 397.215H602.709C603.593 397.215 604.469 397.389 605.285 397.728C606.102 398.066 606.844 398.562 607.469 399.187C608.095 399.812 608.59 400.554 608.929 401.371C609.267 402.188 609.441 403.063 609.441 403.947C609.441 404.831 609.267 405.707 608.929 406.524C608.59 407.34 608.095 408.083 607.469 408.708C606.844 409.333 606.102 409.829 605.285 410.167C604.469 410.505 603.593 410.679 602.709 410.679L602.708 410.682H562.041C561.157 410.682 560.281 410.508 559.465 410.17C558.648 409.832 557.906 409.336 557.28 408.711C556.655 408.085 556.159 407.343 555.821 406.527C555.483 405.71 555.308 404.834 555.308 403.95Z" fill="#33AF83"/>
<path d="M555.308 361.735C555.308 360.851 555.483 359.975 555.821 359.158C556.159 358.342 556.655 357.599 557.28 356.974C557.906 356.349 558.648 355.853 559.465 355.515C560.281 355.177 561.157 355.003 562.041 355.003L562.042 355H602.709C604.495 355 606.207 355.709 607.469 356.972C608.732 358.234 609.441 359.947 609.441 361.732C609.441 363.518 608.732 365.23 607.469 366.492C606.207 367.755 604.495 368.464 602.709 368.464L602.708 368.467H562.041C561.157 368.467 560.281 368.293 559.465 367.955C558.648 367.616 557.906 367.12 557.28 366.495C556.655 365.87 556.159 365.128 555.821 364.311C555.483 363.494 555.308 362.619 555.308 361.735Z" fill="#33AF83"/>
<path d="M621.142 467.274C621.142 466.39 621.316 465.514 621.655 464.697C621.993 463.881 622.489 463.139 623.114 462.513C623.739 461.888 624.482 461.392 625.298 461.054C626.115 460.716 626.991 460.542 627.875 460.542L627.876 460.539H668.543C670.328 460.539 672.041 461.248 673.303 462.511C674.566 463.773 675.275 465.486 675.275 467.271C675.275 469.057 674.566 470.769 673.303 472.031C672.041 473.294 670.328 474.003 668.543 474.003L668.542 474.006H627.875C626.991 474.006 626.115 473.832 625.298 473.494C624.482 473.155 623.739 472.659 623.114 472.034C622.489 471.409 621.993 470.667 621.655 469.85C621.316 469.033 621.142 468.158 621.142 467.274Z" fill="#33AF83"/>
<path d="M621.142 425.059C621.142 424.174 621.316 423.299 621.655 422.482C621.993 421.665 622.489 420.923 623.114 420.298C623.739 419.673 624.482 419.177 625.298 418.839C626.115 418.5 626.991 418.326 627.875 418.326L627.876 418.324H668.543C669.428 418.322 670.304 418.496 671.122 418.833C671.94 419.171 672.683 419.667 673.309 420.292C673.935 420.917 674.432 421.66 674.771 422.477C675.11 423.295 675.284 424.171 675.284 425.056C675.284 425.941 675.11 426.817 674.771 427.634C674.432 428.452 673.935 429.194 673.309 429.819C672.683 430.445 671.94 430.94 671.122 431.278C670.304 431.616 669.428 431.789 668.543 431.788L668.542 431.791H627.875C626.991 431.791 626.115 431.617 625.298 431.278C624.482 430.94 623.739 430.444 623.114 429.819C622.489 429.194 621.993 428.452 621.655 427.635C621.316 426.818 621.142 425.943 621.142 425.059Z" fill="#33AF83"/>
<path d="M555.308 509.488C555.308 508.604 555.483 507.728 555.821 506.911C556.159 506.095 556.655 505.352 557.28 504.727C557.906 504.102 558.648 503.606 559.465 503.268C560.281 502.93 561.157 502.756 562.041 502.756L562.042 502.753H668.113C669.898 502.753 671.61 503.462 672.873 504.725C674.135 505.987 674.845 507.7 674.845 509.485C674.845 511.27 674.135 512.983 672.873 514.245C671.61 515.508 669.898 516.217 668.113 516.217L668.112 516.22H562.041C561.157 516.22 560.281 516.046 559.465 515.708C558.648 515.369 557.906 514.873 557.28 514.248C556.655 513.623 556.159 512.881 555.821 512.064C555.483 511.247 555.308 510.372 555.308 509.488Z" fill="#33AF83"/>
<path d="M604.503 566.076H591.037V579.54H604.503V566.076Z" fill="#33AF83"/>
<path d="M637.721 566.076H624.256V579.54H637.721V566.076Z" fill="#33AF83"/>
<path d="M555.308 551.702C555.308 550.818 555.483 549.943 555.821 549.126C556.159 548.309 556.655 547.567 557.28 546.942C557.906 546.316 558.648 545.821 559.465 545.482C560.281 545.144 561.157 544.97 562.041 544.97L562.042 544.967H668.113C669.898 544.967 671.61 545.677 672.873 546.939C674.135 548.202 674.845 549.914 674.845 551.699C674.845 553.485 674.135 555.197 672.873 556.46C671.61 557.722 669.898 558.431 668.113 558.431L668.112 558.434H562.041C561.157 558.434 560.281 558.26 559.465 557.922C558.648 557.584 557.906 557.088 557.28 556.463C556.655 555.837 556.159 555.095 555.821 554.278C555.483 553.462 555.308 552.586 555.308 551.702Z" fill="#33AF83"/>
<path d="M555.308 593.349C555.308 592.465 555.483 591.59 555.821 590.773C556.159 589.956 556.655 589.214 557.28 588.589C557.906 587.963 558.648 587.468 559.465 587.129C560.281 586.791 561.157 586.617 562.041 586.617L562.042 586.614H668.113C668.997 586.614 669.872 586.788 670.689 587.127C671.506 587.465 672.248 587.961 672.873 588.586C673.498 589.211 673.994 589.953 674.332 590.77C674.671 591.587 674.845 592.462 674.845 593.346C674.845 594.23 674.671 595.106 674.332 595.923C673.994 596.739 673.498 597.481 672.873 598.107C672.248 598.732 671.506 599.228 670.689 599.566C669.872 599.904 668.997 600.078 668.113 600.078L668.112 600.081H562.041C561.157 600.081 560.281 599.907 559.465 599.569C558.648 599.231 557.906 598.735 557.28 598.11C556.655 597.484 556.159 596.742 555.821 595.925C555.483 595.109 555.308 594.233 555.308 593.349Z" fill="#33AF83"/>
<path d="M604.503 606.395H591.037V619.859H604.503V606.395Z" fill="#33AF83"/>
<path d="M637.721 606.395H624.256V619.859H637.721V606.395Z" fill="#33AF83"/>
<path d="M604.503 647.071H591.037V660.536H604.503V647.071Z" fill="#33AF83"/>
<path d="M637.721 647.071H624.256V660.536H637.721V647.071Z" fill="#33AF83"/>
<path d="M604.503 667.616H591.037V681.08H604.503V667.616Z" fill="#33AF83"/>
<path d="M637.721 667.334H624.256V680.798H637.721V667.334Z" fill="#33AF83"/>
<path d="M555.308 634.236C555.308 633.352 555.483 632.476 555.821 631.659C556.159 630.843 556.655 630.1 557.28 629.475C557.906 628.85 558.648 628.354 559.465 628.016C560.281 627.678 561.157 627.504 562.041 627.504L562.042 627.501H668.113C668.997 627.501 669.872 627.675 670.689 628.013C671.506 628.352 672.248 628.848 672.873 629.473C673.498 630.098 673.994 630.84 674.332 631.657C674.671 632.474 674.845 633.349 674.845 634.233C674.845 635.117 674.671 635.993 674.332 636.809C673.994 637.626 673.498 638.368 672.873 638.993C672.248 639.618 671.506 640.114 670.689 640.453C669.872 640.791 668.997 640.965 668.113 640.965L668.112 640.968H562.041C561.157 640.968 560.281 640.794 559.465 640.456C558.648 640.117 557.906 639.621 557.28 638.996C556.655 638.371 556.159 637.629 555.821 636.812C555.483 635.995 555.308 635.12 555.308 634.236Z" fill="#33AF83"/>
<path d="M604.503 688.161H591.037V701.625H604.503V688.161Z" fill="#33AF83"/>
<path d="M637.721 687.599H624.256V701.063H637.721V687.599Z" fill="#33AF83"/>
<path d="M604.503 708.706H591.037V722.17H604.503V708.706Z" fill="#33AF83"/>
<path d="M637.721 708.706H624.256V722.17H637.721V708.706Z" fill="#33AF83"/>
<path d="M918.916 659.739L913.477 673.34L927.078 678.78L932.518 665.179L918.916 659.739Z" fill="#D5891B"/>
<path d="M750.599 606.393H685.431V619.857H750.599V606.393Z" fill="#F3BD4D"/>
<path d="M344.632 687.599H311.628V701.063H344.632V687.599Z" fill="#F3BD4D"/>
<path d="M305.761 687.599H272.757V701.063H305.761V687.599Z" fill="#F3BD4D"/>
<path d="M404.467 687.599H371.463V701.063H404.467V687.599Z" fill="#F3BD4D"/>
<path d="M750.599 566.074H685.431V579.538H750.599V566.074Z" fill="#F3BD4D"/>
<path d="M750.599 481.873H685.431V495.337H750.599V481.873Z" fill="#F3BD4D"/>
<path d="M750.599 439.431H685.431V452.895H750.599V439.431Z" fill="#F3BD4D"/>
<path d="M738.71 418.325H697.321V431.789H738.71V418.325Z" fill="#F3BD4D"/>
<path d="M776.877 606.393C775.092 606.393 773.38 607.102 772.117 608.365C770.855 609.627 770.145 611.34 770.145 613.125C770.145 614.911 770.855 616.623 772.117 617.886C773.38 619.148 775.092 619.857 776.877 619.857L776.878 619.86H812.095C812.979 619.86 813.855 619.686 814.671 619.348C815.488 619.009 816.23 618.513 816.855 617.888C817.481 617.263 817.976 616.521 818.315 615.704C818.653 614.887 818.827 614.012 818.827 613.128C818.827 612.244 818.653 611.368 818.315 610.552C817.976 609.735 817.481 608.993 816.855 608.368C816.23 607.743 815.488 607.247 814.671 606.908C813.855 606.57 812.979 606.396 812.095 606.396L812.094 606.393L776.877 606.393Z" fill="#F3BD4D"/>
<path d="M737.304 674.066C737.304 674.95 737.478 675.826 737.816 676.642C738.155 677.459 738.651 678.201 739.276 678.827C739.901 679.452 740.643 679.948 741.46 680.286C742.277 680.624 743.152 680.798 744.036 680.798L744.037 680.801H779.254C781.04 680.801 782.752 680.092 784.014 678.829C785.277 677.567 785.986 675.854 785.986 674.069C785.986 672.283 785.277 670.571 784.014 669.309C782.752 668.046 781.04 667.337 779.254 667.337L779.253 667.334H744.036C743.152 667.334 742.277 667.508 741.46 667.846C740.643 668.185 739.901 668.681 739.276 669.306C738.651 669.931 738.155 670.673 737.816 671.49C737.478 672.307 737.304 673.182 737.304 674.066Z" fill="#F3BD4D"/>
<path d="M714.501 667.334H685.431V680.798H714.501V667.334Z" fill="#F3BD4D"/>
<path d="M183.105 593.346C183.105 592.014 182.71 590.713 181.97 589.605C181.231 588.498 180.179 587.635 178.949 587.125C177.719 586.616 176.365 586.482 175.059 586.742C173.753 587.002 172.553 587.643 171.612 588.584C170.67 589.526 170.029 590.726 169.769 592.032C169.509 593.338 169.642 594.691 170.152 595.922C170.661 597.152 171.524 598.204 172.632 598.943C173.739 599.683 175.04 600.078 176.372 600.078C177.256 600.078 178.132 599.904 178.949 599.566C179.765 599.228 180.508 598.732 181.133 598.107C181.758 597.481 182.254 596.739 182.592 595.922C182.931 595.106 183.105 594.23 183.105 593.346Z" fill="#F3BD4D"/>
<path d="M212.165 627.504C210.379 627.504 208.666 628.213 207.403 629.476C206.141 630.738 205.431 632.45 205.431 634.236C205.431 636.021 206.141 637.734 207.403 638.996C208.666 640.259 210.378 640.968 212.164 640.968H242.361V627.501H212.165V627.504Z" fill="#F3BD4D"/>
<path d="M153.519 623.362C153.517 612.744 156.12 602.288 161.101 592.91C166.081 583.533 173.286 575.521 182.085 569.577L182.141 569.539C192.855 562.296 205.496 558.436 218.428 558.458H225.188V544.94H218.428C202.798 544.914 187.521 549.581 174.573 558.335L168.973 562.119L169.156 562.39C160.816 569.119 153.945 577.488 148.967 586.979C143.989 596.469 141.011 606.88 140.216 617.567C139.421 628.254 140.826 638.99 144.345 649.113C147.863 659.235 153.42 668.529 160.673 676.419C161.887 677.736 163.574 678.519 165.364 678.593C167.154 678.668 168.901 678.029 170.22 676.816C171.539 675.604 172.322 673.917 172.399 672.127C172.475 670.337 171.837 668.59 170.626 667.27C159.609 655.304 153.501 639.627 153.519 623.362Z" fill="#F3BD4D"/>
<path d="M225.188 688.266H218.428C208.305 688.298 198.318 685.935 189.282 681.371L183.246 678.33L177.162 690.4L183.198 693.442C194.119 698.962 206.191 701.821 218.428 701.784H225.188V701.757H261.497V688.293H225.188V688.266Z" fill="#F3BD4D"/>
<path d="M481.409 440.57H416.24V454.035H481.409V440.57Z" fill="#F3BD4D"/>
<path d="M481.409 565.962H416.24V579.426H481.409V565.962Z" fill="#F3BD4D"/>
<path d="M481.409 398.128H416.24V411.593H481.409V398.128Z" fill="#F3BD4D"/>
<path d="M614.855 482.782C613.524 482.782 612.222 483.177 611.115 483.917C610.008 484.656 609.145 485.708 608.636 486.938C608.126 488.168 607.993 489.522 608.253 490.828C608.513 492.133 609.154 493.333 610.096 494.274C611.037 495.216 612.237 495.857 613.543 496.117C614.848 496.376 616.202 496.243 617.432 495.734C618.662 495.224 619.714 494.361 620.453 493.254C621.193 492.147 621.588 490.845 621.588 489.514C621.588 487.728 620.879 486.016 619.616 484.753C618.353 483.491 616.641 482.782 614.855 482.782Z" fill="#F3BD4D"/>
<path d="M581.637 523.861C580.305 523.861 579.004 524.256 577.897 524.996C576.79 525.736 575.927 526.787 575.417 528.018C574.908 529.248 574.775 530.601 575.035 531.907C575.294 533.213 575.936 534.412 576.877 535.354C577.819 536.295 579.018 536.937 580.324 537.196C581.63 537.456 582.984 537.323 584.214 536.813C585.444 536.304 586.495 535.441 587.235 534.334C587.975 533.226 588.369 531.925 588.369 530.593C588.369 528.808 587.66 527.096 586.397 525.833C585.135 524.571 583.422 523.861 581.637 523.861Z" fill="#F3BD4D"/>
<path d="M647.964 537.326C651.682 537.326 654.696 534.312 654.696 530.594C654.696 526.875 651.682 523.861 647.964 523.861C644.245 523.861 641.231 526.875 641.231 530.594C641.231 534.312 644.245 537.326 647.964 537.326Z" fill="#F3BD4D"/>
<path d="M264.924 523.86H251.459V537.324H264.924V523.86Z" fill="#F3BD4D"/>
<path d="M264.924 566.074H251.459V579.538H264.924V566.074Z" fill="#F3BD4D"/>
<path d="M409.588 502.753H369.27V516.217H409.588V502.753Z" fill="#F3BD4D"/>
<path d="M304.001 481.646H290.536V495.11H304.001V481.646Z" fill="#F3BD4D"/>
<path d="M323.54 481.646H310.075V495.11H323.54V481.646Z" fill="#F3BD4D"/>
<path d="M362.617 481.646H349.152V495.11H362.617V481.646Z" fill="#F3BD4D"/>
<path d="M325.093 647.071H311.628V660.536H325.093V647.071Z" fill="#F3BD4D"/>
<path d="M345.065 647.071H331.599V660.536H345.065V647.071Z" fill="#F3BD4D"/>
<path d="M385.008 647.071H371.543V660.536H385.008V647.071Z" fill="#F3BD4D"/>
<path d="M365.036 647.071H351.571V660.536H365.036V647.071Z" fill="#F3BD4D"/>
<path d="M404.979 647.071H391.514V660.536H404.979V647.071Z" fill="#F3BD4D"/>
<path d="M264.924 439.432H251.459V452.896H264.924V439.432Z" fill="#F3BD4D"/>
<path d="M304.001 439.432H290.536V452.896H304.001V439.432Z" fill="#F3BD4D"/>
<path d="M582.375 452.896C586.093 452.896 589.107 449.882 589.107 446.164C589.107 442.446 586.093 439.432 582.375 439.432C578.657 439.432 575.643 442.446 575.643 446.164C575.643 449.882 578.657 452.896 582.375 452.896Z" fill="#F3BD4D"/>
<path d="M581.637 566.076C580.305 566.076 579.004 566.471 577.897 567.21C576.79 567.95 575.927 569.002 575.417 570.232C574.908 571.462 574.775 572.816 575.035 574.121C575.294 575.427 575.936 576.627 576.877 577.568C577.819 578.51 579.018 579.151 580.324 579.411C581.63 579.67 582.984 579.537 584.214 579.027C585.444 578.518 586.495 577.655 587.235 576.548C587.975 575.441 588.369 574.139 588.369 572.808C588.369 571.022 587.66 569.31 586.397 568.047C585.135 566.785 583.422 566.076 581.637 566.076Z" fill="#F3BD4D"/>
<path d="M647.964 579.54C651.682 579.54 654.696 576.526 654.696 572.808C654.696 569.089 651.682 566.075 647.964 566.075C644.245 566.075 641.231 569.089 641.231 572.808C641.231 576.526 644.245 579.54 647.964 579.54Z" fill="#F3BD4D"/>
<path d="M614.855 606.395C613.524 606.395 612.222 606.79 611.115 607.529C610.008 608.269 609.145 609.321 608.636 610.551C608.126 611.781 607.993 613.134 608.253 614.44C608.513 615.746 609.154 616.946 610.096 617.887C611.037 618.829 612.237 619.47 613.543 619.73C614.848 619.989 616.202 619.856 617.432 619.346C618.662 618.837 619.714 617.974 620.453 616.867C621.193 615.76 621.588 614.458 621.588 613.127C621.588 611.341 620.879 609.629 619.616 608.366C618.353 607.104 616.641 606.395 614.855 606.395Z" fill="#F3BD4D"/>
<path d="M750.6 523.867V523.86H750.315C750.224 523.86 750.135 523.853 750.045 523.853C750.022 523.853 750 523.86 749.977 523.86H685.431V537.324H749.576C749.734 537.335 749.884 537.371 750.045 537.371C761.469 537.371 772.782 539.622 783.336 543.993C793.891 548.365 803.481 554.773 811.56 562.852C819.638 570.93 826.046 580.52 830.418 591.075C834.79 601.63 837.04 612.942 837.04 624.366C837.04 635.791 834.79 647.103 830.418 657.658C826.046 668.213 819.638 677.803 811.56 685.881C803.481 693.959 793.891 700.367 783.336 704.739C772.782 709.111 761.469 711.361 750.045 711.361C749.505 711.367 748.968 711.438 748.445 711.572H730.684V711.575C728.947 711.575 727.281 712.265 726.052 713.493C724.824 714.721 724.135 716.386 724.135 718.123C724.135 719.86 724.824 721.525 726.052 722.753C727.281 723.981 728.946 724.671 730.683 724.671H748.454C748.974 724.804 749.508 724.874 750.045 724.88C776.655 724.883 802.181 714.334 821.025 695.545C839.869 676.756 850.492 651.26 850.566 624.65C850.639 598.039 840.157 572.486 821.417 553.593C802.677 534.7 777.21 524.01 750.6 523.867Z" fill="#F3BD4D"/>
<path d="M916.755 680.464C915.2 679.573 913.354 679.337 911.624 679.807C909.894 680.277 908.422 681.415 907.531 682.97C901.164 694.08 893.346 704.293 884.285 713.341C883.019 714.609 882.308 716.328 882.309 718.12C882.309 719.912 883.022 721.63 884.289 722.897C885.556 724.164 887.274 724.876 889.066 724.876C890.858 724.877 892.576 724.166 893.844 722.9C903.753 713.006 912.301 701.836 919.262 689.687C919.703 688.917 919.988 688.067 920.101 687.187C920.214 686.306 920.152 685.412 919.919 684.556C919.687 683.699 919.287 682.897 918.744 682.195C918.201 681.493 917.526 680.904 916.755 680.464Z" fill="#F3BD4D"/>
<path d="M500.862 419.464H487.397V432.928H500.862V419.464Z" fill="#33AF83"/>
<path d="M500.862 461.223H487.397V474.687H500.862V461.223Z" fill="#33AF83"/>
<path d="M500.862 503.551H487.397V517.015H500.862V503.551Z" fill="#33AF83"/>
<path d="M500.862 544.855H487.397V558.319H500.862V544.855Z" fill="#33AF83"/>
<path d="M500.862 586.614H487.397V600.079H500.862V586.614Z" fill="#33AF83"/>
<path d="M500.862 627.501H487.397V640.965H500.862V627.501Z" fill="#33AF83"/>
<path d="M305.227 634.236C305.227 633.352 305.052 632.476 304.714 631.659C304.376 630.843 303.88 630.1 303.255 629.475C302.629 628.85 301.887 628.354 301.07 628.016C300.253 627.678 299.378 627.504 298.494 627.504L298.493 627.501H274.177C273.293 627.501 272.417 627.675 271.6 628.013C270.784 628.352 270.041 628.848 269.416 629.473C268.791 630.098 268.295 630.84 267.957 631.657C267.619 632.474 267.445 633.349 267.445 634.233C267.445 635.117 267.619 635.993 267.957 636.809C268.295 637.626 268.791 638.368 269.416 638.993C270.041 639.618 270.784 640.114 271.6 640.453C272.417 640.791 273.293 640.965 274.177 640.965L274.178 640.968H298.494C299.378 640.968 300.253 640.794 301.07 640.456C301.887 640.117 302.629 639.621 303.254 638.996C303.88 638.371 304.376 637.629 304.714 636.812C305.052 635.995 305.227 635.12 305.227 634.236Z" fill="#D5891B"/>
<path d="M744.036 687.598C742.705 687.598 741.403 687.993 740.296 688.733C739.189 689.473 738.326 690.524 737.817 691.754C737.308 692.985 737.174 694.338 737.434 695.644C737.694 696.95 738.335 698.149 739.277 699.091C740.218 700.032 741.418 700.673 742.724 700.933C744.03 701.193 745.383 701.06 746.613 700.55C747.843 700.04 748.895 699.178 749.635 698.07C750.374 696.963 750.769 695.662 750.769 694.33C750.769 693.446 750.595 692.571 750.257 691.754C749.918 690.937 749.422 690.195 748.797 689.57C748.172 688.945 747.43 688.449 746.613 688.11C745.796 687.772 744.921 687.598 744.036 687.598Z" fill="#007155"/>
<path d="M709.989 627.501C708.657 627.501 707.356 627.896 706.249 628.636C705.142 629.376 704.279 630.427 703.769 631.657C703.26 632.887 703.127 634.241 703.387 635.547C703.646 636.853 704.287 638.052 705.229 638.994C706.171 639.935 707.37 640.576 708.676 640.836C709.982 641.096 711.336 640.962 712.566 640.453C713.796 639.943 714.847 639.08 715.587 637.973C716.327 636.866 716.721 635.565 716.721 634.233C716.721 632.448 716.012 630.735 714.749 629.473C713.487 628.21 711.774 627.501 709.989 627.501Z" fill="#007155"/>
<path d="M781.014 627.501C779.682 627.501 778.381 627.896 777.274 628.636C776.167 629.376 775.304 630.427 774.795 631.657C774.285 632.887 774.152 634.241 774.412 635.547C774.672 636.853 775.313 638.052 776.254 638.994C777.196 639.935 778.395 640.576 779.701 640.836C781.007 641.096 782.361 640.962 783.591 640.453C784.821 639.943 785.872 639.08 786.612 637.973C787.352 636.866 787.747 635.565 787.747 634.233C787.747 632.448 787.037 630.735 785.775 629.473C784.512 628.21 782.799 627.501 781.014 627.501Z" fill="#007155"/>
<path d="M812.288 627.501H792.383V640.968H812.287V640.965C813.171 640.965 814.048 640.791 814.864 640.453C815.681 640.115 816.423 639.619 817.048 638.993C817.674 638.368 818.169 637.626 818.508 636.809C818.846 635.993 819.02 635.117 819.02 634.233C819.02 633.349 818.846 632.474 818.508 631.657C818.169 630.84 817.674 630.098 817.048 629.473C816.423 628.848 815.681 628.352 814.864 628.013C814.048 627.675 813.172 627.501 812.288 627.501Z" fill="#007155"/>
<path d="M748.558 647.071C747.227 647.071 745.925 647.466 744.818 648.206C743.711 648.946 742.849 649.997 742.339 651.227C741.83 652.458 741.696 653.811 741.956 655.117C742.216 656.423 742.857 657.623 743.799 658.564C744.74 659.505 745.94 660.147 747.246 660.406C748.552 660.666 749.905 660.533 751.135 660.023C752.365 659.514 753.417 658.651 754.157 657.544C754.896 656.436 755.291 655.135 755.291 653.803C755.291 652.018 754.582 650.305 753.319 649.043C752.056 647.78 750.344 647.071 748.558 647.071Z" fill="#007155"/>
<path d="M767.022 647.074C766.137 647.073 765.26 647.246 764.442 647.584C763.624 647.922 762.881 648.417 762.254 649.043C761.628 649.668 761.132 650.41 760.793 651.228C760.454 652.045 760.279 652.921 760.279 653.806C760.279 654.691 760.454 655.567 760.793 656.385C761.132 657.202 761.628 657.945 762.254 658.57C762.881 659.195 763.624 659.691 764.442 660.029C765.26 660.366 766.136 660.54 767.021 660.538H786.926V647.071H767.022V647.074Z" fill="#007155"/>
<path d="M362.617 544.967H231.92V558.432H362.617V544.967Z" fill="#007155"/>
<path d="M362.617 586.614H205.431V600.079H362.617V586.614Z" fill="#007155"/>
<path d="M236.465 613.125C236.466 611.794 236.071 610.492 235.331 609.385C234.591 608.277 233.54 607.414 232.31 606.905C231.079 606.395 229.726 606.262 228.42 606.521C227.114 606.781 225.914 607.422 224.972 608.364C224.03 609.305 223.389 610.505 223.129 611.811C222.87 613.117 223.003 614.471 223.512 615.701C224.022 616.931 224.885 617.983 225.992 618.723C227.099 619.463 228.401 619.857 229.733 619.857C230.617 619.858 231.492 619.683 232.309 619.345C233.126 619.007 233.868 618.511 234.493 617.886C235.118 617.261 235.614 616.519 235.953 615.702C236.291 614.885 236.465 614.01 236.465 613.125Z" fill="#007155"/>
<path d="M236.97 660.536C240.688 660.536 243.702 657.521 243.702 653.803C243.702 650.085 240.688 647.071 236.97 647.071C233.252 647.071 230.237 650.085 230.237 653.803C230.237 657.521 233.252 660.536 236.97 660.536Z" fill="#007155"/>
<path d="M253.801 647.071C252.47 647.071 251.168 647.466 250.061 648.206C248.954 648.946 248.091 649.997 247.582 651.228C247.073 652.458 246.939 653.811 247.199 655.117C247.459 656.423 248.1 657.623 249.042 658.564C249.983 659.505 251.183 660.147 252.489 660.406C253.795 660.666 255.148 660.533 256.378 660.023C257.608 659.514 258.66 658.651 259.4 657.544C260.139 656.436 260.534 655.135 260.534 653.803C260.534 652.919 260.36 652.044 260.021 651.227C259.683 650.41 259.187 649.668 258.562 649.043C257.937 648.418 257.195 647.922 256.378 647.584C255.561 647.245 254.685 647.071 253.801 647.071Z" fill="#007155"/>
<path d="M362.617 502.753H231.92V516.217H362.617V502.753Z" fill="#007155"/>
<path d="M362.617 460.539H231.92V474.003H362.617V460.539Z" fill="#007155"/>
<path d="M362.617 418.325H231.92V431.79H362.617V418.325Z" fill="#007155"/>
<path d="M324.94 397.218H272.397V410.683H324.94V397.218Z" fill="#007155"/>
<path d="M305.401 375.894H291.936V389.358H305.401V375.894Z" fill="#007155"/>
<path d="M305.401 355H291.936V368.464H305.401V355Z" fill="#007155"/>
<path d="M153.809 581.149C153.829 563.941 160.674 547.443 172.843 535.276C185.011 523.108 201.51 516.264 218.718 516.245H225.478V502.727H218.718C208.419 502.727 198.222 504.756 188.707 508.697C179.192 512.638 170.547 518.414 163.265 525.696C155.983 532.979 150.206 541.624 146.265 551.138C142.324 560.653 140.296 570.851 140.296 581.149C140.296 591.448 142.324 601.646 146.265 611.16C150.206 620.675 155.983 629.32 163.265 636.602C170.547 643.884 179.192 649.661 188.707 653.602C198.222 657.543 208.419 659.572 218.718 659.572H225.478V646.053H218.718C201.51 646.035 185.011 639.191 172.843 627.023C160.674 614.855 153.829 598.358 153.809 581.149Z" fill="#007155"/>
<path d="M829.912 506.06L821.743 516.764L832.446 524.933L840.615 514.23L829.912 506.06Z" fill="#007155"/>
<path d="M481.409 482.444H416.24V495.908H481.409V482.444Z" fill="#007155"/>
<path d="M481.409 524.203H416.24V537.667H481.409V524.203Z" fill="#007155"/>
<path d="M481.409 419.464H416.24V432.928H481.409V419.464Z" fill="#007155"/>
<path d="M481.409 461.223H416.24V474.687H481.409V461.223Z" fill="#007155"/>
<path d="M481.409 606.393H416.24V619.857H481.409V606.393Z" fill="#007155"/>
<path d="M543.706 647.071H416.24V660.536H543.706V647.071Z" fill="#007155"/>
<path d="M543.706 667.334H416.24V680.798H543.706V667.334Z" fill="#007155"/>
<path d="M481.409 544.855H416.24V558.319H481.409V544.855Z" fill="#007155"/>
<path d="M481.409 586.614H416.24V600.079H481.409V586.614Z" fill="#007155"/>
<path d="M581.637 482.782C580.305 482.782 579.004 483.177 577.897 483.917C576.79 484.656 575.927 485.708 575.417 486.938C574.908 488.168 574.775 489.522 575.035 490.828C575.294 492.133 575.936 493.333 576.877 494.274C577.819 495.216 579.018 495.857 580.324 496.117C581.63 496.376 582.984 496.243 584.214 495.734C585.444 495.224 586.495 494.361 587.235 493.254C587.975 492.147 588.37 490.845 588.37 489.514C588.369 487.728 587.66 486.016 586.397 484.753C585.135 483.491 583.422 482.782 581.637 482.782Z" fill="#007155"/>
<path d="M647.964 496.246C651.682 496.246 654.696 493.232 654.696 489.514C654.696 485.796 651.682 482.782 647.964 482.782C644.245 482.782 641.231 485.796 641.231 489.514C641.231 493.232 644.245 496.246 647.964 496.246Z" fill="#007155"/>
<path d="M614.855 523.861C613.524 523.861 612.222 524.256 611.115 524.996C610.008 525.736 609.146 526.787 608.636 528.018C608.127 529.248 607.993 530.601 608.253 531.907C608.513 533.213 609.154 534.412 610.096 535.354C611.037 536.295 612.237 536.937 613.543 537.196C614.849 537.456 616.202 537.323 617.432 536.813C618.662 536.304 619.714 535.441 620.454 534.334C621.193 533.226 621.588 531.925 621.588 530.593C621.588 528.808 620.879 527.096 619.616 525.833C618.353 524.571 616.641 523.861 614.855 523.861Z" fill="#007155"/>
<path d="M582.375 389.573C586.093 389.573 589.107 386.559 589.107 382.841C589.107 379.123 586.093 376.108 582.375 376.108C578.657 376.108 575.643 379.123 575.643 382.841C575.643 386.559 578.657 389.573 582.375 389.573Z" fill="#007155"/>
<path d="M648.209 452.896C651.927 452.896 654.941 449.882 654.941 446.164C654.941 442.446 651.927 439.432 648.209 439.432C644.491 439.432 641.477 442.446 641.477 446.164C641.477 449.882 644.491 452.896 648.209 452.896Z" fill="#007155"/>
<path d="M614.855 566.076C613.524 566.076 612.222 566.471 611.115 567.21C610.008 567.95 609.146 569.002 608.636 570.232C608.127 571.462 607.993 572.816 608.253 574.121C608.513 575.427 609.154 576.627 610.096 577.568C611.037 578.51 612.237 579.151 613.543 579.411C614.849 579.67 616.202 579.537 617.432 579.027C618.662 578.518 619.714 577.655 620.454 576.548C621.193 575.441 621.588 574.139 621.588 572.808C621.588 571.022 620.879 569.31 619.616 568.047C618.353 566.785 616.641 566.076 614.855 566.076Z" fill="#007155"/>
<path d="M581.637 606.395C580.305 606.395 579.004 606.79 577.897 607.529C576.79 608.269 575.927 609.321 575.417 610.551C574.908 611.781 574.775 613.134 575.035 614.44C575.294 615.746 575.936 616.946 576.877 617.887C577.819 618.829 579.018 619.47 580.324 619.73C581.63 619.989 582.984 619.856 584.214 619.346C585.444 618.837 586.495 617.974 587.235 616.867C587.975 615.76 588.37 614.458 588.37 613.127C588.369 611.341 587.66 609.629 586.397 608.366C585.135 607.104 583.422 606.395 581.637 606.395Z" fill="#007155"/>
<path d="M647.964 619.859C651.682 619.859 654.696 616.845 654.696 613.126C654.696 609.408 651.682 606.394 647.964 606.394C644.245 606.394 641.231 609.408 641.231 613.126C641.231 616.845 644.245 619.859 647.964 619.859Z" fill="#007155"/>
<path d="M929.944 554.877C928.92 553.853 927.615 553.155 926.194 552.873C924.773 552.59 923.301 552.735 921.962 553.289C920.624 553.844 919.48 554.783 918.675 555.987C917.87 557.192 917.44 558.608 917.44 560.056C917.44 561.505 917.87 562.921 918.675 564.126C919.48 565.33 920.624 566.269 921.962 566.823C923.301 567.377 924.773 567.522 926.194 567.24C927.615 566.957 928.92 566.26 929.944 565.235C931.318 563.862 932.089 561.999 932.089 560.056C932.089 558.114 931.318 556.251 929.944 554.877Z" fill="#007155"/>
<path d="M266.431 606.396C264.646 606.396 262.933 607.105 261.67 608.368C260.408 609.63 259.698 611.343 259.698 613.128C259.698 614.914 260.408 616.626 261.67 617.888C262.933 619.151 264.645 619.86 266.43 619.86H286.335V606.393H266.431V606.396Z" fill="#007155"/>
<path d="M218.369 439.188C211.6 439.189 204.95 440.973 199.09 444.36C193.229 447.748 188.364 452.62 184.985 458.485C181.605 464.35 179.831 471.003 179.839 477.772C179.848 484.541 181.64 491.189 185.034 497.045C185.48 497.813 186.073 498.485 186.779 499.023C187.484 499.562 188.289 499.956 189.147 500.183C190.005 500.411 190.899 500.467 191.779 500.349C192.659 500.23 193.507 499.94 194.274 499.494C195.041 499.048 195.714 498.455 196.252 497.75C196.79 497.044 197.184 496.239 197.412 495.381C197.639 494.523 197.695 493.629 197.577 492.749C197.459 491.87 197.168 491.022 196.723 490.254C194.522 486.452 193.362 482.137 193.359 477.744C193.355 473.351 194.508 469.035 196.703 465.229C198.897 461.423 202.054 458.262 205.858 456.064C209.661 453.866 213.976 452.708 218.369 452.706C219.257 452.706 220.136 452.531 220.956 452.192C221.776 451.852 222.521 451.354 223.149 450.727C223.776 450.099 224.274 449.354 224.614 448.534C224.954 447.714 225.129 446.835 225.129 445.947C225.129 445.06 224.954 444.181 224.614 443.361C224.274 442.54 223.776 441.795 223.149 441.168C222.521 440.54 221.776 440.042 220.956 439.702C220.136 439.363 219.257 439.188 218.369 439.188Z" fill="#33B084"/>
<path d="M481.409 503.551H416.24V517.015H481.409V503.551Z" fill="#33B084"/>
<path d="M481.409 627.501H416.24V640.965H481.409V627.501Z" fill="#33B084"/>
<path d="M448.824 687.599H416.24V701.063H448.824V687.599Z" fill="#33B084"/>
<path d="M448.824 708.706H416.24V722.17H448.824V708.706Z" fill="#33B084"/>
<path d="M543.706 687.599H511.122V701.063H543.706V687.599Z" fill="#33B084"/>
<path d="M543.706 708.706H511.122V722.17H543.706V708.706Z" fill="#33B084"/>
<path d="M481.409 377.023H440.019V390.487H481.409V377.023Z" fill="#33B084"/>
<path d="M481.409 355.002H460.714V368.466H481.409V355.002Z" fill="#33B084"/>
<path d="M561.304 482.783C559.518 482.783 557.805 483.492 556.542 484.755C555.28 486.017 554.571 487.73 554.571 489.515C554.571 491.301 555.28 493.013 556.542 494.276C557.805 495.538 559.517 496.247 561.303 496.247H571.887V482.78H561.304V482.783Z" fill="#33B084"/>
<path d="M668.79 482.78H658.206V496.247H668.789V496.245C670.574 496.245 672.288 495.535 673.55 494.273C674.813 493.01 675.522 491.298 675.522 489.512C675.522 487.727 674.813 486.015 673.55 484.752C672.288 483.49 670.575 482.78 668.79 482.78Z" fill="#33B084"/>
<path d="M561.304 523.863C560.419 523.861 559.541 524.035 558.723 524.372C557.906 524.71 557.162 525.206 556.536 525.831C555.91 526.456 555.413 527.199 555.074 528.016C554.735 528.834 554.561 529.71 554.561 530.595C554.561 531.48 554.735 532.356 555.074 533.173C555.413 533.991 555.91 534.733 556.536 535.359C557.162 535.984 557.906 536.479 558.723 536.817C559.541 537.155 560.418 537.328 561.303 537.327H571.887V523.86H561.304V523.863Z" fill="#33B084"/>
<path d="M668.79 523.86H658.206V537.327H668.789V537.324C669.674 537.325 670.551 537.152 671.369 536.814C672.187 536.477 672.93 535.981 673.556 535.356C674.182 534.73 674.679 533.988 675.018 533.171C675.357 532.353 675.532 531.477 675.532 530.592C675.532 529.707 675.357 528.831 675.018 528.014C674.679 527.196 674.182 526.454 673.556 525.828C672.93 525.203 672.187 524.707 671.369 524.37C670.551 524.032 669.675 523.859 668.79 523.86Z" fill="#33B084"/>
<path d="M562.042 439.434C561.157 439.432 560.28 439.606 559.462 439.943C558.644 440.281 557.901 440.777 557.275 441.402C556.648 442.027 556.152 442.77 555.813 443.587C555.474 444.405 555.299 445.281 555.299 446.166C555.299 447.051 555.474 447.927 555.813 448.744C556.152 449.562 556.648 450.304 557.275 450.929C557.901 451.555 558.644 452.05 559.462 452.388C560.28 452.726 561.156 452.899 562.041 452.898H572.625V439.431H562.042V439.434Z" fill="#33B084"/>
<path d="M602.709 439.431H592.125V452.898H602.708V452.895C603.593 452.896 604.47 452.723 605.288 452.385C606.106 452.047 606.849 451.552 607.476 450.927C608.102 450.301 608.598 449.559 608.937 448.741C609.276 447.924 609.451 447.048 609.451 446.163C609.451 445.278 609.276 444.402 608.937 443.584C608.598 442.767 608.102 442.024 607.476 441.399C606.849 440.774 606.106 440.278 605.288 439.94C604.47 439.603 603.594 439.429 602.709 439.431Z" fill="#33B084"/>
<path d="M562.042 376.11C561.157 376.109 560.28 376.282 559.462 376.62C558.644 376.957 557.901 377.453 557.275 378.078C556.648 378.703 556.152 379.446 555.813 380.263C555.474 381.081 555.299 381.957 555.299 382.842C555.299 383.727 555.474 384.603 555.813 385.42C556.152 386.238 556.648 386.98 557.275 387.606C557.901 388.231 558.644 388.727 559.462 389.064C560.28 389.402 561.156 389.575 562.041 389.574H572.625V376.107H562.042V376.11Z" fill="#33B084"/>
<path d="M602.709 376.107H592.125V389.574L602.708 389.574V389.571C604.493 389.571 606.207 388.862 607.469 387.599C608.732 386.337 609.441 384.625 609.441 382.839C609.441 381.054 608.732 379.341 607.469 378.079C606.207 376.816 604.495 376.107 602.709 376.107Z" fill="#33B084"/>
<path d="M627.876 439.434C626.991 439.432 626.114 439.606 625.296 439.943C624.478 440.281 623.734 440.777 623.108 441.402C622.482 442.027 621.985 442.77 621.646 443.587C621.308 444.405 621.133 445.281 621.133 446.166C621.133 447.051 621.308 447.927 621.646 448.744C621.985 449.562 622.482 450.304 623.108 450.929C623.734 451.555 624.478 452.05 625.296 452.388C626.114 452.726 626.99 452.899 627.875 452.898H638.459V439.431H627.876V439.434Z" fill="#33B084"/>
<path d="M668.542 452.895C669.427 452.896 670.304 452.723 671.122 452.385C671.94 452.047 672.683 451.552 673.309 450.927C673.935 450.301 674.432 449.559 674.771 448.741C675.11 447.924 675.285 447.048 675.285 446.163C675.285 445.278 675.11 444.402 674.771 443.584C674.432 442.767 673.935 442.024 673.309 441.399C672.683 440.774 671.94 440.278 671.122 439.94C670.304 439.603 669.428 439.429 668.543 439.431H657.959V452.898H668.542V452.895Z" fill="#33B084"/>
<path d="M561.304 566.077C560.419 566.076 559.541 566.249 558.723 566.587C557.906 566.925 557.162 567.42 556.536 568.045C555.91 568.671 555.413 569.413 555.074 570.231C554.735 571.048 554.561 571.924 554.561 572.809C554.561 573.694 554.735 574.57 555.074 575.388C555.413 576.205 555.91 576.948 556.536 577.573C557.162 578.198 557.906 578.694 558.723 579.032C559.541 579.369 560.418 579.543 561.303 579.541H571.887V566.074H561.304V566.077Z" fill="#33B084"/>
<path d="M668.79 566.074H658.206V579.541H668.789V579.539C669.674 579.54 670.551 579.367 671.369 579.029C672.187 578.691 672.93 578.195 673.556 577.57C674.182 576.945 674.679 576.202 675.018 575.385C675.357 574.567 675.532 573.691 675.532 572.806C675.532 571.921 675.357 571.045 675.018 570.228C674.679 569.411 674.182 568.668 673.556 568.043C672.93 567.417 672.187 566.922 671.369 566.584C670.551 566.246 669.675 566.073 668.79 566.074Z" fill="#33B084"/>
<path d="M561.304 606.396C559.518 606.396 557.805 607.105 556.542 608.368C555.28 609.63 554.571 611.343 554.571 613.128C554.571 614.914 555.28 616.626 556.542 617.888C557.805 619.151 559.517 619.86 561.303 619.86H571.887V606.393H561.304V606.396Z" fill="#33B084"/>
<path d="M668.79 606.393H658.206V619.86H668.789V619.857C670.574 619.857 672.288 619.148 673.55 617.885C674.813 616.623 675.522 614.911 675.522 613.125C675.522 611.34 674.813 609.627 673.55 608.365C672.288 607.102 670.575 606.393 668.79 606.393Z" fill="#33B084"/>
<path d="M561.304 647.074C560.419 647.073 559.541 647.246 558.723 647.584C557.906 647.922 557.162 648.417 556.536 649.043C555.91 649.668 555.413 650.41 555.074 651.228C554.735 652.045 554.561 652.921 554.561 653.806C554.561 654.691 554.735 655.567 555.074 656.385C555.413 657.202 555.91 657.945 556.536 658.57C557.162 659.195 557.906 659.691 558.723 660.029C559.541 660.366 560.418 660.54 561.303 660.538H571.887V647.071H561.304V647.074Z" fill="#33B084"/>
<path d="M668.79 647.071H658.206V660.538H668.789V660.536C669.674 660.537 670.551 660.364 671.369 660.026C672.187 659.688 672.93 659.192 673.556 658.567C674.182 657.942 674.679 657.199 675.018 656.382C675.357 655.565 675.532 654.688 675.532 653.803C675.532 652.919 675.357 652.042 675.018 651.225C674.679 650.408 674.182 649.665 673.556 649.04C672.93 648.414 672.187 647.919 671.369 647.581C670.551 647.243 669.675 647.07 668.79 647.071Z" fill="#33B084"/>
<path d="M561.304 667.619C559.518 667.619 557.805 668.328 556.542 669.59C555.28 670.853 554.571 672.565 554.571 674.351C554.571 676.136 555.28 677.848 556.542 679.111C557.805 680.374 559.517 681.083 561.303 681.083H571.887V667.616H561.304V667.619Z" fill="#33B084"/>
<path d="M668.79 667.334H658.206V680.801H668.789V680.798C670.574 680.798 672.288 680.089 673.55 678.826C674.813 677.564 675.522 675.852 675.522 674.066C675.522 672.281 674.813 670.568 673.55 669.306C672.288 668.043 670.575 667.334 668.79 667.334Z" fill="#33B084"/>
<path d="M561.304 688.163C560.419 688.162 559.541 688.335 558.724 688.673C557.906 689.011 557.162 689.506 556.536 690.131C555.91 690.757 555.413 691.499 555.074 692.317C554.736 693.134 554.561 694.01 554.561 694.895C554.561 695.78 554.736 696.656 555.074 697.474C555.413 698.291 555.91 699.034 556.536 699.659C557.162 700.284 557.906 700.78 558.724 701.118C559.541 701.455 560.418 701.628 561.303 701.627H571.887V688.16H561.304V688.163Z" fill="#33B084"/>
<path d="M668.79 687.597H658.206V701.064H668.789V701.061C670.574 701.061 672.288 700.352 673.55 699.089C674.813 697.827 675.522 696.114 675.522 694.329C675.522 692.543 674.813 690.831 673.55 689.568C672.288 688.306 670.575 687.597 668.79 687.597Z" fill="#33B084"/>
<path d="M561.304 708.707C560.419 708.706 559.541 708.879 558.723 709.217C557.906 709.555 557.162 710.051 556.536 710.676C555.91 711.301 555.413 712.044 555.074 712.861C554.735 713.679 554.561 714.555 554.561 715.44C554.561 716.324 554.735 717.201 555.074 718.018C555.413 718.835 555.91 719.578 556.536 720.203C557.162 720.829 557.906 721.324 558.723 721.662C559.541 722 560.418 722.173 561.303 722.172H571.887V708.705H561.304V708.707Z" fill="#33B084"/>
<path d="M668.79 708.705H658.206V722.172L668.789 722.172V722.169C669.674 722.17 670.551 721.997 671.369 721.659C672.187 721.321 672.93 720.826 673.556 720.2C674.182 719.575 674.679 718.833 675.018 718.015C675.357 717.198 675.532 716.322 675.532 715.437C675.532 714.552 675.357 713.676 675.018 712.858C674.679 712.041 674.182 711.298 673.556 710.673C672.93 710.048 672.187 709.552 671.369 709.214C670.551 708.877 669.675 708.703 668.79 708.705Z" fill="#33B084"/>
<path d="M939.765 602.877L939.398 596.128L939.242 596.137C938.665 590.184 937.753 584.269 936.51 578.419C936.136 576.666 935.081 575.133 933.577 574.158C932.072 573.182 930.242 572.845 928.489 573.219C926.736 573.593 925.203 574.648 924.228 576.152C923.253 577.656 922.915 579.486 923.289 581.24C928.057 603.576 927.475 626.723 921.591 648.791L919.848 655.322L932.909 658.808L934.652 652.277C938.951 636.183 940.676 619.51 939.765 602.877Z" fill="#33B084"/>
<path d="M871.2 547.412C863.726 536.01 854.693 525.711 844.363 516.814L835.538 527.054C854.501 543.362 868.437 564.724 875.721 588.65C876.241 590.366 877.422 591.805 879.003 592.651C880.584 593.496 882.436 593.679 884.152 593.159C885.868 592.639 887.307 591.458 888.152 589.877C888.998 588.296 889.18 586.444 888.66 584.728C884.65 571.52 878.771 558.954 871.2 547.412Z" fill="#33B084"/>
<path d="M768.591 496.508C786.181 499.035 803.069 505.132 818.216 514.425L825.269 502.892C808.559 492.643 789.931 485.918 770.529 483.128L768.591 496.508Z" fill="#33B084"/>
<path d="M298.264 647.071H267.459V660.538H298.263V660.536C299.148 660.537 300.025 660.364 300.843 660.026C301.661 659.688 302.404 659.192 303.031 658.567C303.657 657.942 304.153 657.199 304.492 656.382C304.831 655.565 305.006 654.688 305.006 653.803C305.006 652.919 304.831 652.042 304.492 651.225C304.153 650.408 303.657 649.665 303.031 649.04C302.404 648.414 301.661 647.919 300.843 647.581C300.025 647.243 299.149 647.07 298.264 647.071Z" fill="#33B084"/>
<path d="M303.707 606.393H290.242V619.857H303.707V606.393Z" fill="#33AF83"/>
</g>
<defs>
<clipPath id="clip0_1_499">
<rect width="800" height="370.667" fill="white" transform="translate(140 355)"/>
</clipPath>
</defs>
</svg>
