<svg width="100" height="100" viewBox="0 0 100 100" fill="none" xmlns="http://www.w3.org/2000/svg">
<path d="M49.9972 0C45.8863 0 42.4974 3.38894 42.4974 7.49977V10.0028H22.4964C15.6153 10.0028 10 15.6182 10 22.4992V87.4988C10 94.3799 15.6155 100 22.4964 100H77.4979C84.379 100 89.9943 94.3799 89.9943 87.4988V22.4992C89.9943 15.6181 84.3789 10.0028 77.4979 10.0028H57.4969V7.49977C57.4969 3.38894 54.108 0 49.9972 0ZM49.9972 5.00145C51.4081 5.00145 52.4955 6.08891 52.4955 7.49977V10.0028H47.4987V7.49977C47.4987 6.08885 48.5863 5.00145 49.9972 5.00145ZM22.4964 14.9995H77.4979C81.6931 14.9995 84.9977 18.3041 84.9977 22.4993V87.4989C84.9977 91.6988 81.6931 94.9987 77.4979 94.9987H22.4964C18.3012 94.9987 14.9966 91.6988 14.9966 87.4989V22.4993C14.9966 18.3041 18.3012 14.9995 22.4964 14.9995Z" fill="black"/>
<path d="M72.4963 89.9972C76.6071 89.9972 79.9961 86.613 79.9961 82.4975V27.5007C79.9961 23.3899 76.6071 20.001 72.4963 20.001H32.4991C30.2352 20.001 28.0649 20.9009 26.4666 22.4993L22.4964 26.4648C20.898 28.0678 19.998 30.2381 19.998 32.5021V82.4973C19.998 86.6128 23.387 89.9971 27.4978 89.9971L72.4963 89.9972ZM72.4963 84.9958H27.4977C26.0868 85.0005 24.9994 83.9083 24.9994 82.4975V32.4974C24.9994 31.5599 25.3697 30.66 26.0353 29.9991L29.9961 26.0336C30.6617 25.3726 31.557 25.0023 32.4991 25.0023H72.4963C73.9072 25.0023 74.9946 26.0898 74.9946 27.5006V82.4974C74.9946 83.9083 73.9071 85.0004 72.4963 85.0004L72.4963 84.9958Z" fill="black"/>
<path d="M32.4991 74.9978C31.1164 74.9978 29.9961 76.1181 29.9961 77.5008C29.9961 78.1617 30.2633 78.7991 30.732 79.268C31.2008 79.7367 31.8335 79.9992 32.4992 79.9992H42.4973C43.1582 79.9992 43.7956 79.7367 44.2645 79.268C44.7333 78.7992 44.9957 78.1617 44.9957 77.5008C44.9957 76.8352 44.7332 76.2024 44.2645 75.7336C43.7957 75.2649 43.1582 74.9977 42.4973 74.9977L32.4991 74.9978Z" fill="black"/>
<path d="M52.4954 74.9978C51.1174 74.9978 49.9971 76.1181 49.9971 77.5008C49.9971 78.1617 50.2596 78.7991 50.7283 79.268C51.197 79.7368 51.8345 79.9992 52.4955 79.9992H67.495C68.1606 79.9992 68.7934 79.7367 69.2622 79.268C69.7309 78.7992 69.9981 78.1617 69.9981 77.5008C69.9981 76.8352 69.7309 76.2024 69.2622 75.7336C68.7935 75.2649 68.1607 74.9977 67.495 74.9977L52.4954 74.9978Z" fill="black"/>
<path d="M32.4991 64.9997C31.1164 64.9997 29.9961 66.1199 29.9961 67.498C29.9961 68.1636 30.2633 68.7964 30.732 69.2652C31.2008 69.7339 31.8335 70.0011 32.4992 70.0011H42.4973C43.1582 70.0011 43.7956 69.7339 44.2645 69.2652C44.7332 68.7964 44.9957 68.1636 44.9957 67.498C44.9957 66.8371 44.7332 66.1996 44.2645 65.7308C43.7957 65.262 43.1582 64.9996 42.4973 64.9996L32.4991 64.9997Z" fill="black"/>
<path d="M52.4954 64.9997C51.1174 64.9997 49.9971 66.1199 49.9971 67.498C49.9971 68.1636 50.2596 68.7964 50.7283 69.2652C51.197 69.7339 51.8345 70.0011 52.4955 70.0011H67.495C68.1606 70.0011 68.7934 69.7339 69.2622 69.2652C69.7309 68.7964 69.9981 68.1636 69.9981 67.498C69.9981 66.8371 69.7309 66.1996 69.2622 65.7308C68.7935 65.2621 68.1607 64.9996 67.495 64.9996L52.4954 64.9997Z" fill="black"/>
<path d="M37.4964 55.0015C36.1183 55.0015 34.998 56.1171 34.998 57.4998C34.998 58.1607 35.2605 58.7982 35.7293 59.267C36.198 59.7358 36.8355 59.9982 37.4965 59.9982H62.4989C63.1598 59.9982 63.7973 59.7357 64.2661 59.267C64.7349 58.7983 64.9973 58.1608 64.9973 57.4998C64.9973 56.8389 64.7348 56.2015 64.2661 55.7326C63.7973 55.2638 63.1599 55.0014 62.4989 55.0014L37.4964 55.0015Z" fill="black"/>
<path d="M39.9991 40.002C38.6164 40.002 37.4961 41.1176 37.4961 42.5003V47.5018C37.4961 48.1627 37.7633 48.8001 38.232 49.2689C38.7008 49.7377 39.3335 50.0002 39.9992 50.0002C40.6601 50.0002 41.2976 49.7377 41.7664 49.2689C42.2352 48.8002 42.4976 48.1627 42.4976 47.5018V42.5003C42.4976 41.8394 42.2351 41.202 41.7664 40.7331C41.2976 40.2643 40.6601 40.002 39.9991 40.002Z" fill="black"/>
<path d="M49.9973 35.0006C48.6146 35.0006 47.499 36.1209 47.499 37.4989V47.5017C47.499 48.1626 47.7615 48.8 48.2303 49.2689C48.699 49.7377 49.3365 50.0001 49.9974 50.0001C50.6584 50.0001 51.2958 49.7376 51.7646 49.2689C52.2335 48.8001 52.4959 48.1626 52.4959 47.5017V37.4989C52.4959 36.838 52.2334 36.2005 51.7646 35.7317C51.2959 35.2629 50.6583 35.0006 49.9973 35.0006Z" fill="black"/>
<path d="M59.9954 29.9992C58.6174 29.9992 57.4971 31.1195 57.4971 32.5022V47.5017C57.4971 48.1626 57.7596 48.8001 58.2283 49.2689C58.697 49.7377 59.3345 50.0001 59.9955 50.0001C60.6611 50.0001 61.2938 49.7376 61.7627 49.2689C62.2314 48.8002 62.4986 48.1627 62.4986 47.5017V32.5022C62.4986 31.8366 62.2314 31.2038 61.7627 30.735C61.2939 30.2663 60.661 29.9992 59.9954 29.9992Z" fill="black"/>
</svg>
