<svg width="17" height="20" viewBox="0 0 17 20" fill="none" xmlns="http://www.w3.org/2000/svg">
<path d="M16.9363 3.6004C16.8884 3.52921 16.8192 3.48023 16.7417 3.4626L16.018 3.2938C15.9782 3.28321 15.937 3.2818 15.8967 3.28967C15.8564 3.29754 15.818 3.31452 15.7836 3.3396C15.7493 3.36468 15.7198 3.39735 15.6968 3.43565C15.6739 3.47394 15.658 3.51709 15.6501 3.5625L15.3977 4.71654C13.9137 2.18111 11.0796 0.500002 8.20295 0.500002C6.47396 0.498631 4.78169 1.06506 3.33099 2.13073C1.8803 3.19639 0.733383 4.7156 0.0290882 6.50443C0.0115367 6.54656 0.0017108 6.59229 0.000204176 6.63884C-0.00130245 6.6854 0.00554146 6.73182 0.0203227 6.77529C0.0351038 6.81876 0.0575148 6.85839 0.0862003 6.89177C0.114886 6.92515 0.14925 6.95159 0.187214 6.96949L0.795388 7.26575C0.832425 7.28508 0.872514 7.29578 0.913273 7.2972C0.954031 7.29862 0.994627 7.29074 1.03264 7.27403C1.07066 7.25732 1.10532 7.23211 1.13456 7.19992C1.16381 7.16772 1.18703 7.12919 1.20287 7.08662C1.80741 5.55771 2.78926 4.25941 4.03016 3.34811C5.27105 2.43681 6.71805 1.95138 8.19687 1.9503C9.4127 1.96292 10.6096 2.29306 11.6944 2.91502C12.7793 3.53699 13.7229 4.43404 14.4519 5.53642L13.3238 5.19193C13.2801 5.18113 13.2348 5.18139 13.1911 5.19271C13.1475 5.20402 13.1066 5.22611 13.0714 5.25739C13.0103 5.31288 12.9683 5.39091 12.9528 5.47786L12.8008 6.30463C12.7915 6.35018 12.7904 6.39739 12.7978 6.4434C12.8051 6.4894 12.8206 6.53324 12.8434 6.57224C12.8661 6.61123 12.8956 6.64457 12.9301 6.67023C12.9646 6.69588 13.0034 6.71331 13.044 6.72146L16.0241 7.48967C16.0676 7.50137 16.1128 7.50315 16.1569 7.4949C16.2011 7.48665 16.2434 7.46853 16.2813 7.44161C16.3192 7.41468 16.352 7.37948 16.3778 7.33805C16.4036 7.29662 16.4219 7.2498 16.4316 7.2003L16.988 3.90699C17.0013 3.85489 17.0036 3.79996 16.9946 3.74668C16.9856 3.6934 16.9657 3.64328 16.9363 3.6004Z" fill="#1D3D68"/>
<path d="M16.9363 3.6004C16.8884 3.52921 16.8192 3.48023 16.7417 3.4626L16.018 3.2938C15.9782 3.28321 15.937 3.2818 15.8967 3.28967C15.8564 3.29754 15.818 3.31452 15.7836 3.3396C15.7493 3.36468 15.7198 3.39735 15.6968 3.43565C15.6739 3.47394 15.658 3.51709 15.6501 3.5625L15.3977 4.71654C13.9137 2.18111 11.0796 0.500002 8.20295 0.500002C6.47396 0.498631 4.78169 1.06506 3.33099 2.13073C1.8803 3.19639 0.733383 4.7156 0.0290882 6.50443C0.0115367 6.54656 0.0017108 6.59229 0.000204176 6.63884C-0.00130245 6.6854 0.00554146 6.73182 0.0203227 6.77529C0.0351038 6.81876 0.0575148 6.85839 0.0862003 6.89177C0.114886 6.92515 0.14925 6.95159 0.187214 6.96949L0.795388 7.26575C0.832425 7.28508 0.872514 7.29578 0.913273 7.2972C0.954031 7.29862 0.994627 7.29074 1.03264 7.27403C1.07066 7.25732 1.10532 7.23211 1.13456 7.19992C1.16381 7.16772 1.18703 7.12919 1.20287 7.08662C1.80741 5.55771 2.78926 4.25941 4.03016 3.34811C5.27105 2.43681 6.71805 1.95138 8.19687 1.9503C9.4127 1.96292 10.6096 2.29306 11.6944 2.91502C12.7793 3.53699 13.7229 4.43404 14.4519 5.53642L13.3238 5.19193C13.2801 5.18113 13.2348 5.18139 13.1911 5.19271C13.1475 5.20402 13.1066 5.22611 13.0714 5.25739C13.0103 5.31288 12.9683 5.39091 12.9528 5.47786L12.8008 6.30463C12.7915 6.35018 12.7904 6.39739 12.7978 6.4434C12.8051 6.4894 12.8206 6.53324 12.8434 6.57224C12.8661 6.61123 12.8956 6.64457 12.9301 6.67023C12.9646 6.69588 13.0034 6.71331 13.044 6.72146L16.0241 7.48967C16.0676 7.50137 16.1128 7.50315 16.1569 7.4949C16.2011 7.48665 16.2434 7.46853 16.2813 7.44161C16.3192 7.41468 16.352 7.37948 16.3778 7.33805C16.4036 7.29662 16.4219 7.2498 16.4316 7.2003L16.988 3.90699C17.0013 3.85489 17.0036 3.79996 16.9946 3.74668C16.9856 3.6934 16.9657 3.64328 16.9363 3.6004Z" stroke="#1D3D68"/>
<path d="M15.8254 14.2495L15.2658 13.8939C15.2308 13.8703 15.1917 13.8547 15.1509 13.8482C15.1102 13.8416 15.0687 13.8442 15.0289 13.8557C14.9891 13.8672 14.9518 13.8874 14.9194 13.9151C14.8869 13.9428 14.86 13.9774 14.8401 14.0168C14.1586 15.2592 13.1949 16.2879 12.0424 17.0031C10.8899 17.7183 9.58785 18.0957 8.26259 18.0986C6.13171 18.0464 4.10442 17.0834 2.61559 15.4162L3.66471 15.6323C3.70386 15.6421 3.74439 15.6433 3.78397 15.6359C3.82356 15.6285 3.8614 15.6126 3.89533 15.5891C3.92926 15.5656 3.95859 15.535 3.98164 15.4991C4.00469 15.4631 4.021 15.4225 4.02962 15.3797L4.21208 14.5852C4.22301 14.5422 4.2259 14.4973 4.22059 14.453C4.21527 14.4087 4.20185 14.3661 4.18114 14.3276C4.16042 14.2892 4.13282 14.2557 4.1 14.2291C4.06718 14.2026 4.0298 14.1835 3.99009 14.1731L1.06168 13.5083C0.973369 13.4876 0.881147 13.5061 0.805301 13.5597C0.729455 13.6133 0.676195 13.6976 0.657238 13.7941L0.00952003 16.9419C-0.00180834 16.9902 -0.00304353 17.0407 0.0059054 17.0896C0.0148543 17.1385 0.033758 17.1846 0.0612158 17.2244C0.105527 17.2927 0.17177 17.3402 0.246712 17.3574L0.964371 17.5568C1.00392 17.5687 1.04527 17.5718 1.08592 17.5657C1.12658 17.5597 1.1657 17.5448 1.20092 17.5218C1.23615 17.4988 1.26676 17.4683 1.29091 17.432C1.31506 17.3958 1.33225 17.3546 1.34145 17.3109L1.60905 16.2406C2.54441 17.3846 3.71317 18.2718 5.02064 18.8302C6.32811 19.3885 7.73752 19.6024 9.1347 19.4545C10.5319 19.3066 11.8775 18.801 13.0627 17.9787C14.2478 17.1564 15.239 16.0406 15.9561 14.7215C15.9799 14.6785 15.9945 14.6301 15.9987 14.58C16.0029 14.5299 15.9967 14.4794 15.9805 14.4323C15.9504 14.3531 15.8954 14.2882 15.8254 14.2495Z" fill="#1D3D68"/>
<path d="M15.8254 14.2495L15.2658 13.8939C15.2308 13.8703 15.1917 13.8547 15.1509 13.8482C15.1102 13.8416 15.0687 13.8442 15.0289 13.8557C14.9891 13.8672 14.9518 13.8874 14.9194 13.9151C14.8869 13.9428 14.86 13.9774 14.8401 14.0168C14.1586 15.2592 13.1949 16.2879 12.0424 17.0031C10.8899 17.7183 9.58785 18.0957 8.26259 18.0986C6.13171 18.0464 4.10442 17.0834 2.61559 15.4162L3.66471 15.6323C3.70386 15.6421 3.74439 15.6433 3.78397 15.6359C3.82356 15.6285 3.8614 15.6126 3.89533 15.5891C3.92926 15.5656 3.95859 15.535 3.98164 15.4991C4.00469 15.4631 4.021 15.4225 4.02962 15.3797L4.21208 14.5852C4.22301 14.5422 4.2259 14.4973 4.22059 14.453C4.21527 14.4087 4.20185 14.3661 4.18114 14.3276C4.16042 14.2892 4.13282 14.2557 4.1 14.2291C4.06718 14.2026 4.0298 14.1835 3.99009 14.1731L1.06168 13.5083C0.973369 13.4876 0.881147 13.5061 0.805301 13.5597C0.729455 13.6133 0.676195 13.6976 0.657238 13.7941L0.00952003 16.9419C-0.00180834 16.9902 -0.00304353 17.0407 0.0059054 17.0896C0.0148543 17.1385 0.033758 17.1846 0.0612158 17.2244C0.105527 17.2927 0.17177 17.3402 0.246712 17.3574L0.964371 17.5568C1.00392 17.5687 1.04527 17.5718 1.08592 17.5657C1.12658 17.5597 1.1657 17.5448 1.20092 17.5218C1.23615 17.4988 1.26676 17.4683 1.29091 17.432C1.31506 17.3958 1.33225 17.3546 1.34145 17.3109L1.60905 16.2406C2.54441 17.3846 3.71317 18.2718 5.02064 18.8302C6.32811 19.3885 7.73752 19.6024 9.1347 19.4545C10.5319 19.3066 11.8775 18.801 13.0627 17.9787C14.2478 17.1564 15.239 16.0406 15.9561 14.7215C15.9799 14.6785 15.9945 14.6301 15.9987 14.58C16.0029 14.5299 15.9967 14.4794 15.9805 14.4323C15.9504 14.3531 15.8954 14.2882 15.8254 14.2495Z" stroke="#1D3D68"/>
</svg>
