<svg width="100" height="100" viewBox="0 0 100 100" fill="none" xmlns="http://www.w3.org/2000/svg">
<path d="M97.1678 47.21L80.4209 30.4632C79.6532 29.6955 78.6338 29.3054 77.6312 29.3054C76.6286 29.3012 75.605 29.6956 74.8414 30.4632L58.0945 47.21C57.3268 47.9734 56.9367 48.9971 56.9367 49.9997C56.9325 51.0023 57.3268 52.0259 58.0945 52.7894L74.8414 69.5361C75.6091 70.3038 76.6285 70.6939 77.6354 70.6939C78.638 70.6981 79.6616 70.3038 80.4251 69.5361L97.172 52.7894C97.9397 52.0217 98.3298 51.0023 98.3298 49.9997C98.334 48.9971 97.9397 47.9735 97.172 47.21H97.1678ZM94.3781 49.9997L77.6312 66.7464L60.8843 49.9997L77.6312 33.2529L94.3781 49.9997ZM47.2088 41.9075C47.9723 42.6752 48.9959 43.0653 49.9986 43.0653C51.0012 43.0695 52.0247 42.6751 52.7883 41.9075L69.5352 25.1607C70.3029 24.393 70.693 23.3736 70.693 22.371C70.6972 21.3684 70.3029 20.3448 69.5352 19.5813L52.7883 2.83454C52.0206 2.06686 51.0012 1.67675 49.9986 1.67675C48.9959 1.67255 47.9724 2.06688 47.2088 2.83454L30.4619 19.5813C29.6942 20.349 29.3041 21.3684 29.3041 22.371C29.2999 23.3736 29.6942 24.3972 30.4619 25.1607L47.2088 41.9075ZM33.252 22.3675L49.9989 5.62073L66.7458 22.3675L49.9989 39.1142L33.252 22.3675ZM52.7879 58.0925C52.0202 57.3249 51.0008 56.9347 49.9981 56.9347C48.9955 56.9306 47.9719 57.3249 47.2084 58.0925L30.4615 74.8393C29.6938 75.607 29.3037 76.6264 29.3037 77.629C29.2995 78.6316 29.6938 79.6552 30.4615 80.4187L47.2084 97.1655C47.9719 97.9332 48.9955 98.3233 49.9981 98.3233C51.0007 98.3275 52.0243 97.9331 52.7879 97.1655L69.5348 80.4187C70.3025 79.651 70.6926 78.6316 70.6926 77.629C70.6968 76.6264 70.3025 75.6028 69.5348 74.8393L52.7879 58.0925ZM66.7447 77.6325L49.9978 94.3793L33.2509 77.6325L49.9978 60.8858L66.7447 77.6325ZM43.0591 50.0005C43.0633 48.9979 42.669 47.9744 41.9013 47.2108L25.1544 30.4641C24.3867 29.6964 23.3673 29.3063 22.3646 29.3063C21.362 29.3021 20.3385 29.6964 19.5749 30.4641L2.82798 47.2108C2.06029 47.9743 1.67018 48.9979 1.67018 50.0005C1.66598 51.0031 2.06031 52.0267 2.82798 52.7903L19.5749 69.537C20.3426 70.3047 21.362 70.6948 22.3688 70.6948C23.3715 70.699 24.395 70.3047 25.1586 69.537L41.9055 52.7903C42.6732 52.0226 43.0633 51.0032 43.0633 50.0005H43.0591ZM39.1116 50.0005L22.3646 66.7473L5.61774 50.0005L22.3646 33.2538L39.1116 50.0005Z" fill="black"/>
<path d="M50 56.2584C51.171 56.2589 52.3611 56.7141 53.2589 57.6119L70.0041 74.357C70.9027 75.2508 71.3663 76.4496 71.3621 77.6292L71.3574 77.8501C71.3038 78.9548 70.8484 80.0571 70.006 80.8995L53.2589 97.6466C52.3657 98.5437 51.171 99.0032 49.9981 98.9991H49.9963L49.9953 99C48.8264 98.9993 47.6319 98.5451 46.7373 97.6466L29.9903 80.8995C29.0922 80.0054 28.6293 78.8061 28.6342 77.6264C28.6349 76.4497 29.0923 75.2569 29.9903 74.3589L46.7355 57.6128C47.6289 56.7146 48.8245 56.2543 49.9981 56.2584H50ZM49.9981 56.9347C48.9955 56.9306 47.9719 57.3249 47.2084 58.0925L30.4615 74.8393L30.3221 74.9865C29.6468 75.7347 29.3037 76.6891 29.3037 77.629C29.2995 78.6316 29.6938 79.6552 30.4615 80.4187L47.2084 97.1655C47.9719 97.9332 48.9955 98.3233 49.9981 98.3233C51.0007 98.3275 52.0243 97.9331 52.7879 97.1655L69.5348 80.4187C70.2545 79.699 70.6426 78.758 70.6882 77.817L70.6926 77.629C70.6968 76.6264 70.3025 75.6028 69.5348 74.8393L52.7879 58.0925C52.0681 57.3728 51.127 56.9845 50.186 56.9389L49.9981 56.9347ZM66.7447 77.6325L49.9978 94.3793L33.2509 77.6325L49.9978 60.8858L66.7447 77.6325ZM34.2025 77.632L49.9972 93.4268L65.7919 77.632L49.9972 61.8373L34.2025 77.632ZM22.3668 28.6302C23.5378 28.6307 24.7279 29.0858 25.6257 29.9836L42.3718 46.7287L42.5344 46.8996C43.1645 47.5941 43.5508 48.4472 43.6803 49.3242H43.7335V50.0009C43.7334 51.1784 43.2751 52.3727 42.3765 53.2713L25.6304 70.0174C24.737 70.915 23.542 71.375 22.3687 71.3708H22.3668L22.3659 71.3717C21.1913 71.371 20.001 70.9152 19.1032 70.0174L2.35707 53.2713C1.45886 52.3771 0.995217 51.1779 1.00004 49.9981C1.00066 48.8224 1.45796 47.6239 2.35801 46.7287L19.1032 29.9836C19.9966 29.086 21.1916 28.6259 22.3649 28.6302H22.3668ZM77.6332 28.6292C78.8042 28.6297 79.9943 29.0848 80.8922 29.9826L97.4429 46.5334H97.4467L97.642 46.7278C98.5406 47.6216 99.0042 48.8203 99 50L98.9944 50.2209C98.9407 51.3255 98.4854 52.4279 97.6429 53.2703L80.8968 70.0164C80.0034 70.9141 78.8084 71.3741 77.6351 71.3698H77.6332L77.6323 71.3708C76.4578 71.37 75.2674 70.9142 74.3696 70.0164L57.6235 53.2703C56.7253 52.3762 56.2616 51.1769 56.2665 49.9972C56.2671 48.8951 56.6692 47.7731 57.4609 46.8996L57.6244 46.7278L74.3696 29.9826C75.263 29.085 76.4581 28.625 77.6314 28.6292H77.6332ZM22.3646 29.3063C21.362 29.3021 20.3385 29.6964 19.5749 30.4641L2.82798 47.2108L2.68885 47.3573C2.01344 48.1025 1.67018 49.0606 1.67018 50.0005C1.66598 51.0031 2.06031 52.0267 2.82798 52.7903L19.5749 69.537C20.3426 70.3047 21.362 70.6948 22.3688 70.6948C23.3715 70.699 24.395 70.3047 25.1586 69.537L41.9055 52.7903C42.6732 52.0226 43.0633 51.0032 43.0633 50.0005H43.0591C43.0631 49.0607 42.7167 48.1026 42.041 47.3573L41.9013 47.2108L25.1544 30.4641C24.4347 29.7444 23.4937 29.3563 22.5528 29.3106L22.3646 29.3063ZM77.6312 29.3054C76.6286 29.3012 75.605 29.6956 74.8414 30.4632L58.0945 47.21C57.3268 47.9734 56.9367 48.9971 56.9367 49.9997C56.9325 51.0023 57.3268 52.0259 58.0945 52.7894L74.8414 69.5361C75.6091 70.3038 76.6285 70.6939 77.6354 70.6939C78.638 70.6981 79.6616 70.3038 80.4251 69.5361L97.172 52.7894C97.8916 52.0697 98.2795 51.1287 98.3252 50.1878L98.3298 49.9997C98.334 48.9971 97.9397 47.9735 97.172 47.21H97.1678L80.4209 30.4632C79.7012 29.7435 78.7602 29.3554 77.8192 29.3097L77.6312 29.3054ZM39.1116 50.0005L22.3646 66.7473L5.61774 50.0005L22.3646 33.2538L39.1116 50.0005ZM94.3781 49.9997L77.6312 66.7464L60.8843 49.9997L77.6312 33.2529L94.3781 49.9997ZM6.5693 50L22.364 65.7947L38.1587 50L22.364 34.2053L6.5693 50ZM61.8357 49.9991L77.6304 65.7938L93.4251 49.9991L77.6304 34.2043L61.8357 49.9991ZM50 1.00094C51.1712 1.00132 52.3619 1.45552 53.2599 2.35343L70.0069 19.1005C70.9048 19.994 71.3671 21.1917 71.363 22.3708L71.3574 22.5916C71.3039 23.6963 70.8493 24.7986 70.0069 25.6411L53.2599 42.3881C52.3665 43.2857 51.1714 43.7449 49.9981 43.7406H49.9963L49.9953 43.7416C48.8263 43.7407 47.6318 43.2868 46.7373 42.3881L29.9903 25.6411C29.0924 24.7469 28.6293 23.5475 28.6342 22.368C28.635 21.1914 29.0924 19.9983 29.9903 19.1005L46.7373 2.35343C47.6305 1.45625 48.8253 0.99688 49.9981 1.00094H50ZM49.9986 1.67675C48.9959 1.67255 47.9724 2.06688 47.2088 2.83454L30.4619 19.5813L30.3221 19.7281C29.6468 20.4762 29.3041 21.4312 29.3041 22.371C29.2999 23.3736 29.6942 24.3972 30.4619 25.1607L47.2088 41.9075C47.9723 42.6752 48.9959 43.0653 49.9986 43.0653C51.0012 43.0695 52.0247 42.6751 52.7883 41.9075L69.5352 25.1607C70.3029 24.393 70.693 23.3736 70.693 22.371C70.6972 21.3684 70.3029 20.3448 69.5352 19.5813L52.7883 2.83454C52.0206 2.06686 51.0012 1.67675 49.9986 1.67675ZM66.7458 22.3675L49.9989 39.1142L33.252 22.3675L49.9989 5.62073L66.7458 22.3675ZM34.2035 22.367L49.9981 38.1617L65.7928 22.367L49.9981 6.57228L34.2035 22.367Z" fill="black"/>
<path d="M97.1678 47.21L97.0971 47.2807L97.1264 47.31H97.1678V47.21ZM80.4209 30.4632L80.4916 30.3925L80.4916 30.3925L80.4209 30.4632ZM74.8414 30.4632L74.9121 30.5339L74.9123 30.5337L74.8414 30.4632ZM58.0945 47.21L58.165 47.2809L58.1652 47.2807L58.0945 47.21ZM56.9367 49.9997L57.0367 50.0001V49.9997H56.9367ZM58.0945 52.7894L58.1652 52.7187L58.165 52.7185L58.0945 52.7894ZM74.8414 69.5361L74.7707 69.6069L74.7707 69.6069L74.8414 69.5361ZM77.6354 70.6939L77.6358 70.5939H77.6354V70.6939ZM80.4251 69.5361L80.3544 69.4654L80.3542 69.4656L80.4251 69.5361ZM97.172 52.7894L97.2427 52.8601L97.2427 52.8601L97.172 52.7894ZM97.172 47.21L97.2426 47.1391L97.2133 47.11H97.172V47.21ZM94.3781 49.9997L94.4488 50.0704L94.5195 49.9997L94.4488 49.929L94.3781 49.9997ZM77.6312 66.7464L77.5605 66.8171L77.6312 66.8878L77.7019 66.8171L77.6312 66.7464ZM60.8843 49.9997L60.8136 49.929L60.7428 49.9997L60.8136 50.0704L60.8843 49.9997ZM77.6312 33.2529L77.7019 33.1822L77.6312 33.1115L77.5605 33.1822L77.6312 33.2529ZM47.2088 41.9075L47.2797 41.837L47.2795 41.8368L47.2088 41.9075ZM49.9986 43.0653L49.999 42.9653H49.9986V43.0653ZM52.7883 41.9075L52.7176 41.8368L52.7174 41.8369L52.7883 41.9075ZM69.5352 25.1607L69.6059 25.2314L69.6059 25.2314L69.5352 25.1607ZM70.693 22.371L70.593 22.3706V22.371H70.693ZM69.5352 19.5813L69.4645 19.652L69.4647 19.6522L69.5352 19.5813ZM52.7883 2.83454L52.7176 2.90525L52.7176 2.90525L52.7883 2.83454ZM49.9986 1.67675L49.9981 1.77675H49.9986V1.67675ZM47.2088 2.83454L47.2795 2.90525L47.2797 2.90506L47.2088 2.83454ZM30.4619 19.5813L30.3912 19.5106L30.3912 19.5106L30.4619 19.5813ZM29.3041 22.371L29.4041 22.3714L29.4041 22.371L29.3041 22.371ZM30.4619 25.1607L30.5326 25.09L30.5324 25.0898L30.4619 25.1607ZM33.252 22.3675L33.1813 22.2967L33.1105 22.3675L33.1813 22.4382L33.252 22.3675ZM49.9989 5.62073L50.0696 5.55001L49.9989 5.4793L49.9282 5.55001L49.9989 5.62073ZM66.7458 22.3675L66.8165 22.4382L66.8872 22.3675L66.8165 22.2967L66.7458 22.3675ZM49.9989 39.1142L49.9282 39.1849L49.9989 39.2556L50.0696 39.1849L49.9989 39.1142ZM47.2084 58.0925L47.2791 58.1633L47.2793 58.1631L47.2084 58.0925ZM30.4615 74.8393L30.3907 74.7686L30.3907 74.7686L30.4615 74.8393ZM29.3037 77.629L29.4037 77.6294V77.629H29.3037ZM30.4615 80.4187L30.5322 80.348L30.532 80.3478L30.4615 80.4187ZM47.2084 97.1655L47.2793 97.095L47.2791 97.0948L47.2084 97.1655ZM49.9981 98.3233L49.9985 98.2233H49.9981V98.3233ZM52.7879 97.1655L52.7172 97.0948L52.717 97.0949L52.7879 97.1655ZM69.5348 80.4187L69.4641 80.348L69.4641 80.348L69.5348 80.4187ZM69.5348 74.8393L69.4641 74.91L69.4643 74.9102L69.5348 74.8393ZM66.7447 77.6325L66.8154 77.7033L66.8861 77.6325L66.8154 77.5618L66.7447 77.6325ZM49.9978 94.3793L49.9271 94.45L49.9978 94.5207L50.0685 94.45L49.9978 94.3793ZM33.2509 77.6325L33.1802 77.5618L33.1095 77.6325L33.1802 77.7033L33.2509 77.6325ZM49.9978 60.8858L50.0685 60.8151L49.9978 60.7444L49.9271 60.8151L49.9978 60.8858ZM43.0591 50.0005L42.9591 50.0001L42.9587 50.1005H43.0591V50.0005ZM25.1544 30.4641L25.2251 30.3934L25.2251 30.3934L25.1544 30.4641ZM19.5749 30.4641L19.6456 30.5348L19.6458 30.5346L19.5749 30.4641ZM1.67018 50.0005L1.77018 50.001V50.0005H1.67018ZM2.82798 52.7903L2.89869 52.7196L2.8985 52.7194L2.82798 52.7903ZM19.5749 69.537L19.6456 69.4663L19.6456 69.4663L19.5749 69.537ZM22.3688 70.6948L22.3693 70.5948H22.3688V70.6948ZM25.1586 69.537L25.0879 69.4663L25.0877 69.4665L25.1586 69.537ZM41.9055 52.7903L41.9762 52.861L41.9762 52.861L41.9055 52.7903ZM43.0633 50.0005H43.1633V49.9005H43.0633V50.0005ZM39.1116 50.0005L39.1823 50.0713L39.253 50.0005L39.1823 49.9298L39.1116 50.0005ZM22.3646 66.7473L22.2939 66.818L22.3646 66.8887L22.4354 66.818L22.3646 66.7473ZM5.61774 50.0005L5.54703 49.9298L5.47632 50.0005L5.54703 50.0713L5.61774 50.0005ZM22.3646 33.2538L22.4354 33.1831L22.3646 33.1124L22.2939 33.1831L22.3646 33.2538ZM50 56.2584L50 56.1584H50V56.2584ZM53.2589 57.6119L53.3297 57.5412L53.3296 57.5411L53.2589 57.6119ZM70.0041 74.357L69.9334 74.4277L69.9336 74.4279L70.0041 74.357ZM71.3621 77.6292L71.4621 77.6313L71.4621 77.6296L71.3621 77.6292ZM71.3574 77.8501L71.4573 77.8549L71.4574 77.8522L71.3574 77.8501ZM70.006 80.8995L69.9353 80.8288L69.9353 80.8288L70.006 80.8995ZM53.2589 97.6466L53.1882 97.5759L53.1881 97.576L53.2589 97.6466ZM49.9981 98.9991L49.9985 98.8991H49.9981V98.9991ZM49.9963 98.9991V98.8991C49.9696 98.8991 49.944 98.9097 49.9252 98.9287L49.9963 98.9991ZM49.9953 99L49.9953 99.1C50.022 99.1 50.0476 99.0893 50.0664 99.0704L49.9953 99ZM46.7373 97.6466L46.8082 97.576L46.808 97.5759L46.7373 97.6466ZM29.9903 80.8995L30.061 80.8288L30.0608 80.8287L29.9903 80.8995ZM28.6342 77.6264L28.7342 77.6268L28.7342 77.6264L28.6342 77.6264ZM29.9903 74.3589L30.061 74.4296L30.061 74.4296L29.9903 74.3589ZM46.7355 57.6128L46.8062 57.6835L46.8064 57.6833L46.7355 57.6128ZM49.9981 56.2584L49.9978 56.3584H49.9981V56.2584ZM30.3221 74.9865L30.2494 74.9178L30.2478 74.9195L30.3221 74.9865ZM70.6882 77.817L70.7881 77.8219L70.7882 77.8194L70.6882 77.817ZM50.186 56.9389L50.1908 56.839L50.1882 56.8389L50.186 56.9389ZM34.2025 77.632L34.1318 77.5613C34.0928 77.6004 34.0928 77.6637 34.1318 77.7028L34.2025 77.632ZM49.9972 93.4268L49.9265 93.4975C49.9452 93.5162 49.9707 93.5268 49.9972 93.5268C50.0237 93.5268 50.0492 93.5162 50.0679 93.4975L49.9972 93.4268ZM65.7919 77.632L65.8626 77.7028C65.9016 77.6637 65.9016 77.6004 65.8626 77.5613L65.7919 77.632ZM49.9972 61.8373L50.0679 61.7666C50.0492 61.7479 50.0237 61.7373 49.9972 61.7373C49.9707 61.7373 49.9452 61.7479 49.9265 61.7666L49.9972 61.8373ZM22.3668 28.6302L22.3668 28.5302H22.3668V28.6302ZM25.6257 29.9836L25.555 30.0543L25.555 30.0543L25.6257 29.9836ZM42.3718 46.7287L42.4443 46.6598L42.4425 46.658L42.3718 46.7287ZM42.5344 46.8996L42.6085 46.8324L42.6069 46.8306L42.5344 46.8996ZM43.6803 49.3242L43.5813 49.3388C43.5886 49.3879 43.6307 49.4242 43.6803 49.4242V49.3242ZM43.7335 49.3242H43.8335C43.8335 49.269 43.7888 49.2242 43.7335 49.2242V49.3242ZM43.7335 50.0009L43.8335 50.001V50.0009H43.7335ZM42.3765 53.2713L42.3058 53.2005L42.3058 53.2005L42.3765 53.2713ZM25.6304 70.0174L25.5597 69.9466L25.5595 69.9468L25.6304 70.0174ZM22.3687 71.3708L22.369 71.2708H22.3687V71.3708ZM22.3668 71.3708V71.2708C22.3401 71.2708 22.3145 71.2815 22.2957 71.3004L22.3668 71.3708ZM22.3659 71.3717L22.3658 71.4717C22.3925 71.4717 22.4181 71.4611 22.4369 71.4421L22.3659 71.3717ZM19.1032 70.0174L19.0325 70.0881L19.0325 70.0881L19.1032 70.0174ZM2.35707 53.2713L2.42778 53.2005L2.42762 53.2004L2.35707 53.2713ZM1.00004 49.9981L1.10004 49.9985L1.10004 49.9982L1.00004 49.9981ZM2.35801 46.7287L2.42852 46.7996L2.42872 46.7995L2.35801 46.7287ZM19.1032 29.9836L19.1739 30.0543L19.1741 30.0541L19.1032 29.9836ZM22.3649 28.6302L22.3646 28.7302H22.3649V28.6302ZM77.6332 28.6292L77.6333 28.5292H77.6332V28.6292ZM80.8922 29.9826L80.9629 29.9119L80.9629 29.9119L80.8922 29.9826ZM97.4429 46.5334L97.3722 46.6041C97.391 46.6228 97.4164 46.6334 97.4429 46.6334V46.5334ZM97.4467 46.5334L97.5172 46.4625C97.4985 46.4438 97.4731 46.4334 97.4467 46.4334V46.5334ZM97.642 46.7278L97.5715 46.7987L97.5715 46.7987L97.642 46.7278ZM99 50L99.1 50.0025L99.1 50.0004L99 50ZM98.9944 50.2209L99.0943 50.2257L99.0943 50.2234L98.9944 50.2209ZM97.6429 53.2703L97.5722 53.1996L97.5722 53.1996L97.6429 53.2703ZM80.8968 70.0164L80.8261 69.9457L80.826 69.9459L80.8968 70.0164ZM77.6351 71.3698L77.6355 71.2698H77.6351V71.3698ZM77.6332 71.3698V71.2698C77.6065 71.2698 77.5809 71.2805 77.5622 71.2995L77.6332 71.3698ZM77.6323 71.3708L77.6322 71.4708C77.6589 71.4708 77.6845 71.4601 77.7033 71.4411L77.6323 71.3708ZM74.3696 70.0164L74.2989 70.0871L74.2989 70.0871L74.3696 70.0164ZM57.6235 53.2703L57.6942 53.1996L57.6941 53.1994L57.6235 53.2703ZM56.2665 49.9972L56.3665 49.9976L56.3665 49.9972L56.2665 49.9972ZM57.4609 46.8996L57.3884 46.8306L57.3868 46.8324L57.4609 46.8996ZM57.6244 46.7278L57.5537 46.6571L57.552 46.6588L57.6244 46.7278ZM74.3696 29.9826L74.4403 30.0534L74.4405 30.0532L74.3696 29.9826ZM77.6314 28.6292L77.631 28.7292H77.6314V28.6292ZM2.68885 47.3573L2.61632 47.2884L2.61476 47.2902L2.68885 47.3573ZM42.041 47.3573L42.1151 47.2901L42.1134 47.2883L42.041 47.3573ZM22.5528 29.3106L22.5576 29.2107L22.5551 29.2107L22.5528 29.3106ZM98.3252 50.1878L98.4251 50.1927L98.4252 50.1903L98.3252 50.1878ZM77.8192 29.3097L77.8241 29.2098L77.8215 29.2097L77.8192 29.3097ZM6.5693 50L6.49859 49.9293C6.45954 49.9683 6.45954 50.0317 6.49859 50.0707L6.5693 50ZM22.364 65.7947L22.2933 65.8654C22.312 65.8842 22.3375 65.8947 22.364 65.8947C22.3905 65.8947 22.4159 65.8842 22.4347 65.8654L22.364 65.7947ZM38.1587 50L38.2294 50.0707C38.2684 50.0317 38.2684 49.9683 38.2294 49.9293L38.1587 50ZM22.364 34.2053L22.4347 34.1346C22.4159 34.1158 22.3905 34.1053 22.364 34.1053C22.3375 34.1053 22.312 34.1158 22.2933 34.1346L22.364 34.2053ZM61.8357 49.9991L61.765 49.9283C61.726 49.9674 61.726 50.0307 61.765 50.0698L61.8357 49.9991ZM77.6304 65.7938L77.5597 65.8645C77.5785 65.8833 77.6039 65.8938 77.6304 65.8938C77.6569 65.8938 77.6824 65.8833 77.7011 65.8645L77.6304 65.7938ZM93.4251 49.9991L93.4958 50.0698C93.5349 50.0307 93.5349 49.9674 93.4958 49.9283L93.4251 49.9991ZM77.6304 34.2043L77.7011 34.1336C77.6824 34.1149 77.6569 34.1043 77.6304 34.1043C77.6039 34.1043 77.5785 34.1149 77.5597 34.1336L77.6304 34.2043ZM53.2599 2.35343L53.3306 2.28272L53.3306 2.28272L53.2599 2.35343ZM70.0069 19.1005L69.9362 19.1712L69.9364 19.1713L70.0069 19.1005ZM71.363 22.3708L71.463 22.3733L71.463 22.3711L71.363 22.3708ZM71.3574 22.5916L71.4573 22.5965L71.4574 22.5942L71.3574 22.5916ZM70.0069 25.6411L70.0776 25.7118L70.0776 25.7118L70.0069 25.6411ZM53.2599 42.3881L53.1892 42.3174L53.189 42.3176L53.2599 42.3881ZM49.9981 43.7406L49.9985 43.6406H49.9981V43.7406ZM49.9963 43.7406V43.6406C49.9696 43.6406 49.944 43.6513 49.9252 43.6703L49.9963 43.7406ZM49.9953 43.7416L49.9953 43.8416C50.022 43.8416 50.0476 43.8309 50.0664 43.8119L49.9953 43.7416ZM46.7373 42.3881L46.8082 42.3176L46.808 42.3174L46.7373 42.3881ZM29.9903 25.6411L30.061 25.5704L30.0609 25.5702L29.9903 25.6411ZM28.6342 22.368L28.7342 22.3684L28.7342 22.368L28.6342 22.368ZM29.9903 19.1005L29.9196 19.0298L29.9196 19.0298L29.9903 19.1005ZM46.7373 2.35343L46.808 2.42414L46.8082 2.42398L46.7373 2.35343ZM49.9981 1.00094L49.9978 1.10094H49.9981V1.00094ZM30.3221 19.7281L30.2496 19.6591L30.2478 19.6611L30.3221 19.7281ZM34.2035 22.367L34.1327 22.2963C34.0937 22.3354 34.0937 22.3987 34.1327 22.4377L34.2035 22.367ZM49.9981 38.1617L49.9274 38.2324C49.9462 38.2512 49.9716 38.2617 49.9981 38.2617C50.0247 38.2617 50.0501 38.2512 50.0688 38.2324L49.9981 38.1617ZM65.7928 22.367L65.8635 22.4377C65.9026 22.3987 65.9026 22.3354 65.8635 22.2963L65.7928 22.367ZM49.9981 6.57228L50.0688 6.50157C50.0501 6.48281 50.0247 6.47228 49.9981 6.47228C49.9716 6.47228 49.9462 6.48281 49.9274 6.50157L49.9981 6.57228ZM97.1678 47.21L97.2385 47.1392L80.4916 30.3925L80.4209 30.4632L80.3502 30.5339L97.0971 47.2807L97.1678 47.21ZM80.4209 30.4632L80.4916 30.3925C79.7045 29.6054 78.6593 29.2054 77.6312 29.2054V29.3054V29.4054C78.6083 29.4054 79.602 29.7857 80.3502 30.5339L80.4209 30.4632ZM77.6312 29.3054L77.6316 29.2054C76.603 29.2011 75.5535 29.6055 74.7705 30.3927L74.8414 30.4632L74.9123 30.5337C75.6565 29.7856 76.6541 29.4013 77.6308 29.4054L77.6312 29.3054ZM74.8414 30.4632L74.7707 30.3925L58.0238 47.1392L58.0945 47.21L58.1652 47.2807L74.9121 30.5339L74.8414 30.4632ZM58.0945 47.21L58.024 47.139C57.2366 47.9222 56.8367 48.9717 56.8367 49.9997H56.9367H57.0367C57.0367 49.0225 57.4171 48.0247 58.165 47.2809L58.0945 47.21ZM56.9367 49.9997L56.8367 49.9993C56.8324 51.0278 57.2368 52.0773 58.024 52.8603L58.0945 52.7894L58.165 52.7185C57.4169 51.9744 57.0326 50.9767 57.0367 50.0001L56.9367 49.9997ZM58.0945 52.7894L58.0238 52.8601L74.7707 69.6069L74.8414 69.5361L74.9121 69.4654L58.1652 52.7187L58.0945 52.7894ZM74.8414 69.5361L74.7707 69.6069C75.5579 70.394 76.6031 70.7939 77.6354 70.7939V70.6939V70.5939C76.654 70.5939 75.6603 70.2136 74.9121 69.4654L74.8414 69.5361ZM77.6354 70.6939L77.6349 70.7939C78.6635 70.7982 79.713 70.3938 80.496 69.6067L80.4251 69.5361L80.3542 69.4656C79.6101 70.2138 78.6124 70.598 77.6358 70.5939L77.6354 70.6939ZM80.4251 69.5361L80.4958 69.6069L97.2427 52.8601L97.172 52.7894L97.1013 52.7187L80.3544 69.4654L80.4251 69.5361ZM97.172 52.7894L97.2427 52.8601C98.0299 52.073 98.4298 51.0278 98.4298 49.9997H98.3298H98.2298C98.2298 50.9768 97.8496 51.9705 97.1013 52.7187L97.172 52.7894ZM98.3298 49.9997L98.4298 50.0001C98.4341 48.9715 98.0297 47.922 97.2426 47.1391L97.172 47.21L97.1015 47.2809C97.8497 48.025 98.2339 49.0226 98.2298 49.9993L98.3298 49.9997ZM97.172 47.21V47.11H97.1678V47.21V47.31H97.172V47.21ZM94.3781 49.9997L94.3074 49.929L77.5605 66.6757L77.6312 66.7464L77.7019 66.8171L94.4488 50.0704L94.3781 49.9997ZM77.6312 66.7464L77.7019 66.6757L60.955 49.929L60.8843 49.9997L60.8136 50.0704L77.5605 66.8171L77.6312 66.7464ZM60.8843 49.9997L60.955 50.0704L77.7019 33.3237L77.6312 33.2529L77.5605 33.1822L60.8136 49.929L60.8843 49.9997ZM77.6312 33.2529L77.5605 33.3237L94.3074 50.0704L94.3781 49.9997L94.4488 49.929L77.7019 33.1822L77.6312 33.2529ZM47.2088 41.9075L47.1379 41.978C47.921 42.7654 48.9706 43.1653 49.9986 43.1653V43.0653V42.9653C49.0213 42.9653 48.0236 42.5849 47.2797 41.837L47.2088 41.9075ZM49.9986 43.0653L49.9981 43.1653C51.0267 43.1696 52.0762 42.7652 52.8592 41.978L52.7883 41.9075L52.7174 41.8369C51.9733 42.5851 50.9756 42.9693 49.999 42.9653L49.9986 43.0653ZM52.7883 41.9075L52.859 41.9782L69.6059 25.2314L69.5352 25.1607L69.4645 25.09L52.7176 41.8368L52.7883 41.9075ZM69.5352 25.1607L69.6059 25.2314C70.3931 24.4443 70.793 23.3992 70.793 22.371H70.693H70.593C70.593 23.3481 70.2128 24.3418 69.4645 25.09L69.5352 25.1607ZM70.693 22.371L70.793 22.3714C70.7973 21.3428 70.3929 20.2934 69.6057 19.5104L69.5352 19.5813L69.4647 19.6522C70.2129 20.3963 70.5971 21.394 70.593 22.3706L70.693 22.371ZM69.5352 19.5813L69.6059 19.5106L52.859 2.76383L52.7883 2.83454L52.7176 2.90525L69.4645 19.652L69.5352 19.5813ZM52.7883 2.83454L52.859 2.76383C52.0719 1.97672 51.0267 1.57675 49.9986 1.57675V1.67675V1.77675C50.9756 1.77675 51.9693 2.15701 52.7176 2.90525L52.7883 2.83454ZM49.9986 1.67675L49.999 1.57675C48.9704 1.57245 47.9209 1.97684 47.1379 2.76402L47.2088 2.83454L47.2797 2.90506C48.0239 2.15693 49.0215 1.77266 49.9981 1.77675L49.9986 1.67675ZM47.2088 2.83454L47.1381 2.76383L30.3912 19.5106L30.4619 19.5813L30.5326 19.652L47.2795 2.90525L47.2088 2.83454ZM30.4619 19.5813L30.3912 19.5106C29.6041 20.2977 29.2041 21.3428 29.2041 22.371H29.3041H29.4041C29.4041 21.3939 29.7843 20.4002 30.5326 19.652L30.4619 19.5813ZM29.3041 22.371L29.2041 22.3706C29.1998 23.3992 29.6042 24.4487 30.3914 25.2316L30.4619 25.1607L30.5324 25.0898C29.7843 24.3457 29.4 23.348 29.4041 22.3714L29.3041 22.371ZM30.4619 25.1607L30.3912 25.2314L47.1381 41.9782L47.2088 41.9075L47.2795 41.8368L30.5326 25.09L30.4619 25.1607ZM33.252 22.3675L33.3227 22.4382L50.0696 5.69144L49.9989 5.62073L49.9282 5.55001L33.1813 22.2967L33.252 22.3675ZM49.9989 5.62073L49.9282 5.69144L66.6751 22.4382L66.7458 22.3675L66.8165 22.2967L50.0696 5.55001L49.9989 5.62073ZM66.7458 22.3675L66.6751 22.2967L49.9282 39.0435L49.9989 39.1142L50.0696 39.1849L66.8165 22.4382L66.7458 22.3675ZM49.9989 39.1142L50.0696 39.0435L33.3227 22.2967L33.252 22.3675L33.1813 22.4382L49.9282 39.1849L49.9989 39.1142ZM52.7879 58.0925L52.8586 58.0218C52.0715 57.2347 51.0263 56.8347 49.9981 56.8347V56.9347V57.0347C50.9752 57.0347 51.9689 57.415 52.7172 58.1633L52.7879 58.0925ZM49.9981 56.9347L49.9985 56.8347C48.97 56.8304 47.9205 57.2348 47.1375 58.022L47.2084 58.0925L47.2793 58.1631C48.0234 57.4149 49.0211 57.0307 49.9977 57.0347L49.9981 56.9347ZM47.2084 58.0925L47.1377 58.0218L30.3907 74.7686L30.4615 74.8393L30.5322 74.91L47.2791 58.1633L47.2084 58.0925ZM30.4615 74.8393L30.3907 74.7686C29.6036 75.5557 29.2037 76.6008 29.2037 77.629H29.3037H29.4037C29.4037 76.6519 29.7839 75.6582 30.5322 74.91L30.4615 74.8393ZM29.3037 77.629L29.2037 77.6286C29.1993 78.6572 29.6037 79.7067 30.3909 80.4896L30.4615 80.4187L30.532 80.3478C29.7838 79.6037 29.3996 78.606 29.4037 77.6294L29.3037 77.629ZM30.4615 80.4187L30.3907 80.4894L47.1377 97.2362L47.2084 97.1655L47.2791 97.0948L30.5322 80.348L30.4615 80.4187ZM47.2084 97.1655L47.1375 97.236C47.9206 98.0234 48.9701 98.4233 49.9981 98.4233V98.3233V98.2233C49.0209 98.2233 48.0232 97.8429 47.2793 97.095L47.2084 97.1655ZM49.9981 98.3233L49.9977 98.4233C51.0263 98.4276 52.0758 98.0232 52.8588 97.236L52.7879 97.1655L52.717 97.0949C51.9728 97.8431 50.9752 98.2274 49.9985 98.2233L49.9981 98.3233ZM52.7879 97.1655L52.8586 97.2362L69.6055 80.4894L69.5348 80.4187L69.4641 80.348L52.7172 97.0948L52.7879 97.1655ZM69.5348 80.4187L69.6055 80.4894C70.3926 79.7023 70.7926 78.6572 70.7926 77.629H70.6926H70.5926C70.5926 78.6061 70.2123 79.5998 69.4641 80.348L69.5348 80.4187ZM70.6926 77.629L70.7926 77.6294C70.7969 76.6008 70.3925 75.5514 69.6053 74.7684L69.5348 74.8393L69.4643 74.9102C70.2124 75.6543 70.5967 76.652 70.5926 77.6286L70.6926 77.629ZM69.5348 74.8393L69.6055 74.7686L52.8586 58.0218L52.7879 58.0925L52.7172 58.1633L69.4641 74.91L69.5348 74.8393ZM66.7447 77.6325L66.674 77.5618L49.9271 94.3086L49.9978 94.3793L50.0685 94.45L66.8154 77.7033L66.7447 77.6325ZM49.9978 94.3793L50.0685 94.3086L33.3216 77.5618L33.2509 77.6325L33.1802 77.7033L49.9271 94.45L49.9978 94.3793ZM33.2509 77.6325L33.3216 77.7033L50.0685 60.9565L49.9978 60.8858L49.9271 60.8151L33.1802 77.5618L33.2509 77.6325ZM49.9978 60.8858L49.9271 60.9565L66.674 77.7033L66.7447 77.6325L66.8154 77.5618L50.0685 60.8151L49.9978 60.8858ZM43.0591 50.0005L43.1591 50.001C43.1634 48.9724 42.759 47.9229 41.9718 47.1399L41.9013 47.2108L41.8308 47.2817C42.5789 48.0259 42.9632 49.0235 42.9591 50.0001L43.0591 50.0005ZM41.9013 47.2108L41.972 47.1401L25.2251 30.3934L25.1544 30.4641L25.0837 30.5348L41.8306 47.2815L41.9013 47.2108ZM25.1544 30.4641L25.2251 30.3934C24.438 29.6063 23.3928 29.2063 22.3646 29.2063V29.3063V29.4063C23.3417 29.4063 24.3354 29.7865 25.0837 30.5348L25.1544 30.4641ZM22.3646 29.3063L22.3651 29.2063C21.3365 29.202 20.287 29.6064 19.504 30.3936L19.5749 30.4641L19.6458 30.5346C20.3899 29.7865 21.3876 29.4022 22.3642 29.4063L22.3646 29.3063ZM19.5749 30.4641L19.5042 30.3934L2.75727 47.1401L2.82798 47.2108L2.89869 47.2815L19.6456 30.5348L19.5749 30.4641ZM2.82798 47.2108L2.75747 47.1399C1.97005 47.923 1.57018 48.9725 1.57018 50.0005H1.67018H1.77018C1.77018 49.0233 2.15054 48.0256 2.8985 47.2817L2.82798 47.2108ZM1.67018 50.0005L1.57018 50.0001C1.56587 51.0287 1.97027 52.0782 2.75746 52.8612L2.82798 52.7903L2.8985 52.7194C2.15036 51.9752 1.76609 50.9776 1.77018 50.001L1.67018 50.0005ZM2.82798 52.7903L2.75727 52.861L19.5042 69.6077L19.5749 69.537L19.6456 69.4663L2.89869 52.7196L2.82798 52.7903ZM19.5749 69.537L19.5042 69.6077C20.2913 70.3949 21.3365 70.7948 22.3688 70.7948V70.6948V70.5948C21.3875 70.5948 20.3938 70.2145 19.6456 69.4663L19.5749 69.537ZM22.3688 70.6948L22.3684 70.7948C23.397 70.7991 24.4465 70.3947 25.2295 69.6075L25.1586 69.537L25.0877 69.4665C24.3435 70.2146 23.3459 70.5989 22.3693 70.5948L22.3688 70.6948ZM25.1586 69.537L25.2293 69.6077L41.9762 52.861L41.9055 52.7903L41.8348 52.7196L25.0879 69.4663L25.1586 69.537ZM41.9055 52.7903L41.9762 52.861C42.7633 52.0739 43.1633 51.0287 43.1633 50.0005H43.0633H42.9633C42.9633 50.9776 42.5831 51.9713 41.8348 52.7196L41.9055 52.7903ZM43.0633 50.0005V49.9005H43.0591V50.0005V50.1005H43.0633V50.0005ZM39.1116 50.0005L39.0408 49.9298L22.2939 66.6766L22.3646 66.7473L22.4354 66.818L39.1823 50.0713L39.1116 50.0005ZM22.3646 66.7473L22.4354 66.6766L5.68845 49.9298L5.61774 50.0005L5.54703 50.0713L22.2939 66.818L22.3646 66.7473ZM5.61774 50.0005L5.68845 50.0713L22.4354 33.3245L22.3646 33.2538L22.2939 33.1831L5.54703 49.9298L5.61774 50.0005ZM22.3646 33.2538L22.2939 33.3245L39.0408 50.0713L39.1116 50.0005L39.1823 49.9298L22.4354 33.1831L22.3646 33.2538ZM50 56.2584L50 56.3584C51.1455 56.3589 52.3098 56.8042 53.1882 57.6826L53.2589 57.6119L53.3296 57.5411C52.4124 56.6239 51.1966 56.1589 50 56.1584L50 56.2584ZM53.2589 57.6119L53.1882 57.6826L69.9334 74.4277L70.0041 74.357L70.0748 74.2863L53.3297 57.5412L53.2589 57.6119ZM70.0041 74.357L69.9336 74.4279C70.8126 75.3023 71.2662 76.4752 71.2621 77.6289L71.3621 77.6292L71.4621 77.6296C71.4664 76.424 70.9927 75.1993 70.0746 74.2861L70.0041 74.357ZM71.3621 77.6292L71.2621 77.6271L71.2574 77.848L71.3574 77.8501L71.4574 77.8522L71.4621 77.6313L71.3621 77.6292ZM71.3574 77.8501L71.2575 77.8452C71.2051 78.9261 70.7595 80.0046 69.9353 80.8288L70.006 80.8995L70.0767 80.9702C70.9374 80.1096 71.4025 78.9835 71.4573 77.8549L71.3574 77.8501ZM70.006 80.8995L69.9353 80.8288L53.1882 97.5759L53.2589 97.6466L53.3297 97.7173L70.0767 80.9702L70.006 80.8995ZM53.2589 97.6466L53.1881 97.576C52.3143 98.4536 51.1455 98.9031 49.9985 98.8991L49.9981 98.9991L49.9978 99.0991C51.1966 99.1033 52.4171 98.6338 53.3298 97.7171L53.2589 97.6466ZM49.9981 98.9991V98.8991H49.9963V98.9991V99.0991H49.9981V98.9991ZM49.9963 98.9991L49.9252 98.9287L49.9243 98.9296L49.9953 99L50.0664 99.0704L50.0673 99.0694L49.9963 98.9991ZM49.9953 99L49.9954 98.9C48.8518 98.8993 47.6831 98.4548 46.8082 97.576L46.7373 97.6466L46.6665 97.7171C47.5806 98.6353 48.801 99.0993 49.9953 99.1L49.9953 99ZM46.7373 97.6466L46.808 97.5759L30.061 80.8288L29.9903 80.8995L29.9196 80.9702L46.6666 97.7173L46.7373 97.6466ZM29.9903 80.8995L30.0608 80.8287C29.1822 79.9539 28.7294 78.7806 28.7342 77.6268L28.6342 77.6264L28.5342 77.626C28.5292 78.8316 29.0021 80.0568 29.9197 80.9704L29.9903 80.8995ZM28.6342 77.6264L28.7342 77.6264C28.7349 76.4753 29.1825 75.3082 30.061 74.4296L29.9903 74.3589L29.9196 74.2882C29.0022 75.2056 28.5349 76.4241 28.5342 77.6263L28.6342 77.6264ZM29.9903 74.3589L30.061 74.4296L46.8062 57.6835L46.7355 57.6128L46.6647 57.5421L29.9196 74.2882L29.9903 74.3589ZM46.7355 57.6128L46.8064 57.6833C47.6804 56.8046 48.8501 56.3543 49.9978 56.3584L49.9981 56.2584L49.9985 56.1584C48.799 56.1542 47.5774 56.6245 46.6646 57.5423L46.7355 57.6128ZM49.9981 56.2584V56.3584H50V56.2584V56.1584H49.9981V56.2584ZM30.4615 74.8393L30.3888 74.7705L30.2494 74.9178L30.3221 74.9865L30.3947 75.0553L30.5341 74.908L30.4615 74.8393ZM30.3221 74.9865L30.2478 74.9195C29.5554 75.6867 29.2037 76.6651 29.2037 77.629H29.3037H29.4037C29.4037 76.7131 29.7381 75.7828 30.3963 75.0535L30.3221 74.9865ZM69.5348 80.4187L69.6055 80.4894C70.3435 79.7515 70.7413 78.7867 70.7881 77.8219L70.6882 77.817L70.5884 77.8122C70.5439 78.7293 70.1656 79.6465 69.4641 80.348L69.5348 80.4187ZM70.6882 77.817L70.7882 77.8194L70.7926 77.6313L70.6926 77.629L70.5926 77.6267L70.5883 77.8147L70.6882 77.817ZM52.7879 58.0925L52.8586 58.0218C52.1206 57.2839 51.1557 56.8858 50.1908 56.839L50.186 56.9389L50.1811 57.0388C51.0982 57.0833 52.0156 57.4618 52.7172 58.1633L52.7879 58.0925ZM50.186 56.9389L50.1882 56.8389L50.0003 56.8348L49.9981 56.9347L49.9959 57.0347L50.1838 57.0389L50.186 56.9389ZM34.2025 77.632L34.1318 77.7028L49.9265 93.4975L49.9972 93.4268L50.0679 93.3561L34.2732 77.5613L34.2025 77.632ZM49.9972 93.4268L50.0679 93.4975L65.8626 77.7028L65.7919 77.632L65.7212 77.5613L49.9265 93.3561L49.9972 93.4268ZM65.7919 77.632L65.8626 77.5613L50.0679 61.7666L49.9972 61.8373L49.9265 61.908L65.7212 77.7028L65.7919 77.632ZM49.9972 61.8373L49.9265 61.7666L34.1318 77.5613L34.2025 77.632L34.2732 77.7028L50.0679 61.908L49.9972 61.8373ZM22.3668 28.6302L22.3667 28.7302C23.5122 28.7307 24.6766 29.1759 25.555 30.0543L25.6257 29.9836L25.6964 29.9129C24.7792 28.9957 23.5633 28.5307 22.3668 28.5302L22.3668 28.6302ZM25.6257 29.9836L25.555 30.0543L42.3011 46.7995L42.3718 46.7287L42.4425 46.658L25.6964 29.9129L25.6257 29.9836ZM42.3718 46.7287L42.2994 46.7977L42.462 46.9685L42.5344 46.8996L42.6069 46.8306L42.4443 46.6598L42.3718 46.7287ZM42.5344 46.8996L42.4604 46.9668C43.0767 47.6462 43.4547 48.4808 43.5813 49.3388L43.6803 49.3242L43.7792 49.3096C43.647 48.4136 43.2523 47.542 42.6085 46.8324L42.5344 46.8996ZM43.6803 49.3242V49.4242H43.7335V49.3242V49.2242H43.6803V49.3242ZM43.7335 49.3242H43.6335V50.0009H43.7335H43.8335V49.3242H43.7335ZM43.7335 50.0009L43.6335 50.0009C43.6334 51.1528 43.1849 52.3214 42.3058 53.2005L42.3765 53.2713L42.4472 53.342C43.3652 52.424 43.8334 51.2039 43.8335 50.001L43.7335 50.0009ZM42.3765 53.2713L42.3058 53.2005L25.5597 69.9466L25.6304 70.0174L25.7011 70.0881L42.4472 53.342L42.3765 53.2713ZM25.6304 70.0174L25.5595 69.9468C24.6856 70.825 23.5164 71.2749 22.369 71.2708L22.3687 71.3708L22.3683 71.4708C23.5675 71.4751 24.7885 71.0051 25.7013 70.0879L25.6304 70.0174ZM22.3687 71.3708V71.2708H22.3668V71.3708V71.4708H22.3687V71.3708ZM22.3668 71.3708L22.2957 71.3004L22.2948 71.3014L22.3659 71.3717L22.4369 71.4421L22.4378 71.4411L22.3668 71.3708ZM22.3659 71.3717L22.3659 71.2717C21.2169 71.271 20.0523 70.825 19.1739 69.9466L19.1032 70.0174L19.0325 70.0881C19.9497 71.0053 21.1658 71.4709 22.3658 71.4717L22.3659 71.3717ZM19.1032 70.0174L19.1739 69.9466L2.42778 53.2005L2.35707 53.2713L2.28636 53.342L19.0325 70.0881L19.1032 70.0174ZM2.35707 53.2713L2.42762 53.2004C1.54889 52.3256 1.09532 51.1523 1.10004 49.9985L1.00004 49.9981L0.900038 49.9977C0.895111 51.2034 1.36883 52.4286 2.28652 53.3421L2.35707 53.2713ZM1.00004 49.9981L1.10004 49.9982C1.10065 48.8479 1.54819 47.6752 2.42852 46.7996L2.35801 46.7287L2.28749 46.6578C1.36773 47.5726 0.900678 48.797 0.900037 49.9981L1.00004 49.9981ZM2.35801 46.7287L2.42872 46.7995L19.1739 30.0543L19.1032 29.9836L19.0325 29.9129L2.2873 46.658L2.35801 46.7287ZM19.1032 29.9836L19.1741 30.0541C20.048 29.176 21.2172 28.726 22.3646 28.7302L22.3649 28.6302L22.3653 28.5302C21.1661 28.5258 19.9451 28.9959 19.0323 29.913L19.1032 29.9836ZM22.3649 28.6302V28.7302H22.3668V28.6302V28.5302H22.3649V28.6302ZM77.6332 28.6292L77.6332 28.7292C78.7787 28.7297 79.9431 29.175 80.8215 30.0534L80.8922 29.9826L80.9629 29.9119C80.0456 28.9947 78.8298 28.5298 77.6333 28.5292L77.6332 28.6292ZM80.8922 29.9826L80.8215 30.0534L97.3722 46.6041L97.4429 46.5334L97.5136 46.4627L80.9629 29.9119L80.8922 29.9826ZM97.4429 46.5334V46.6334H97.4467V46.5334V46.4334H97.4429V46.5334ZM97.4467 46.5334L97.3761 46.6042L97.5715 46.7987L97.642 46.7278L97.7125 46.6569L97.5172 46.4625L97.4467 46.5334ZM97.642 46.7278L97.5715 46.7987C98.4506 47.6731 98.9041 48.8459 98.9 49.9996L99 50L99.1 50.0004C99.1043 48.7947 98.6306 47.5701 97.7125 46.6569L97.642 46.7278ZM99 50L98.9 49.9975L98.8944 50.2183L98.9944 50.2209L99.0943 50.2234L99.0999 50.0025L99 50ZM98.9944 50.2209L98.8945 50.216C98.842 51.2968 98.3964 52.3754 97.5722 53.1996L97.6429 53.2703L97.7136 53.341C98.5743 52.4804 99.0395 51.3543 99.0942 50.2257L98.9944 50.2209ZM97.6429 53.2703L97.5722 53.1996L80.8261 69.9457L80.8968 70.0164L80.9675 70.0871L97.7136 53.341L97.6429 53.2703ZM80.8968 70.0164L80.826 69.9459C79.952 70.8241 78.7829 71.274 77.6355 71.2698L77.6351 71.3698L77.6347 71.4698C78.834 71.4742 80.0549 71.0042 80.9677 70.087L80.8968 70.0164ZM77.6351 71.3698V71.2698H77.6332V71.3698V71.4698H77.6351V71.3698ZM77.6332 71.3698L77.5622 71.2995L77.5612 71.3004L77.6323 71.3708L77.7033 71.4411L77.7043 71.4402L77.6332 71.3698ZM77.6323 71.3708L77.6324 71.2708C76.4834 71.27 75.3187 70.8241 74.4403 69.9457L74.3696 70.0164L74.2989 70.0871C75.2162 71.0044 76.4322 71.47 77.6322 71.4708L77.6323 71.3708ZM74.3696 70.0164L74.4403 69.9457L57.6942 53.1996L57.6235 53.2703L57.5528 53.341L74.2989 70.0871L74.3696 70.0164ZM57.6235 53.2703L57.6941 53.1994C56.8154 52.3247 56.3617 51.1513 56.3665 49.9976L56.2665 49.9972L56.1665 49.9968C56.1615 51.2025 56.6353 52.4276 57.553 53.3412L57.6235 53.2703ZM56.2665 49.9972L56.3665 49.9972C56.3671 48.919 56.7606 47.8211 57.535 46.9667L57.4609 46.8996L57.3868 46.8324C56.5778 47.725 56.1671 48.8712 56.1665 49.9971L56.2665 49.9972ZM57.4609 46.8996L57.5333 46.9685L57.6969 46.7968L57.6244 46.7278L57.552 46.6588L57.3885 46.8306L57.4609 46.8996ZM57.6244 46.7278L57.6952 46.7985L74.4403 30.0534L74.3696 29.9826L74.2989 29.9119L57.5537 46.6571L57.6244 46.7278ZM74.3696 29.9826L74.4405 30.0532C75.3144 29.1751 76.4836 28.7251 77.631 28.7292L77.6314 28.6292L77.6317 28.5292C76.4326 28.5249 75.2115 28.995 74.2987 29.9121L74.3696 29.9826ZM77.6314 28.6292V28.7292H77.6332V28.6292V28.5292H77.6314V28.6292ZM2.82798 47.2108L2.75547 47.142L2.61634 47.2885L2.68885 47.3573L2.76137 47.4262L2.9005 47.2797L2.82798 47.2108ZM2.68885 47.3573L2.61476 47.2902C1.92205 48.0545 1.57018 49.0367 1.57018 50.0005H1.67018H1.77018C1.77018 49.0845 2.10484 48.1506 2.76295 47.4245L2.68885 47.3573ZM43.0591 50.0005L43.1591 50.001C43.1632 49.0367 42.8079 48.0543 42.1151 47.2902L42.041 47.3573L41.9669 47.4245C42.6254 48.1508 42.963 49.0847 42.9591 50.0001L43.0591 50.0005ZM42.041 47.3573L42.1134 47.2883L41.9737 47.1418L41.9013 47.2108L41.8289 47.2798L41.9686 47.4263L42.041 47.3573ZM25.1544 30.4641L25.2251 30.3934C24.4872 29.6554 23.5224 29.2576 22.5576 29.2108L22.5528 29.3106L22.5479 29.4105C23.465 29.455 24.3822 29.8333 25.0837 30.5348L25.1544 30.4641ZM22.5528 29.3106L22.5551 29.2107L22.367 29.2063L22.3646 29.3063L22.3623 29.4063L22.5504 29.4106L22.5528 29.3106ZM97.172 52.7894L97.2427 52.8601C97.9806 52.1222 98.3782 51.1574 98.4251 50.1927L98.3252 50.1878L98.2253 50.183C98.1808 51.1 97.8027 52.0173 97.1013 52.7187L97.172 52.7894ZM98.3252 50.1878L98.4252 50.1903L98.4298 50.0021L98.3298 49.9997L98.2299 49.9972L98.2252 50.1854L98.3252 50.1878ZM80.4209 30.4632L80.4916 30.3925C79.7537 29.6546 78.7889 29.2566 77.8241 29.2098L77.8192 29.3097L77.8144 29.4096C78.7315 29.4541 79.6487 29.8324 80.3502 30.5339L80.4209 30.4632ZM77.8192 29.3097L77.8215 29.2097L77.6334 29.2054L77.6312 29.3054L77.6289 29.4054L77.8169 29.4097L77.8192 29.3097ZM6.5693 50L6.49859 50.0707L22.2933 65.8654L22.364 65.7947L22.4347 65.724L6.64001 49.9293L6.5693 50ZM22.364 65.7947L22.4347 65.8654L38.2294 50.0707L38.1587 50L38.088 49.9293L22.2933 65.724L22.364 65.7947ZM38.1587 50L38.2294 49.9293L22.4347 34.1346L22.364 34.2053L22.2933 34.276L38.088 50.0707L38.1587 50ZM22.364 34.2053L22.2933 34.1346L6.49859 49.9293L6.5693 50L6.64001 50.0707L22.4347 34.276L22.364 34.2053ZM61.8357 49.9991L61.765 50.0698L77.5597 65.8645L77.6304 65.7938L77.7011 65.7231L61.9064 49.9283L61.8357 49.9991ZM77.6304 65.7938L77.7011 65.8645L93.4958 50.0698L93.4251 49.9991L93.3544 49.9283L77.5597 65.7231L77.6304 65.7938ZM93.4251 49.9991L93.4958 49.9283L77.7011 34.1336L77.6304 34.2043L77.5597 34.275L93.3544 50.0698L93.4251 49.9991ZM77.6304 34.2043L77.5597 34.1336L61.765 49.9283L61.8357 49.9991L61.9064 50.0698L77.7011 34.275L77.6304 34.2043ZM50 1.00094L50 1.10094C51.1457 1.10131 52.3107 1.54571 53.1892 2.42414L53.2599 2.35343L53.3306 2.28272C52.4131 1.36534 51.1967 0.901327 50 0.900944L50 1.00094ZM53.2599 2.35343L53.1892 2.42414L69.9362 19.1712L70.0069 19.1005L70.0776 19.0298L53.3306 2.28272L53.2599 2.35343ZM70.0069 19.1005L69.9364 19.1713C70.8147 20.0455 71.267 21.2173 71.263 22.3704L71.363 22.3708L71.463 22.3711C71.4672 21.1661 70.9948 19.9425 70.0775 19.0296L70.0069 19.1005ZM71.363 22.3708L71.263 22.3682L71.2574 22.5891L71.3574 22.5916L71.4574 22.5942L71.463 22.3733L71.363 22.3708ZM71.3574 22.5916L71.2575 22.5868C71.2052 23.6677 70.7603 24.7461 69.9362 25.5704L70.0069 25.6411L70.0776 25.7118C70.9382 24.851 71.4026 23.725 71.4573 22.5965L71.3574 22.5916ZM70.0069 25.6411L69.9362 25.5704L53.1892 42.3174L53.2599 42.3881L53.3306 42.4588L70.0776 25.7118L70.0069 25.6411ZM53.2599 42.3881L53.189 42.3176C52.315 43.1956 51.1459 43.6448 49.9985 43.6406L49.9981 43.7406L49.9978 43.8406C51.1969 43.845 52.4179 43.3758 53.3308 42.4587L53.2599 42.3881ZM49.9981 43.7406V43.6406H49.9963V43.7406V43.8406H49.9981V43.7406ZM49.9963 43.7406L49.9252 43.6703L49.9243 43.6712L49.9953 43.7416L50.0664 43.8119L50.0673 43.811L49.9963 43.7406ZM49.9953 43.7416L49.9954 43.6416C48.8517 43.6408 47.6831 43.1966 46.8082 42.3176L46.7373 42.3881L46.6665 42.4587C47.5805 43.3771 48.8009 43.8407 49.9953 43.8416L49.9953 43.7416ZM46.7373 42.3881L46.808 42.3174L30.061 25.5704L29.9903 25.6411L29.9196 25.7118L46.6666 42.4588L46.7373 42.3881ZM29.9903 25.6411L30.0609 25.5702C29.1825 24.6955 28.7294 23.522 28.7342 22.3684L28.6342 22.368L28.5342 22.3675C28.5291 23.5731 29.0024 24.7984 29.9197 25.712L29.9903 25.6411ZM28.6342 22.368L28.7342 22.368C28.735 21.217 29.1826 20.0496 30.061 19.1712L29.9903 19.1005L29.9196 19.0298C29.0023 19.9471 28.535 21.1659 28.5342 22.3679L28.6342 22.368ZM29.9903 19.1005L30.061 19.1712L46.808 2.42414L46.7373 2.35343L46.6666 2.28272L29.9196 19.0298L29.9903 19.1005ZM46.7373 2.35343L46.8082 2.42398C47.6819 1.54634 48.8508 1.09697 49.9978 1.10094L49.9981 1.00094L49.9985 0.900944C48.7997 0.896791 47.5791 1.36617 46.6665 2.28288L46.7373 2.35343ZM49.9981 1.00094V1.10094H50V1.00094V0.900944H49.9981V1.00094ZM50 1.00094L50.0711 1.07131L50.072 1.07036L50.0009 1L49.9299 0.929637L49.9289 0.930581L50 1.00094ZM30.4619 19.5813L30.3895 19.5123L30.2497 19.6591L30.3221 19.7281L30.3945 19.7971L30.5343 19.6502L30.4619 19.5813ZM30.3221 19.7281L30.2478 19.6611C29.5555 20.4282 29.2041 21.4072 29.2041 22.371L29.3041 22.371L29.4041 22.371C29.4041 21.4551 29.7381 20.5243 30.3963 19.7951L30.3221 19.7281ZM34.2035 22.367L34.1327 22.4377L49.9274 38.2324L49.9981 38.1617L50.0688 38.091L34.2742 22.2963L34.2035 22.367ZM49.9981 38.1617L50.0688 38.2324L65.8635 22.4377L65.7928 22.367L65.7221 22.2963L49.9274 38.091L49.9981 38.1617ZM65.7928 22.367L65.8635 22.2963L50.0688 6.50157L49.9981 6.57228L49.9274 6.64299L65.7221 22.4377L65.7928 22.367ZM49.9981 6.57228L49.9274 6.50157L34.1327 22.2963L34.2035 22.367L34.2742 22.4377L50.0688 6.64299L49.9981 6.57228Z" fill="black"/>
</svg>
