<svg width="100" height="101" viewBox="0 0 100 101" fill="none" xmlns="http://www.w3.org/2000/svg">
<path d="M38.8911 0C17.4482 0 0 17.6172 0 39.2797C0 60.9369 17.4429 78.5595 38.8911 78.5595C45.7557 78.5595 52.209 76.7498 57.8126 73.5831L82.1822 98.1962C83.9634 99.99 86.3749 101 88.8905 101C91.4062 101 93.8177 99.99 95.5937 98.1962L97.224 96.5497C99 94.7559 100 92.315 100 89.7795C100 87.2388 99 84.8032 97.224 83.0041L72.849 58.391C75.9845 52.7308 77.7762 46.2131 77.7762 39.2804C77.7762 17.6178 60.334 0 38.8911 0ZM38.8911 5.61293C57.3339 5.61293 72.2248 20.6526 72.2248 39.2797C72.2248 57.9069 57.3339 72.9465 38.8911 72.9465C20.4482 72.9465 5.55739 57.9069 5.55739 39.2797C5.55739 20.6526 20.4482 5.61293 38.8911 5.61293ZM69.7247 63.167L76.6311 70.1371L69.4435 77.3965L62.5424 70.4211C65.2351 68.3274 67.6518 65.8866 69.7247 63.167ZM80.5582 74.1035L93.2979 86.9705C94.0323 87.7175 94.4438 88.7223 94.4438 89.7795C94.4438 90.8316 94.0323 91.8416 93.2927 92.5833L91.6676 94.2299C90.9281 94.9716 89.9332 95.3872 88.8916 95.3872C87.8447 95.3872 86.85 94.9716 86.1104 94.2299L73.3706 81.3628L80.5582 74.1035Z" fill="black"/>
<path d="M54.2469 26.8125L36.7129 44.2968C35.9764 45.0312 34.9735 45.4427 33.9289 45.4427C32.8844 45.4427 31.8815 45.0312 31.145 44.2968L24.757 37.927C23.6654 36.8384 21.9052 36.8384 20.8187 37.927C19.7271 39.0103 19.7271 40.7656 20.8187 41.8541L27.2015 48.224C28.9878 50 31.4061 51 33.9289 51C36.4517 51 38.8701 50 40.6512 48.224L58.1852 30.7396C59.2716 29.6563 59.2716 27.9011 58.1852 26.8125C57.0935 25.7292 55.3333 25.7292 54.2469 26.8125Z" fill="black"/>
</svg>
