<svg width="100" height="100" viewBox="0 0 100 100" fill="none" xmlns="http://www.w3.org/2000/svg">
<path d="M49.9972 0C45.8863 0 42.4974 3.38894 42.4974 7.49977V10.0028H22.4964C15.6153 10.0028 10 15.6182 10 22.4992V87.4988C10 94.3799 15.6155 100 22.4964 100H77.4979C84.379 100 89.9943 94.3799 89.9943 87.4988V22.4992C89.9943 15.6181 84.3789 10.0028 77.4979 10.0028H57.4969V7.49977C57.4969 3.38894 54.108 0 49.9972 0ZM49.9972 5.00145C51.4081 5.00145 52.4955 6.08891 52.4955 7.49977V10.0028H47.4987V7.49977C47.4987 6.08885 48.5863 5.00145 49.9972 5.00145ZM22.4964 14.9995H77.4979C81.6931 14.9995 84.9977 18.3041 84.9977 22.4993V87.4989C84.9977 91.6988 81.6931 94.9987 77.4979 94.9987H22.4964C18.3012 94.9987 14.9966 91.6988 14.9966 87.4989V22.4993C14.9966 18.3041 18.3012 14.9995 22.4964 14.9995Z" fill="black"/>
<path d="M72.4963 89.9972C76.6071 89.9972 79.9961 86.613 79.9961 82.4975V27.5007C79.9961 23.3899 76.6071 20.001 72.4963 20.001H32.4991C30.2352 20.001 28.0649 20.9009 26.4666 22.4993L22.4964 26.4648C20.898 28.0678 19.998 30.2381 19.998 32.5021V82.4973C19.998 86.6128 23.387 89.9971 27.4978 89.9971L72.4963 89.9972ZM72.4963 84.9958H27.4977C26.0868 85.0005 24.9994 83.9083 24.9994 82.4975V32.4974C24.9994 31.5599 25.3697 30.66 26.0353 29.9991L29.9961 26.0336C30.6617 25.3726 31.557 25.0023 32.4991 25.0023H72.4963C73.9072 25.0023 74.9946 26.0898 74.9946 27.5006V82.4974C74.9946 83.9083 73.9071 85.0004 72.4963 85.0004L72.4963 84.9958Z" fill="black"/>
<path d="M32.2131 60.0175C31.6553 60.0831 31.1303 60.3362 30.7318 60.7346C29.7522 61.7096 29.7522 63.2892 30.7318 64.2689L33.9614 67.4985L30.7318 70.7327C29.7522 71.7077 29.7522 73.292 30.7318 74.267C31.7068 75.2419 33.2864 75.2419 34.2661 74.267L37.4956 71.0327L40.7299 74.267C41.7049 75.2419 43.2892 75.2419 44.2642 74.267C45.2391 73.292 45.2391 71.7077 44.2642 70.7327L41.0299 67.4985L44.2642 64.2689C45.2391 63.2892 45.2391 61.7096 44.2642 60.7346C43.2892 59.755 41.7049 59.755 40.7299 60.7346L37.4956 63.9642L34.2661 60.7346C33.727 60.1956 32.9724 59.9331 32.2131 60.0175Z" fill="black"/>
<path d="M54.9981 64.9997C53.6154 64.9997 52.4951 66.1199 52.4951 67.498C52.4951 68.1636 52.7623 68.7964 53.231 69.2652C53.6998 69.7339 54.3326 70.0011 54.9982 70.0011H67.4994H67.4947C68.1604 70.0011 68.7931 69.7339 69.2619 69.2652C69.7307 68.7964 69.9978 68.1636 69.9978 67.498C69.9978 66.8371 69.7307 66.1996 69.2619 65.7308C68.7932 65.2621 68.1604 64.9996 67.4947 64.9996L54.9981 64.9997Z" fill="black"/>
<path d="M43.2282 43.2309L37.4956 48.9635L34.2661 45.7339C33.2864 44.7543 31.7068 44.7543 30.7318 45.7339C29.7522 46.7089 29.7522 48.2885 30.7318 49.2682L35.7333 54.2696L35.7286 54.2649C36.7082 55.2446 38.2879 55.2446 39.2628 54.2649L46.7626 46.7652C47.7423 45.7902 47.7423 44.2106 46.7626 43.2309C45.7876 42.256 44.2079 42.256 43.2282 43.2309Z" fill="black"/>
<path d="M54.9981 47.5017C53.6154 47.5017 52.4951 48.6173 52.4951 50.0001C52.4951 50.661 52.7623 51.2984 53.231 51.7673C53.6998 52.236 54.3326 52.4985 54.9982 52.4985H67.4994H67.4947C68.1604 52.4985 68.7931 52.236 69.2619 51.7673C69.7307 51.2985 69.9978 50.661 69.9978 50.0001C69.9978 49.3391 69.7307 48.7017 69.2619 48.2329C68.7932 47.7642 68.1604 47.5016 67.4947 47.5016L54.9981 47.5017Z" fill="black"/>
<path d="M42.4973 29.9992C41.1146 29.9992 39.999 31.1195 39.999 32.5022C39.999 33.1631 40.2615 33.8005 40.7303 34.2694C41.199 34.7382 41.8365 35.0006 42.4974 35.0006H57.497C58.1579 35.0006 58.7953 34.7381 59.2642 34.2694C59.733 33.8006 59.9954 33.1631 59.9954 32.5022C59.9954 31.8366 59.7329 31.2038 59.2642 30.735C58.7954 30.2663 58.1579 29.9991 57.497 29.9991L42.4973 29.9992Z" fill="black"/>
</svg>
