<svg width="100" height="100" viewBox="0 0 100 100" fill="none" xmlns="http://www.w3.org/2000/svg">
<path d="M50.0004 0C30.7027 0 15 15.7027 15 35.0004C15 46.3578 20.7982 56.7221 29.9995 63.2607V65.4403C27.1027 66.4809 25.0027 69.2652 25.0027 72.4994C25.0027 75.9353 27.3699 78.8555 30.5479 79.7273C30.1963 80.5851 29.9995 81.5179 29.9995 82.4975C29.9995 85.7318 32.1041 88.5067 35.0009 89.5473V92.5003C35.0009 96.6111 38.3898 100 42.5006 100H57.5001C61.611 100 64.9999 96.6111 64.9999 92.5003V89.5473C67.8967 88.5067 70.0013 85.7364 70.0013 82.4975C70.0013 81.5178 69.8045 80.585 69.4529 79.7273C72.6309 78.8554 74.9981 75.9352 74.9981 72.4994C74.9981 69.2652 72.8981 66.4809 70.0013 65.4403V63.2607C79.1979 56.7219 84.996 46.3581 85.0008 35.0004C85.0008 15.7027 69.2982 0 50.0004 0ZM50.0004 5.00143C66.5983 5.00143 79.9994 18.4026 79.9994 35.0004C79.9994 45.2375 74.7777 54.7578 66.1531 60.274C65.4312 60.7334 65 61.5302 65 62.3833V64.9988H35.001V62.3833C35.001 61.5302 34.5698 60.7333 33.8479 60.274C25.2232 54.7569 20.0016 45.2373 20.0016 35.0004C20.0016 18.4026 33.4026 5.00143 50.0004 5.00143ZM32.5026 70.0009H67.5031C68.9327 70.0009 70.0014 71.0743 70.0014 72.4992C70.0014 73.9288 68.928 74.9975 67.5031 74.9975H32.5026C31.073 74.9975 29.9996 73.9288 29.9996 72.4992C29.9996 71.0696 31.073 70.0009 32.5026 70.0009ZM37.504 79.9989H62.5016C63.9313 79.9989 64.9999 81.0723 64.9999 82.4973C64.9999 83.9269 63.9265 84.9956 62.5016 84.9956H37.504C36.0744 85.0003 35.0011 83.9269 35.0011 82.4973C35.0011 81.0723 36.0745 79.9989 37.4994 79.9989H37.504ZM40.0024 89.997H60.0033V92.4953C60.0033 93.9062 58.9158 94.9937 57.505 94.9937H42.5055C41.0899 94.9983 40.0025 93.9109 40.0025 92.5L40.0024 89.997Z" fill="black"/>
<path d="M50 14.9995C46.0205 14.9995 42.8472 18.2291 42.6362 22.157C39.1301 20.3711 34.7428 21.5055 32.7553 24.9507C30.7631 28.3959 31.9725 32.7644 35.2724 34.9113C31.9726 37.0581 30.7679 41.422 32.7553 44.8626C34.7427 48.3078 39.1254 49.4514 42.6362 47.6655C42.8425 51.5982 46.0205 54.8231 50 54.8231C53.9796 54.8231 57.1529 51.5982 57.3638 47.6655C60.8747 49.4561 65.2573 48.3077 67.2448 44.8626C69.2322 41.422 68.0276 37.0581 64.7276 34.9113C68.0275 32.7644 69.2368 28.3959 67.2448 24.9507C65.2574 21.5055 60.87 20.3711 57.3638 22.157C57.1529 18.2291 53.9796 14.9995 50 14.9995ZM50 20.0009C51.4297 20.0009 52.4984 21.0743 52.4984 22.4993V26.2491C52.4984 27.1444 52.9765 27.9694 53.7499 28.4194C54.5233 28.8647 55.4749 28.8647 56.2482 28.4194L59.5012 26.5444C60.7386 25.8273 62.1964 26.2163 62.9089 27.4538C63.6213 28.6912 63.2323 30.1584 61.9995 30.8709L58.7465 32.7459H58.7512C57.9731 33.1911 57.495 34.0161 57.495 34.9114C57.495 35.8067 57.9731 36.6364 58.7512 37.0817L62.0042 38.9566C63.2416 39.6691 63.6261 41.1269 62.9135 42.3643C62.1964 43.6065 60.7386 43.9955 59.5059 43.283L56.2482 41.408C55.4748 40.958 54.5233 40.958 53.7499 41.408C52.9765 41.8533 52.4984 42.683 52.4984 43.5736V47.3235C52.4984 48.7531 51.425 49.8218 50 49.8218C48.5704 49.8218 47.5017 48.7484 47.5017 47.3235V43.5736C47.5017 42.683 47.0236 41.8533 46.2502 41.408C45.4768 40.958 44.5252 40.958 43.7519 41.408L40.4989 43.283C39.2615 43.9954 37.8083 43.6017 37.0912 42.3643C36.3741 41.1221 36.7631 39.669 38.0006 38.9566L41.2489 37.0817C42.027 36.6364 42.5051 35.8067 42.5051 34.9114C42.5051 34.0161 42.027 33.1912 41.2489 32.7459L37.9959 30.8709C36.7632 30.1584 36.374 28.6913 37.0912 27.4538C37.8037 26.2164 39.2568 25.8272 40.4989 26.5444L43.7519 28.4194C44.5253 28.8647 45.4768 28.8647 46.2502 28.4194C47.0236 27.9694 47.5017 27.1444 47.5017 26.2491V22.4993C47.5017 21.0743 48.5704 20.0009 50 20.0009Z" fill="black"/>
<path d="M53.7507 35.0004C53.7507 40.0018 46.251 40.0018 46.251 35.0004C46.251 29.999 53.7507 29.999 53.7507 35.0004Z" fill="black"/>
</svg>
