<svg width="100" height="100" viewBox="0 0 100 100" fill="none" xmlns="http://www.w3.org/2000/svg">
<path d="M88.4706 50C88.4706 19.1235 53.0558 1.06272 51.5508 0.310189C51.1423 0.106194 50.6919 0 50.2353 0C49.7787 0 49.3283 0.106194 48.9198 0.310189C47.4148 1.06272 12 19.1235 12 50C12 76.8375 38.9944 85.5864 47.2941 87.6451V97.0588C47.2941 97.8389 47.604 98.587 48.1556 99.1386C48.7071 99.6901 49.4552 100 50.2353 100C51.0153 100 51.7634 99.6901 52.315 99.1386C52.8666 98.587 53.1765 97.8389 53.1765 97.0588V87.6451C61.4765 85.5864 88.4706 76.8375 88.4706 50ZM53.1765 81.6134V54.1588L72.9031 34.4323C73.4388 33.8776 73.7353 33.1346 73.7286 32.3635C73.7219 31.5923 73.4125 30.8546 72.8672 30.3093C72.3219 29.764 71.5842 29.4547 70.8131 29.448C70.0419 29.4413 69.2989 29.7377 68.7442 30.2735L53.1765 45.8412V26.4706C53.1765 25.6905 52.8666 24.9424 52.315 24.3909C51.7634 23.8393 51.0153 23.5294 50.2353 23.5294C49.4552 23.5294 48.7071 23.8393 48.1556 24.3909C47.604 24.9424 47.2941 25.6905 47.2941 26.4706V63.4882L31.7266 47.9205C31.1719 47.3847 30.4289 47.0883 29.6578 47.095C28.8866 47.1017 28.1489 47.411 27.6036 47.9563C27.0583 48.5016 26.749 49.2393 26.7423 50.0105C26.7356 50.7816 27.032 51.5246 27.5678 52.0793L47.2941 71.8059V81.6132C38.8588 79.3843 17.8824 71.6709 17.8824 49.9998C17.8824 25.9017 44.0083 9.78272 50.2353 6.28431C56.4623 9.78272 82.5882 25.902 82.5882 49.9998C82.5882 71.6711 61.6118 79.3845 53.1765 81.6134Z" fill="black"/>
</svg>
