<svg width="432" height="50" fill="none" xmlns="http://www.w3.org/2000/svg"><path d="M44.2242 42.3302h-1.2L33.7536 1.67133H17.0242V48.3302h8.6706V7.67133h1.2l9.2588 40.65887H52.883V1.67133h-8.6588V42.3302ZM219.86 1.67133 207.589 48.3301h9.071l2.529-10.2588h16.659l2.541 10.2588h9.059L235.189 1.67133H219.86Zm1.388 28.23527 5.671-22.68237h1.176l5.671 22.72937-12.518-.047ZM8.8 1.67133H0V48.3302h8.8V1.67133ZM59.1881 9.67133h13.6V48.3302h8.8V9.67133h13.6v-8h-36v8ZM108.6 28.8007h19.329v-8H108.6V9.67133h21.2v-8H99.7996V48.3302H130.2v-8h-21.6V28.8007ZM188.058 9.67133h22.53v-8H179.27V48.3302h8.788v-19.4h16.647v-8h-16.647V9.67133ZM301.811 28.8007h19.33v-8h-19.33V9.67133h21.2v-8h-30V48.3302h30.4v-8h-21.6V28.8007ZM359.928 26.4478c1.743-1.7344 3.014-3.8845 3.695-6.2471.724-2.102.936-4.3465.619-6.5471-.317-2.2006-1.155-4.2937-2.443-6.10559-1.289-1.8119-2.991-3.29023-4.965-4.31232-1.975-1.02208-4.165-1.55838-6.388-1.56436h-21.388V48.3301h8.8V30.7536h11.882c1.616.1846 3.108.9564 4.193 2.1689 1.084 1.2124 1.686 2.781 1.69 4.4076v11.0236h8.823V36.589c-.182-3.827-1.795-7.446-4.518-10.1412Zm-10.753-4.4001H337.94V10.283h11.235c1.561 0 3.057.6198 4.16 1.7229 1.103 1.1032 1.723 2.5994 1.723 4.1595 0 1.5601-.62 3.0563-1.723 4.1595-1.103 1.1031-2.599 1.7228-4.16 1.7228ZM172.413 15.6372c-.002-1.9819-.431-3.9401-1.259-5.74114-1.105-2.44911-2.892-4.52821-5.147-5.98863-2.255-1.46041-4.884-2.24036-7.57-2.24666H137.06V48.3195h8.824V30.7549h11.87c1.616.1845 3.108.9564 4.193 2.1688 1.084 1.2124 1.686 2.781 1.69 4.4077v11.0235h8.823V36.5902c-.175-3.8053-1.755-7.4104-4.435-10.1177 1.742-1.7344 3.014-3.8845 3.694-6.2471.487-1.4796.722-3.0306.694-4.5882Zm-15.294 6.4117h-11.224V10.2842h11.224c1.56 0 3.056.6198 4.159 1.723 1.103 1.1031 1.723 2.5993 1.723 4.1594 0 1.5601-.62 3.0563-1.723 4.1595-1.103 1.1032-2.599 1.7228-4.159 1.7228ZM268.53 0c-4.992 0-9.78 1.98317-13.31 5.51327-3.53 3.5301-5.514 8.31793-5.514 13.31023v12.353c0 4.9923 1.984 9.7801 5.514 13.3102C258.75 48.0168 263.538 50 268.53 50c4.992 0 9.78-1.9832 13.31-5.5133 3.53-3.5301 5.513-8.3179 5.513-13.3102v-.2941h-8.235v.2941c0 2.8081-1.115 5.5013-3.101 7.487-1.986 1.9857-4.679 3.1012-7.487 3.1012s-5.501-1.1155-7.487-3.1012c-1.986-1.9857-3.101-4.6789-3.101-7.487v-12.353c0-2.8081 1.115-5.5013 3.101-7.487 1.986-1.98565 4.679-3.10121 7.487-3.10121s5.501 1.11556 7.487 3.10121c1.986 1.9857 3.101 4.6789 3.101 7.487v.2941h8.235v-.2941c0-4.9923-1.983-9.78013-5.513-13.31023C278.31 1.98317 273.522 0 268.53 0ZM382.116 13.6019c3.277 0 5.932-2.656 5.932-5.93228 0-3.27629-2.655-5.93225-5.932-5.93225-3.276 0-5.932 2.65596-5.932 5.93225 0 3.27628 2.656 5.93228 5.932 5.93228ZM431.857 1.73737h-41.069V13.6019h41.069V1.73737ZM396.72 48.2828c3.276 0 5.932-2.656 5.932-5.9323 0-3.2763-2.656-5.9322-5.932-5.9322-3.277 0-5.932 2.6559-5.932 5.9322s2.655 5.9323 5.932 5.9323ZM388.048 36.4183h-11.864v11.8645h11.864V36.4183Z" fill="#000000"/><path fill-rule="evenodd" clip-rule="evenodd" d="M381.998 30.8089h-.001c-3.21 0-5.813-2.603-5.813-5.8138 0-3.2109 2.603-5.8138 5.813-5.8138h34.891v11.6299h-34.89v-.0023Z" fill="#000000"/></svg>