<svg width="154" height="42" viewBox="0 0 154 42" fill="none" xmlns="http://www.w3.org/2000/svg">
<g clip-path="url(#clip0_1937_51259)">
<path d="M73.7085 26.7894H75.4211C75.6284 26.7581 75.84 26.7729 76.041 26.8326C76.242 26.8924 76.4276 26.9956 76.5844 27.1351C76.7376 27.2643 76.8519 27.4338 76.9145 27.6247C76.9769 27.8154 76.9851 28.02 76.9381 28.2152C76.8911 28.4104 76.7908 28.5887 76.6484 28.7299C76.5061 28.8711 76.3271 28.9697 76.132 29.0146C76.4043 29.0523 76.6519 29.193 76.8242 29.4079C76.9964 29.6228 77.0802 29.8956 77.0584 30.1704C77.0622 30.383 77.013 30.5932 76.9151 30.7819C76.8173 30.9706 76.674 31.1317 76.4982 31.2506C76.1683 31.427 75.7926 31.4987 75.4211 31.4558H73.7301L73.7085 26.7894ZM74.3332 28.7553H75.2272C75.4427 28.7553 76.1966 28.7554 76.1966 28.0208C76.1966 27.2863 75.6042 27.3187 75.2595 27.3187H74.344L74.3332 28.7553ZM74.3332 30.9157H75.4103C75.5246 30.9314 75.6409 30.9219 75.7512 30.8882C75.8614 30.8544 75.9631 30.797 76.0491 30.72C76.1352 30.643 76.2035 30.5481 76.2494 30.4421C76.2953 30.336 76.3178 30.2212 76.3151 30.1056C76.3175 29.9924 76.2956 29.8801 76.2508 29.7762C76.2061 29.6723 76.1396 29.5792 76.0558 29.5033C75.972 29.4275 75.8729 29.3707 75.7653 29.3367C75.6576 29.3027 75.5439 29.2923 75.4319 29.3063H74.3548L74.3332 30.9157Z" fill="#0B1324"/>
<path d="M78.9214 29.9327C78.9214 30.6024 79.1907 31.0994 79.8477 31.0994C79.9422 31.1082 80.0376 31.0977 80.128 31.0685C80.2184 31.0391 80.3019 30.9918 80.3735 30.9291C80.445 30.8664 80.5031 30.7899 80.5442 30.7041C80.5853 30.6181 80.6085 30.5248 80.6125 30.4296H81.2157C81.2022 30.6786 81.1032 30.9152 80.9356 31.0994C80.7977 31.2449 80.6301 31.3589 80.4442 31.4335C80.2583 31.5081 80.0585 31.5415 79.8585 31.5315C78.846 31.5315 78.3613 30.9049 78.3613 29.8787C78.3281 29.5915 78.369 29.3005 78.4803 29.0338C78.5916 28.767 78.7695 28.5336 78.9968 28.3557C79.2613 28.1905 79.5687 28.1077 79.88 28.118C81.3234 28.118 81.2911 29.4034 81.2803 29.9327H78.9214ZM80.6233 29.5007C80.6233 29.1982 80.6232 28.5501 79.8369 28.5501C79.7143 28.5464 79.5924 28.569 79.4792 28.6164C79.366 28.6637 79.2643 28.7348 79.1807 28.8248C79.0971 28.9148 79.0335 29.0216 78.9944 29.1381C78.9553 29.2547 78.9415 29.3783 78.9538 29.5007H80.6233Z" fill="#0B1324"/>
<path d="M82.7456 26.8008H83.3596V28.6803C83.4751 28.5031 83.6361 28.3605 83.8256 28.2673C84.0152 28.1742 84.2264 28.1339 84.4371 28.151C84.636 28.133 84.8359 28.1711 85.0148 28.2607C85.1937 28.3504 85.3442 28.4882 85.4495 28.6587C85.5457 28.8983 85.5825 29.1577 85.5565 29.4148V31.4347H84.9429V29.5228C84.9429 29.2312 84.9429 28.6155 84.254 28.6155C84.0986 28.6085 83.9447 28.6453 83.8095 28.7218C83.6743 28.7981 83.5632 28.9109 83.4889 29.0475C83.407 29.2644 83.3739 29.4968 83.3919 29.728V31.4347H82.778L82.7456 26.8008Z" fill="#0B1324"/>
<path d="M88.6808 28.1168C88.9007 28.1059 89.1206 28.1433 89.3254 28.2262C89.5294 28.3092 89.7133 28.4356 89.8638 28.597C90.0143 28.7584 90.128 28.9507 90.1974 29.1606C90.2668 29.3705 90.2894 29.593 90.2643 29.8127C90.286 30.0367 90.2593 30.2629 90.1866 30.4759C90.1138 30.6889 89.9968 30.8838 89.8421 31.0475C89.6883 31.2113 89.501 31.34 89.2936 31.4251C89.0855 31.5102 88.8622 31.5497 88.6373 31.541C88.4174 31.5532 88.1976 31.5173 87.9927 31.4357C87.7879 31.3541 87.6031 31.2288 87.4518 31.0685C87.2996 30.9081 87.1851 30.7167 87.114 30.5073C87.0438 30.2979 87.0195 30.0755 87.0438 29.8559C87.0179 29.6296 87.0421 29.4006 87.114 29.1846C87.1859 28.9687 87.3038 28.7711 87.4601 28.6055C87.6156 28.44 87.8054 28.3105 88.0161 28.2261C88.2276 28.1417 88.4542 28.1044 88.6808 28.1168ZM88.6808 31.0981C89.1331 31.0981 89.6498 30.7632 89.6498 29.791C89.6498 28.9917 89.2836 28.5597 88.7126 28.5597C88.3363 28.5597 87.711 28.8081 87.711 29.8234C87.6792 30.4824 87.9593 31.0981 88.6482 31.0981H88.6808ZM87.8079 26.7773H88.3464V27.4579H87.7653L87.8079 26.7773ZM89.0144 26.7773H89.618V27.4579H89.0144V26.7773Z" fill="#0B1324"/>
<path d="M91.8579 28.8652C91.8579 28.6491 91.8579 28.4222 91.8579 28.2063H92.4615V28.8327C92.5042 28.6588 92.602 28.5031 92.7391 28.3885C92.8771 28.2738 93.0476 28.2062 93.2257 28.1954C93.3653 28.1744 93.5066 28.1744 93.6463 28.1954V28.7895C93.607 28.7833 93.5668 28.7833 93.5275 28.7895H93.3553C92.6446 28.7895 92.4716 29.2108 92.4716 29.7617V31.4792H91.8688L91.8579 28.8652Z" fill="#0B1324"/>
<path d="M97.1676 26.8008H97.7712V30.9271C97.7712 30.9919 97.7712 31.2727 97.7712 31.4347H97.1676V30.9271C97.1032 31.0602 97.007 31.1752 96.8875 31.2619C96.6509 31.4173 96.3741 31.4998 96.0907 31.4996C95.6601 31.4996 94.7012 31.2727 94.7012 29.8576C94.7012 28.6263 95.4018 28.097 96.1551 28.097C96.3574 28.0854 96.5581 28.1308 96.7353 28.2283C96.9126 28.3257 97.0589 28.471 97.1575 28.6479L97.1676 26.8008ZM96.9418 28.8747C96.8574 28.7711 96.7504 28.6882 96.6291 28.6321C96.5079 28.5759 96.375 28.5481 96.2412 28.5507C95.3583 28.5507 95.3583 29.6308 95.3583 29.8361C95.3583 30.4086 95.4988 31.0782 96.2412 31.0782C97.1893 31.0782 97.1893 29.9982 97.1893 29.7713C97.2227 29.455 97.1425 29.1372 96.9636 28.8747H96.9418Z" fill="#0B1324"/>
<path d="M99.8386 29.9327C99.8386 30.6025 100.108 31.0993 100.765 31.0993C100.859 31.1067 100.953 31.0951 101.043 31.0651C101.131 31.0351 101.213 30.9875 101.284 30.925C101.354 30.8625 101.411 30.7864 101.451 30.7013C101.492 30.6162 101.515 30.5239 101.519 30.4297H102.122C102.112 30.6772 102.017 30.9137 101.853 31.0993C101.715 31.245 101.548 31.359 101.362 31.4336C101.175 31.5082 100.976 31.5415 100.776 31.5314C99.699 31.5314 99.2785 30.9049 99.2785 29.8787C99.2458 29.5915 99.2868 29.3006 99.398 29.0338C99.5092 28.7671 99.6865 28.5336 99.9139 28.3557C100.175 28.1908 100.479 28.1079 100.787 28.118C102.23 28.118 102.198 29.4035 102.187 29.9327H99.8386ZM101.541 29.5007C101.541 29.1983 101.541 28.5501 100.743 28.5501C100.621 28.5482 100.5 28.5719 100.388 28.6199C100.276 28.6679 100.175 28.7389 100.091 28.8285C100.008 28.9181 99.9448 29.0242 99.9047 29.14C99.8645 29.2558 99.8495 29.3787 99.8604 29.5007H101.541Z" fill="#0B1324"/>
<path d="M107.67 27.2419H107.314C106.83 27.2419 106.83 27.4904 106.83 27.7172V28.225H107.583V28.6678H106.83V31.4547H106.237V28.6461H105.58V28.2033H106.215V27.8361C106.177 27.5731 106.222 27.3048 106.345 27.0691C106.439 26.9462 106.562 26.8491 106.703 26.7868C106.844 26.7245 106.999 26.6989 107.153 26.7126C107.317 26.7 107.483 26.7 107.649 26.7126L107.67 27.2419Z" fill="#0B1324"/>
<path d="M109.361 28.202V30.2868C109.361 30.6 109.436 30.9997 110.05 30.9997C110.198 31.0067 110.346 30.9768 110.478 30.9127C110.612 30.8487 110.728 30.7523 110.815 30.6324C110.916 30.4477 110.961 30.2375 110.944 30.0276V28.202H111.569V30.8268C111.569 30.8917 111.569 31.2589 111.569 31.4318H110.966V30.8808C110.876 31.0839 110.721 31.2512 110.526 31.3567C110.331 31.4623 110.107 31.5001 109.888 31.4642C109.739 31.4777 109.589 31.4598 109.447 31.4116C109.305 31.3635 109.174 31.286 109.064 31.1843C108.953 31.0826 108.865 30.9589 108.805 30.8211C108.744 30.6833 108.714 30.5344 108.714 30.384V28.2237L109.361 28.202ZM109.361 26.8086H109.888V27.4567H109.307L109.361 26.8086ZM110.567 26.8086H111.171V27.4567H110.567V26.8086Z" fill="#0B1324"/>
<path d="M113.389 28.8652C113.389 28.6491 113.389 28.4222 113.389 28.2063H113.993V28.8327C114.04 28.6595 114.141 28.5053 114.28 28.3912C114.418 28.2772 114.589 28.2088 114.768 28.1954C114.907 28.1744 115.049 28.1744 115.188 28.1954V28.7895C115.149 28.7833 115.109 28.7833 115.07 28.7895H114.897C114.187 28.7895 114.015 29.2108 114.015 29.7617V31.4792H113.411L113.389 28.8652Z" fill="#0B1324"/>
<path d="M118.398 26.7891L119.399 30.6129L120.477 26.7891H121.274L122.351 30.6453L123.428 26.7891H124.064L122.685 31.4338H121.974L120.897 27.4696L119.755 31.4338H119.055L117.741 26.7891H118.398Z" fill="#0B1324"/>
<path d="M125.205 26.8008H125.927V27.4597H125.205V26.8008ZM125.269 28.205H125.873V31.4456H125.269V28.205Z" fill="#0B1324"/>
<path d="M127.693 28.8652C127.693 28.6491 127.693 28.4222 127.693 28.2063H128.308V28.8327C128.352 28.6595 128.45 28.5048 128.587 28.3905C128.725 28.2761 128.894 28.2079 129.072 28.1954C129.212 28.1744 129.353 28.1744 129.493 28.1954V28.7895C129.453 28.7833 129.413 28.7833 129.374 28.7895H129.202C128.491 28.7895 128.329 29.2108 128.329 29.7617V31.4792H127.715L127.693 28.8652Z" fill="#0B1324"/>
<path d="M130.117 28.1913H130.688V27.5108L131.291 27.3164V28.1913H132.003V28.6343H131.291V30.5678C131.291 30.7297 131.291 30.9999 131.722 30.9999C131.815 31.0153 131.91 31.0153 132.003 30.9999V31.4751C131.837 31.4897 131.671 31.4897 131.507 31.4751C130.957 31.4751 130.688 31.3239 130.688 30.7946V28.6343H130.117V28.1913Z" fill="#0B1324"/>
<path d="M133.715 30.4711C133.715 30.7195 133.833 31.0652 134.414 31.0652C134.519 31.0795 134.626 31.0683 134.725 31.0325C134.824 30.9968 134.914 30.9376 134.985 30.86C135.049 30.7721 135.083 30.6661 135.082 30.5575C135.082 30.2334 134.867 30.1794 134.383 30.0714C133.704 29.9202 133.144 29.7797 133.144 29.1101C133.144 28.4404 133.66 28.127 134.404 28.127C134.623 28.1061 134.845 28.1406 135.048 28.2273C135.251 28.3141 135.43 28.4504 135.567 28.624C135.626 28.7753 135.651 28.9372 135.643 29.0993H135.029C135.029 28.6132 134.63 28.57 134.404 28.57C134.178 28.57 133.757 28.57 133.757 29.0344C133.757 29.3261 134.037 29.4017 134.21 29.4449C135.104 29.661 135.287 29.7149 135.481 29.8878C135.562 29.9658 135.626 30.0599 135.669 30.164C135.711 30.2681 135.731 30.3801 135.729 30.4927C135.73 30.653 135.691 30.8112 135.616 30.9526C135.541 31.0942 135.431 31.2145 135.298 31.3028C135.005 31.4638 134.674 31.5421 134.339 31.5296C133.682 31.5296 133.068 31.2597 133.079 30.4495L133.715 30.4711Z" fill="#0B1324"/>
<path d="M139.024 29.2418C139.03 29.1546 139.018 29.067 138.989 28.9846C138.96 28.9022 138.914 28.8268 138.855 28.763C138.795 28.6991 138.722 28.6483 138.643 28.6136C138.563 28.5789 138.477 28.5611 138.389 28.5613C137.549 28.5613 137.549 29.5335 137.549 29.782C137.549 30.4409 137.711 31.0673 138.357 31.0673C138.45 31.0719 138.543 31.0569 138.631 31.0233C138.717 30.9896 138.796 30.9381 138.862 30.872C138.928 30.8058 138.98 30.7265 139.013 30.6393C139.047 30.552 139.062 30.4587 139.057 30.3652H139.661C139.652 30.5275 139.611 30.6866 139.541 30.833C139.471 30.9794 139.372 31.1103 139.251 31.2179C139.13 31.3255 138.988 31.4079 138.835 31.4599C138.681 31.5119 138.518 31.5327 138.357 31.521C138.158 31.529 137.96 31.4957 137.774 31.4232C137.589 31.3507 137.421 31.2406 137.279 31.0997C136.997 30.7549 136.858 30.3136 136.892 29.8683C136.892 28.5181 137.722 28.1184 138.357 28.1184C138.541 28.1104 138.724 28.1419 138.896 28.2108C139.066 28.2798 139.221 28.3845 139.348 28.5181C139.523 28.7178 139.62 28.9756 139.617 29.2418H139.024Z" fill="#0B1324"/>
<path d="M140.694 26.8008H141.308V28.6803C141.423 28.5031 141.584 28.3605 141.774 28.2673C141.964 28.1742 142.175 28.1339 142.385 28.151C142.584 28.133 142.784 28.1711 142.963 28.2607C143.142 28.3504 143.292 28.4882 143.398 28.6587C143.494 28.8983 143.531 29.1577 143.506 29.4148V31.4347H142.891V29.5228C142.891 29.2312 142.891 28.6155 142.202 28.6155C142.048 28.6067 141.894 28.6428 141.761 28.7195C141.627 28.7962 141.518 28.9101 141.448 29.0475C141.358 29.2622 141.32 29.4958 141.34 29.728V31.4347H140.726L140.694 26.8008Z" fill="#0B1324"/>
<path d="M147.2 31.4333C147.179 31.2756 147.179 31.1157 147.2 30.958C147.106 31.1409 146.961 31.2928 146.784 31.3961C146.607 31.4995 146.404 31.5499 146.198 31.5414C145.466 31.5414 145.121 31.12 145.121 30.5907C145.12 30.3964 145.172 30.2056 145.271 30.0383C145.369 29.871 145.512 29.7335 145.681 29.6402C146.02 29.4893 146.388 29.4155 146.758 29.4241H147.2C147.2 29.0245 147.2 28.8516 147.082 28.7112C147.008 28.6387 146.92 28.582 146.824 28.5449C146.727 28.5078 146.624 28.4908 146.522 28.4952C145.908 28.4952 145.875 28.9164 145.875 29.0461H145.272C145.277 28.8214 145.357 28.6049 145.498 28.4304C145.645 28.3025 145.816 28.2059 146.001 28.1464C146.186 28.087 146.382 28.066 146.575 28.0848C146.767 28.0811 146.957 28.1198 147.132 28.1982C147.307 28.2766 147.463 28.3928 147.588 28.5384C147.67 28.6903 147.708 28.8628 147.695 29.0353V30.58C147.695 30.634 147.695 31.066 147.695 31.3901L147.2 31.4333ZM146.78 29.8454C146.543 29.8454 145.617 29.8454 145.617 30.5043C145.617 30.7096 145.746 31.0661 146.284 31.0661C146.42 31.0737 146.557 31.0446 146.678 30.9819C146.799 30.9193 146.901 30.8253 146.974 30.7096C147.108 30.4505 147.164 30.1576 147.135 29.867L146.78 29.8454Z" fill="#0B1324"/>
<path d="M151.035 27.2419H150.679C150.194 27.2419 150.194 27.4904 150.194 27.7172V28.225H150.948V28.6678H150.194V31.4547H149.591V28.6461H148.956V28.2033H149.591V27.8361C149.555 27.572 149.604 27.3031 149.731 27.0691C149.824 26.9447 149.947 26.8464 150.088 26.784C150.229 26.7215 150.385 26.6969 150.539 26.7126C150.704 26.7 150.87 26.7 151.035 26.7126V27.2419Z" fill="#0B1324"/>
<path d="M151.52 28.1913H152.09V27.5108L152.693 27.3164V28.1913H153.404V28.6343H152.693V30.5678C152.693 30.7297 152.693 30.9999 153.124 30.9999C153.217 31.0153 153.311 31.0153 153.404 30.9999V31.4751C153.239 31.4897 153.074 31.4897 152.909 31.4751C152.36 31.4751 152.09 31.3239 152.09 30.7946V28.6343H151.52V28.1913Z" fill="#0B1324"/>
<path d="M74.2147 35.9258V38.0106C74.2147 38.3238 74.2901 38.7235 74.9041 38.7235C75.0505 38.7316 75.1966 38.7022 75.3285 38.638C75.4605 38.5736 75.5739 38.4767 75.658 38.3562C75.7679 38.1748 75.817 37.9628 75.7981 37.7514V35.9258H76.412V38.5506C76.412 38.6155 76.412 38.9827 76.412 39.1556H75.7873V38.6046C75.6959 38.8065 75.5411 38.9727 75.3466 39.0781C75.1521 39.1833 74.9286 39.2219 74.7102 39.1879C74.5617 39.1998 74.4122 39.1808 74.2714 39.1319C74.1306 39.083 74.0015 39.0054 73.8922 38.9038C73.7828 38.8023 73.6958 38.6791 73.6363 38.542C73.5769 38.405 73.5465 38.2571 73.5469 38.1078V35.9474L74.2147 35.9258Z" fill="#0B1324"/>
<path d="M78.2217 36.3042V35.9261H78.8249V36.4554C78.9226 36.258 79.0781 36.0953 79.2707 35.9891C79.4632 35.8829 79.6835 35.8384 79.902 35.8614C80.0505 35.8494 80.2 35.8684 80.3408 35.9173C80.4816 35.9662 80.6107 36.0439 80.72 36.1455C80.8294 36.2469 80.9165 36.3701 80.9759 36.5071C81.0353 36.6442 81.0658 36.7921 81.0653 36.9415V39.1019H80.4513V37.0496C80.4618 36.9508 80.452 36.8508 80.4224 36.7561C80.3927 36.6613 80.3439 36.5737 80.2791 36.4986C80.1242 36.3545 79.9192 36.277 79.7081 36.2826C79.5876 36.2831 79.4686 36.3094 79.359 36.3595C79.2493 36.4096 79.1515 36.4826 79.0721 36.5734C78.9927 36.6643 78.9334 36.7712 78.8982 36.8868C78.863 37.0024 78.8527 37.1241 78.868 37.2439V39.1019H78.2648L78.2217 36.3042Z" fill="#0B1324"/>
<path d="M84.9754 34.5234H85.5782V38.6498C85.5782 38.7145 85.5782 38.9954 85.5782 39.1575H84.9754V38.6498C84.9094 38.7848 84.8091 38.9003 84.6845 38.9846C84.4487 39.1423 84.1711 39.2252 83.8875 39.2223C83.4566 39.2223 82.5088 38.9954 82.5088 37.5804C82.5088 36.3598 83.2089 35.8196 83.9629 35.8196C84.1644 35.808 84.3651 35.8535 84.5423 35.9509C84.7196 36.0484 84.8659 36.1938 84.9646 36.3706L84.9754 34.5234ZM84.7489 36.5975C84.6627 36.493 84.5541 36.4096 84.4311 36.3535C84.3074 36.2973 84.1736 36.2699 84.0383 36.2733C83.1551 36.2733 83.1551 37.3536 83.1551 37.5695C83.1551 38.1421 83.3058 38.801 84.0383 38.801C84.9972 38.801 84.9972 37.7208 84.9972 37.5048C85.0248 37.1824 84.937 36.8607 84.7489 36.5975Z" fill="#0B1324"/>
<path d="M89.6821 34.5117H90.3175V39.1565H89.6821V34.5117Z" fill="#0B1324"/>
<path d="M92.0942 36.3042V35.9261H92.6544V36.4554C92.7522 36.258 92.9077 36.0953 93.1 35.9891C93.2932 35.8829 93.513 35.8384 93.7321 35.8614C93.8809 35.8478 94.0314 35.8657 94.1735 35.9139C94.3157 35.9621 94.4461 36.0395 94.5565 36.1412C94.6676 36.2428 94.7554 36.3666 94.8156 36.5043C94.8758 36.6422 94.9068 36.7911 94.9059 36.9415V39.1019H94.2914V37.0496C94.3081 36.8504 94.2463 36.6527 94.1192 36.4986C93.9603 36.3539 93.7522 36.2764 93.5381 36.2826C93.4177 36.2831 93.2982 36.3094 93.1887 36.3595C93.0791 36.4096 92.9813 36.4826 92.9019 36.5734C92.8225 36.6643 92.7631 36.7712 92.728 36.8868C92.6929 37.0024 92.682 37.1241 92.6979 37.2439V39.1019H92.0942V36.3042Z" fill="#0B1324"/>
<path d="M96.6401 36.3042V35.9261H97.2438V36.4554C97.3408 36.258 97.4963 36.0953 97.6894 35.9891C97.8817 35.8829 98.1016 35.8384 98.3206 35.8614C98.4686 35.8494 98.6183 35.8684 98.7596 35.9173C98.9 35.9662 99.0288 36.0439 99.1383 36.1455C99.2478 36.2469 99.3348 36.3701 99.3941 36.5071C99.4535 36.6442 99.4844 36.7921 99.4836 36.9415V39.1019H98.8699V37.0496C98.88 36.9508 98.8708 36.8508 98.8407 36.7561C98.8114 36.6613 98.7621 36.5737 98.6977 36.4986C98.543 36.3545 98.3373 36.277 98.1267 36.2826C98.0063 36.2831 97.8867 36.3094 97.7772 36.3595C97.6677 36.4096 97.5698 36.4826 97.4904 36.5734C97.411 36.6643 97.3516 36.7712 97.3165 36.8868C97.2814 37.0024 97.2714 37.1241 97.2864 37.2439V39.1019H96.6836L96.6401 36.3042Z" fill="#0B1324"/>
<path d="M102.553 35.8382C102.773 35.8293 102.992 35.8678 103.195 35.9514C103.399 36.035 103.583 36.1615 103.732 36.3224C103.883 36.4835 103.996 36.6751 104.067 36.8841C104.136 37.0932 104.16 37.315 104.137 37.5342C104.159 37.7597 104.132 37.9872 104.058 38.2015C103.986 38.4158 103.867 38.6118 103.712 38.7767C103.557 38.9414 103.369 39.0709 103.159 39.1566C102.95 39.2422 102.726 39.282 102.5 39.2733C102.28 39.2822 102.061 39.2437 101.858 39.1601C101.654 39.0765 101.471 38.9499 101.32 38.789C101.171 38.6281 101.056 38.4365 100.987 38.2275C100.917 38.0183 100.893 37.7966 100.916 37.5774C100.89 37.3511 100.915 37.1221 100.987 36.9061C101.058 36.6902 101.176 36.4925 101.333 36.327C101.488 36.1614 101.678 36.032 101.89 35.9475C102.1 35.8631 102.327 35.8259 102.553 35.8382ZM102.553 38.8196C103.006 38.8196 103.523 38.4848 103.523 37.5125C103.523 36.7132 103.156 36.2919 102.586 36.2919C102.198 36.2919 101.584 36.5297 101.584 37.545C101.552 38.258 101.832 38.8196 102.521 38.8196H102.553Z" fill="#0B1324"/>
<path d="M105.106 35.9258H105.785L106.808 38.4858L107.81 35.9258H108.478L107.067 39.1663H106.464L105.106 35.9258Z" fill="#0B1324"/>
<path d="M111.752 39.1555C111.704 39.0018 111.682 38.8412 111.687 38.6802C111.594 38.8613 111.452 39.0122 111.276 39.1154C111.101 39.2187 110.9 39.27 110.697 39.2635C109.953 39.2635 109.555 38.8422 109.555 38.3129C109.556 38.1175 109.609 37.9259 109.709 37.7585C109.81 37.5911 109.953 37.4541 110.126 37.3623C110.464 37.2115 110.832 37.1376 111.203 37.1463H111.634C111.634 36.7466 111.634 36.5738 111.515 36.4334C111.443 36.3592 111.356 36.3015 111.259 36.2642C111.162 36.2269 111.058 36.2109 110.955 36.2173C110.351 36.2173 110.32 36.6386 110.309 36.7683H109.705C109.715 36.5444 109.795 36.3293 109.932 36.1526C110.08 36.0262 110.251 35.9306 110.436 35.8713C110.621 35.8119 110.815 35.79 111.009 35.8069C111.223 35.7861 111.44 35.8186 111.639 35.9015C111.838 35.9844 112.014 36.1151 112.151 36.2822C112.225 36.4368 112.263 36.6072 112.259 36.779V38.3237C112.259 38.3237 112.259 38.8098 112.312 39.1338L111.752 39.1555ZM111.332 37.5675C111.085 37.5675 110.168 37.5675 110.168 38.2264C110.168 38.4317 110.298 38.7882 110.836 38.7882C110.971 38.7937 111.105 38.7649 111.226 38.7045C111.346 38.644 111.449 38.5539 111.526 38.4425C111.655 38.1778 111.707 37.8822 111.677 37.5892L111.332 37.5675Z" fill="#0B1324"/>
<path d="M113.476 35.9149H114.046V35.2344L114.639 35.0508V35.9149H115.361V36.3577H114.639V38.2589C114.639 38.4101 114.639 38.6802 115.07 38.6802C115.166 38.6954 115.264 38.6954 115.361 38.6802V39.1554C115.196 39.1712 115.03 39.1712 114.865 39.1554C114.305 39.1554 114.046 38.9934 114.046 38.4641V36.3038H113.476V35.9149Z" fill="#0B1324"/>
<path d="M116.664 34.5234H117.429V35.1932H116.708L116.664 34.5234ZM116.728 35.9277H117.332V39.1683H116.728V35.9277Z" fill="#0B1324"/>
<path d="M120.52 35.8382C120.74 35.8293 120.959 35.8678 121.162 35.9514C121.366 36.035 121.549 36.1615 121.699 36.3224C121.849 36.4835 121.963 36.6751 122.033 36.8841C122.102 37.0932 122.127 37.315 122.103 37.5342C122.125 37.7597 122.098 37.9872 122.025 38.2015C121.952 38.4158 121.834 38.6118 121.678 38.7767C121.524 38.9414 121.335 39.0709 121.126 39.1566C120.917 39.2422 120.692 39.282 120.466 39.2733C120.246 39.2822 120.027 39.2437 119.824 39.1601C119.62 39.0765 119.437 38.9499 119.287 38.789C119.137 38.6281 119.023 38.4365 118.953 38.2275C118.883 38.0183 118.859 37.7966 118.883 37.5774C118.858 37.3511 118.882 37.1221 118.954 36.9061C119.026 36.6902 119.143 36.4925 119.299 36.327C119.455 36.1614 119.645 36.032 119.856 35.9475C120.067 35.8631 120.293 35.8259 120.52 35.8382ZM120.52 38.8196C120.972 38.8196 121.489 38.4848 121.489 37.5125C121.489 36.7132 121.123 36.2919 120.552 36.2919C120.164 36.2919 119.551 36.5297 119.551 37.545C119.518 38.258 119.798 38.8196 120.488 38.8196H120.52Z" fill="#0B1324"/>
<path d="M123.676 36.3042V35.9261H124.279V36.4554C124.376 36.258 124.532 36.0953 124.725 35.9891C124.917 35.8829 125.137 35.8384 125.356 35.8614C125.505 35.8478 125.656 35.8657 125.798 35.9139C125.94 35.9621 126.07 36.0395 126.181 36.1412C126.292 36.2428 126.38 36.3666 126.44 36.5043C126.5 36.6422 126.531 36.7911 126.53 36.9415V39.1019H125.916V37.0496C125.932 36.8504 125.87 36.6527 125.744 36.4986C125.589 36.3556 125.384 36.2781 125.173 36.2826C125.053 36.2831 124.933 36.3094 124.824 36.3595C124.714 36.4096 124.616 36.4826 124.537 36.5734C124.458 36.6643 124.398 36.7712 124.363 36.8868C124.328 37.0024 124.318 37.1241 124.333 37.2439V39.1019H123.719L123.676 36.3042Z" fill="#0B1324"/>
<path d="M8.01524 29.1328V39.1894H6.80888V34.4257H1.74644V39.1894H0.529297V29.1328H1.74644V33.6697H6.80888V29.1328H8.01524Z" fill="#0B1324"/>
<path d="M16.2338 34.5011V39.1892H15.1566V38.1089C14.8864 38.5036 14.5197 38.822 14.0915 39.0338C13.6635 39.2456 13.1883 39.3437 12.7116 39.3188C11.3221 39.3188 10.6543 38.6059 10.6543 37.5796C10.6543 35.7973 12.647 35.4193 15.0489 35.1925H15.1028V34.5011C15.1028 33.6046 14.6504 33.1402 13.5626 33.1402C12.6185 33.1589 11.7007 33.4557 10.9236 33.9934L11.0421 32.9997C11.8306 32.4584 12.7687 32.1789 13.7241 32.2004C15.7598 32.2112 16.2338 33.3562 16.2338 34.5011ZM15.1566 36.4239V35.8622C13.3471 36.0242 11.8714 36.2834 11.8714 37.4932C11.8714 38.1089 12.2808 38.487 13.0886 38.487C13.356 38.4842 13.6201 38.4286 13.866 38.3234C14.1119 38.2182 14.3348 38.0654 14.5219 37.8738C14.7089 37.6823 14.8564 37.4556 14.9561 37.2068C15.0558 36.958 15.1056 36.6919 15.1028 36.4239H15.1566Z" fill="#0B1324"/>
<path d="M28.6313 34.3707V39.1883H27.4896V34.5327C27.4896 33.7009 27.1987 33.1393 26.4125 33.1393C26.1344 33.1466 25.8606 33.2116 25.6088 33.3303C25.357 33.449 25.1324 33.6188 24.9492 33.8289C24.766 34.039 24.6283 34.2849 24.5446 34.551C24.4609 34.8172 24.433 35.0978 24.4629 35.3753V39.1883H23.3858V34.5327C23.3858 33.7009 23.0734 33.1393 22.2333 33.1393C21.9555 33.1465 21.6823 33.2115 21.4309 33.3303C21.1796 33.4491 20.9556 33.6191 20.7733 33.8293C20.5909 34.0397 20.4541 34.2857 20.3718 34.5518C20.2893 34.8179 20.263 35.0984 20.2945 35.3753V39.1883H19.1636V32.3508H20.2407V33.5281C20.4729 33.12 20.8105 32.7822 21.2181 32.5503C21.6256 32.3184 22.088 32.201 22.5564 32.2103C22.9835 32.1614 23.4133 32.2752 23.7604 32.5294C24.1076 32.7835 24.3468 33.1593 24.4305 33.5821C24.6574 33.1582 24.9969 32.8056 25.4114 32.5635C25.8258 32.3213 26.2991 32.1991 26.7787 32.2103C28.0282 32.2103 28.6313 33.0205 28.6313 34.3707Z" fill="#0B1324"/>
<path d="M37.5388 35.7631C37.5388 38.1827 36.2032 39.3061 34.6953 39.3061C34.2632 39.3256 33.8341 39.2263 33.4544 39.0187C33.0746 38.8112 32.7588 38.5034 32.5411 38.1287V39.2089H31.4639V29.1523H32.6057V33.4731C32.8343 33.0802 33.1637 32.7557 33.5595 32.5335C33.9553 32.3112 34.4033 32.1994 34.8569 32.2093C36.4402 32.2093 37.5388 33.3759 37.5388 35.7631ZM36.3432 35.7631C36.3432 33.9484 35.7508 33.095 34.5444 33.095C33.3381 33.095 32.5841 33.9807 32.5841 35.7631C32.5841 37.5454 33.4351 38.3987 34.5014 38.3987C35.5677 38.3987 36.3432 37.6318 36.3432 35.7739V35.7631Z" fill="#0B1324"/>
<path d="M45.7033 32.332V39.1911H44.6262V37.9922C44.3629 38.4126 43.9951 38.7572 43.5589 38.9921C43.1226 39.2269 42.633 39.3439 42.1381 39.3316C41.8509 39.3625 41.5605 39.3272 41.289 39.2284C41.0175 39.1296 40.7722 38.9699 40.5716 38.7615C40.3711 38.5531 40.2206 38.3015 40.1319 38.0259C40.0431 37.7503 40.0182 37.4579 40.0593 37.1712V32.3429H41.201V37.0416C41.201 37.8733 41.5242 38.4351 42.4505 38.4351C42.7417 38.4353 43.03 38.3764 43.2979 38.2618C43.5657 38.1472 43.8077 37.9793 44.0091 37.7683C44.2104 37.5573 44.367 37.3075 44.4694 37.0341C44.5718 36.7607 44.6178 36.4693 44.6047 36.1775V32.3429L45.7033 32.332Z" fill="#0B1324"/>
<path d="M52.5649 33.4873C52.3331 33.4252 52.0937 33.3961 51.8539 33.4009C50.6906 33.4009 49.6997 34.4163 49.6997 36.123V39.1907H48.6226V32.3531H49.6997V34.0274C49.8758 33.5307 50.1909 33.0953 50.6074 32.7735C51.0238 32.4516 51.5239 32.257 52.0478 32.2127C52.1875 32.1999 52.3281 32.1999 52.4679 32.2127L52.5649 33.4873Z" fill="#0B1324"/>
<path d="M60.3415 32.3502V39.4038C60.3415 40.7 59.6198 41.9962 57.2071 41.9962C56.313 42.0285 55.4383 41.7285 54.7513 41.1537L54.6112 40.1274C55.36 40.7264 56.2924 41.0471 57.2502 41.0349C58.5104 41.0349 59.2105 40.4732 59.2105 39.4362V37.8375C58.9701 38.2182 58.6353 38.5299 58.2388 38.7419C57.8424 38.954 57.3978 39.0592 56.9485 39.0473C55.3544 39.0473 54.2881 37.9671 54.2881 35.6231C54.2881 33.2791 55.5913 32.2098 57.0886 32.2098C57.5158 32.1893 57.9408 32.2837 58.3195 32.483C58.6982 32.6824 59.017 32.9796 59.2428 33.3439V32.3502H60.3415ZM59.2105 35.5908C59.2105 33.8732 58.3488 33.0739 57.2932 33.0739C56.2376 33.0739 55.4837 33.83 55.4837 35.5908C55.4837 37.3514 56.0438 38.1183 57.2502 38.1183C58.4565 38.1183 59.1567 37.3298 59.1567 35.6123L59.2105 35.5908Z" fill="#0B1324"/>
<path d="M49.1716 19.5607H49.2793V20.6949C39.8007 23.3306 32.961 22.6068 23.4932 20.6949C15.3287 19.0638 9.10303 17.8756 0.927734 20.6949V19.5499C9.1246 16.8062 15.5334 18.0161 23.7087 19.6363C32.9503 21.4835 39.7468 22.2504 49.1716 19.6363V19.5607Z" fill="#0B1324"/>
<path d="M35.4169 19.899V16.3343C35.4368 16.0676 35.4015 15.7995 35.3134 15.547C35.2252 15.2945 35.0861 15.0629 34.9046 14.8669C34.7232 14.6707 34.5033 14.5143 34.2587 14.4074C34.0143 14.3004 33.7503 14.2452 33.4835 14.2452C33.2167 14.2452 32.9528 14.3004 32.7083 14.4074C32.4638 14.5143 32.244 14.6707 32.0625 14.8669C31.881 15.0629 31.7418 15.2945 31.6537 15.547C31.5655 15.7995 31.5302 16.0676 31.5501 16.3343V19.5749C29.4713 19.3264 27.4463 18.9808 25.4536 18.6135C26.2915 16.3866 26.7855 14.0444 26.9185 11.668H40.1347C40.3429 14.4275 40.9376 17.1437 41.9012 19.7368C39.7761 19.9594 37.6371 20.0172 35.5031 19.9097L35.4169 19.899Z" fill="#0B1324"/>
<path d="M29.5252 3.75819H28.8251L28.4697 4.36309L28.1143 3.75819H27.4141L27.7696 3.14249L27.4141 2.53758H28.1143L28.4697 1.92188L28.8251 2.53758H29.5252L29.1698 3.14249L29.5252 3.75819Z" fill="#0B1324"/>
<path d="M39.4778 3.75819H38.7669L38.4223 4.36309L38.0668 3.75819H37.3667L37.7222 3.14249L37.3667 2.53758H38.0668L38.4223 1.92188L38.7669 2.53758H39.4778L39.1224 3.14249L39.4778 3.75819Z" fill="#0B1324"/>
<path d="M31.6361 4.00744C31.6352 3.59967 31.7721 3.20363 32.0244 2.88387C32.2767 2.56413 32.6297 2.33952 33.0257 2.24673V1.46903H32.3362V0.745329H32.9825V0H33.8119V0.745329H34.4904V1.46903H33.8335V2.24673C34.2338 2.35037 34.588 2.58535 34.8398 2.9142C35.0916 3.24305 35.2264 3.64691 35.2229 4.0615H35.923V4.99044H35.1367V9.97004H36.8278V4.99044H39.9622V9.97004H40.9531V10.9314H25.8735V9.97004H26.9507V4.99044H30.0743V9.97004H31.7654V4.99044H30.9791V4.0615L31.6361 4.00744Z" fill="#0B1324"/>
</g>
<defs>
<clipPath id="clip0_1937_51259">
<rect width="153" height="42" fill="white" transform="translate(0.529297)"/>
</clipPath>
</defs>
</svg>
