<svg width="54" height="40" viewBox="0 0 54 40" fill="none" xmlns="http://www.w3.org/2000/svg">
<g clip-path="url(#clip0_1937_51176)">
<path d="M11.2046 0V17.0555H9.453C9.35569 15.9347 9.30705 15.1306 9.30705 14.6433V13.3276C9.09715 14.3791 8.62421 15.3599 7.93256 16.1784C7.27572 16.9255 6.37157 17.2991 5.22008 17.2991C4.27323 17.3079 3.34691 17.0228 2.56843 16.4829C1.7509 15.9131 1.10004 15.1351 0.683076 14.2292C0.208612 13.2159 -0.0285269 12.1076 -0.0102486 10.9886C-0.0267874 9.86847 0.201549 8.75828 0.658747 7.73588C1.06183 6.82183 1.70503 6.03448 2.51977 5.45776C3.31204 4.90727 4.25589 4.6177 5.22008 4.62935C6.42022 4.62935 7.3406 4.93391 7.98121 5.54303C8.62183 6.15216 9.06377 7.00899 9.30705 8.11354V0H11.2046ZM8.38261 14.1926C8.9989 13.3577 9.30705 12.2897 9.30705 10.9886C9.30705 9.60954 8.9989 8.51312 8.38261 7.69933C7.76632 6.88554 6.86622 6.47946 5.6823 6.48108C4.49838 6.48108 3.5699 6.89935 2.89685 7.73588C2.2238 8.57241 1.88727 9.65665 1.88727 10.9886C1.87307 11.7831 2.03945 12.5705 2.37381 13.2911C2.6693 13.9337 3.1366 14.4818 3.72397 14.8748C4.30112 15.2559 4.9789 15.4553 5.67014 15.4474C6.87028 15.4474 7.77768 15.0291 8.39234 14.1926H8.38261Z" fill="#0B1324"/>
<path d="M24.8282 4.87109L18.0896 21.9266H16.0947L18.2842 16.883L13.6377 4.87109H15.6568L19.2329 14.5196L22.809 4.87109H24.8282Z" fill="#0B1324"/>
<path d="M35.9188 5.77422C36.6567 6.53928 37.0257 7.57885 37.0257 8.89293V17.0552H35.1282V9.38023C35.1282 7.49763 34.2605 6.55552 32.5252 6.5539C31.6467 6.54962 30.7976 6.87068 30.1411 7.45539C29.4344 8.07107 28.9476 8.90085 28.7545 9.8188V17.0552H26.8569V4.87271H28.7545V8.3569C28.9754 7.31548 29.5104 6.36717 30.2871 5.64021C30.9937 4.98222 31.9252 4.62037 32.8901 4.62906C34.1648 4.62906 35.1744 5.01078 35.9188 5.77422Z" fill="#0B1324"/>
<path d="M50.4543 13.1571C50.267 14.3169 49.6716 15.3712 48.7757 16.1297C47.8305 16.9227 46.6267 17.339 45.3943 17.2992C44.3328 17.3115 43.2886 17.029 42.3777 16.483C41.4716 15.9422 40.731 15.1626 40.2369 14.2292C39.7074 13.2325 39.4396 12.1174 39.4585 10.9886C39.4412 9.85902 39.7001 8.74234 40.2126 7.73592C40.6867 6.80156 41.4057 6.01405 42.2926 5.4578C43.1869 4.90301 44.2208 4.6156 45.2726 4.62938C46.9269 4.62938 48.2162 5.15729 49.1407 6.2131C50.0651 7.26892 50.5273 8.77954 50.5273 10.745C50.5273 11.0715 50.5273 11.3151 50.503 11.4759H41.356C41.429 12.5567 41.8915 13.5741 42.6575 14.3388C43.0155 14.6988 43.4425 14.9826 43.9128 15.1731C44.3831 15.3636 44.887 15.4569 45.3943 15.4474C46.1337 15.4651 46.859 15.2429 47.4621 14.8139C48.0326 14.4101 48.4521 13.827 48.6541 13.1571H50.4543ZM42.8302 7.34608C42.154 7.95591 41.6825 8.76006 41.48 9.64856H48.5836C48.5009 8.64147 48.1441 7.8618 47.5132 7.30953C46.8568 6.7492 46.0155 6.45385 45.1534 6.48111C44.298 6.46695 43.4687 6.77575 42.8302 7.34608Z" fill="#0B1324"/>
<path d="M53.5341 17.0548H51.0527V14.6914H53.5341V17.0548Z" fill="#0B1324"/>
<path d="M23.9842 30.5587C23.0739 30.0368 22.3248 29.2739 21.819 28.3536C21.2593 27.332 20.9782 26.1807 21.0041 25.0156C20.9806 23.8547 21.2616 22.7079 21.819 21.6898C22.3248 20.7601 23.0731 19.9853 23.9842 19.4482C24.8672 18.9233 25.8765 18.6495 26.9034 18.6564C27.9224 18.6514 28.9234 18.9252 29.7983 19.4482C30.7015 19.9873 31.4415 20.7622 31.9391 21.6898C32.4881 22.7107 32.7647 23.8563 32.7419 25.0156C32.767 26.1791 32.4904 27.3292 31.9391 28.3536C31.4417 29.2719 30.7009 30.0349 29.7983 30.5587C28.9183 31.0668 27.9192 31.3317 26.9034 31.3262C25.8797 31.3333 24.8724 31.0685 23.9842 30.5587ZM28.8009 28.9384C29.4221 28.5654 29.9308 28.0307 30.2727 27.3912C30.6589 26.6603 30.8516 25.8424 30.8322 25.0156C30.851 24.1851 30.6584 23.3634 30.2727 22.6279C29.9321 21.981 29.4237 21.4381 28.8009 21.0563C28.2272 20.7002 27.5662 20.5104 26.8912 20.5081C26.2058 20.5055 25.5328 20.6909 24.9451 21.0441C24.3156 21.4214 23.8021 21.9652 23.4611 22.6157C23.0682 23.3533 22.8713 24.1798 22.8894 25.0156C22.8693 25.8439 23.0664 26.6631 23.4611 27.3912C23.809 28.0304 24.3214 28.5646 24.9451 28.9384C25.5333 29.2905 26.206 29.4758 26.8912 29.4744C27.5644 29.4713 28.2242 29.2861 28.8009 28.9384Z" fill="#0B1324"/>
<path d="M38.3251 19.7405C38.9398 19.016 39.8075 18.6546 40.9281 18.6563V20.6055C39.7929 20.6055 38.9211 20.9709 38.313 21.7019C37.7315 22.3818 37.3041 23.1797 37.0601 24.0409V29.7423H35.1626V18.8999H37.0601V22.2135C37.2792 21.3001 37.7129 20.4522 38.3251 19.7405Z" fill="#0B1324"/>
<path d="M53.5342 20.9959C52.527 20.9959 51.4242 20.6792 50.2257 20.0457C51.4728 20.9375 52.0972 22.2369 52.0989 23.9441C52.1207 24.9086 51.8901 25.862 51.4299 26.7095C51.0091 27.4698 50.3859 28.0982 49.6297 28.5247C48.8833 28.9446 48.0408 29.1629 47.1848 29.1582C46.4739 29.1673 45.767 29.2655 45.0805 29.4506C44.6499 29.5968 44.4358 29.8648 44.4358 30.2546C44.4305 30.3711 44.4532 30.4872 44.5019 30.5932C44.5505 30.6992 44.6238 30.7919 44.7156 30.8637C44.9633 31.028 45.2586 31.1051 45.5549 31.083H48.0119C49.3888 31.083 50.4998 31.3835 51.3447 31.9845C52.1897 32.5856 52.6114 33.5683 52.6097 34.9327V35.42C52.6097 35.5641 52.5526 35.7023 52.4508 35.8042C52.3491 35.9061 52.2111 35.9633 52.0672 35.9633H50.7122V35.4273C50.7122 34.5827 50.4892 33.9573 50.0432 33.5512C49.5972 33.1451 48.9282 32.9421 48.0362 32.9421H45.6765C44.6207 32.9421 43.8349 32.7618 43.3168 32.4061C43.0659 32.2391 42.8624 32.0101 42.726 31.7411C42.5895 31.4721 42.5249 31.1724 42.5383 30.8711C42.5153 30.5531 42.5817 30.235 42.7301 29.9529C42.8784 29.6708 43.1027 29.436 43.3776 29.2752C43.9873 28.9293 44.6858 28.7724 45.3846 28.8244C44.452 28.4733 43.6496 27.844 43.0857 27.0214C42.4752 26.1168 42.1645 25.0427 42.1977 23.9514C42.1788 22.9857 42.4137 22.032 42.8789 21.186C43.3049 20.4089 43.9361 19.764 44.7034 19.3221C45.4573 18.8855 46.3139 18.6584 47.1848 18.6642C47.6976 18.6603 48.2075 18.7426 48.6931 18.9078L53.5342 18.8835V20.9959ZM49.3134 26.4171C49.9054 25.808 50.2014 24.9837 50.2014 23.9441C50.2167 23.3125 50.0701 22.6876 49.7756 22.1289C49.5177 21.6418 49.1359 21.2316 48.6687 20.9399C48.2226 20.6653 47.7084 20.5218 47.1848 20.5257C46.6554 20.524 46.135 20.6628 45.6765 20.9277C45.1931 21.2075 44.7971 21.6167 44.5331 22.1094C44.2306 22.6699 44.0797 23.2998 44.0952 23.9368C44.0952 24.9747 44.3993 25.7991 45.0075 26.4098C45.2888 26.7031 45.6271 26.9355 46.0016 27.0926C46.3761 27.2498 46.7788 27.3284 47.1848 27.3235C47.5822 27.328 47.9761 27.2498 48.3417 27.0938C48.7073 26.9377 49.0366 26.7073 49.3085 26.4171H49.3134Z" fill="#0B1324"/>
<path d="M50.7051 35.5986C50.713 35.9267 50.6522 36.2527 50.5265 36.5557C50.4008 36.8587 50.213 37.132 49.9753 37.3578C49.4822 37.8498 48.8152 38.1271 48.1192 38.1294C47.4232 38.1317 46.7544 37.8588 46.2581 37.37L41.636 32.3264L41.6238 32.3118L41.6092 32.2972C41.184 31.8692 40.6768 31.5319 40.1179 31.3055C39.577 31.0862 38.9986 30.9745 38.415 30.9766C37.8315 30.9745 37.2531 31.0862 36.7121 31.3055C36.1538 31.5313 35.6472 31.8688 35.2233 32.2972C34.796 32.723 34.4592 33.2311 34.2332 33.7907C34.0132 34.3323 33.9009 34.9116 33.9024 35.4963C33.9008 36.081 34.0132 36.6603 34.2332 37.2018C34.4592 37.7615 34.796 38.2696 35.2233 38.6954C35.6472 39.1238 36.1538 39.4612 36.7121 39.6871C37.2529 39.9072 37.8313 40.0197 38.415 40.0184C38.9988 40.0197 39.5772 39.9072 40.1179 39.6871C40.6768 39.4607 41.184 39.1234 41.6092 38.6954L41.6238 38.6808L42.6796 37.5283L41.4049 36.1493L40.2761 37.387C39.7794 37.876 39.1102 38.1489 38.4138 38.1467C37.7173 38.1444 37.0499 37.867 36.5565 37.3748C36.0624 36.8788 35.7849 36.2067 35.7849 35.506C35.7849 34.8054 36.0624 34.1333 36.5565 33.6372C37.0496 33.1447 37.7168 32.8669 38.4133 32.8642C39.1097 32.8615 39.7791 33.134 40.2761 33.6226L44.8982 38.6662L44.9128 38.6808L44.9274 38.6954C45.3513 39.1238 45.8579 39.4612 46.4162 39.6871C46.957 39.9072 47.5354 40.0197 48.1191 40.0184C48.7029 40.0199 49.2813 39.9074 49.822 39.6871C50.3808 39.4607 50.8881 39.1234 51.3133 38.6954C51.739 38.2683 52.0756 37.7606 52.3034 37.2018C52.5151 36.7002 52.6212 36.1602 52.6148 35.6157C52.5929 35.0114 50.7051 34.892 50.7051 35.5986Z" fill="#0B1324"/>
</g>
<defs>
<clipPath id="clip0_1937_51176">
<rect width="53.5294" height="40" fill="white"/>
</clipPath>
</defs>
</svg>
