<svg width="189" height="42" viewBox="0 0 189 42" fill="none" xmlns="http://www.w3.org/2000/svg">
<g clip-path="url(#clip0_1937_51189)">
<path d="M61.7505 0.758807V41.1843H1.2814V0.758807H61.7505ZM62.5025 0H0.529297V41.9431H62.5025V0Z" fill="#0B1324"/>
<path d="M45.1328 27.0094H46.8965L45.475 28.0831L46.0278 29.7866L44.6101 28.7357L43.1961 29.7866L43.7565 28.0831L42.3237 27.0094H44.0799L44.6101 25.3477L45.1328 27.0094Z" fill="#0B1324"/>
<path d="M32.4336 6.00955H34.1935L32.7758 7.08706L33.3286 8.79055L31.9108 7.74343L30.4932 8.79055L31.0535 7.08706L29.6245 6.00955H31.3769L31.9108 4.35156L32.4336 6.00955Z" fill="#0B1324"/>
<path d="M32.4336 34.5683H34.1935L32.7758 35.6458L33.3286 37.3569L31.9108 36.3022L30.4932 37.3569L31.0535 35.6458L29.6245 34.5683H31.3769L31.9108 32.9141L32.4336 34.5683Z" fill="#0B1324"/>
<path d="M24.627 32.5679H26.3869L24.973 33.6378L25.5183 35.3451L24.1043 34.2942L22.6904 35.3451L23.2469 33.6378L21.8179 32.5679H23.574L24.1043 30.9023L24.627 32.5679Z" fill="#0B1324"/>
<path d="M45.4376 13.7283H47.1975L45.7835 14.802L46.3325 16.5055L44.9148 15.4584L43.5009 16.5055L44.0612 14.802L42.6284 13.7283H44.3846L44.9148 12.0703L45.4376 13.7283Z" fill="#0B1324"/>
<path d="M19.8847 13.5722H21.6447L20.2232 14.6496L20.776 16.3494L19.362 15.3098L17.9443 16.3494L18.5047 14.6496L17.0757 13.5722H18.828L19.362 11.918L19.8847 13.5722Z" fill="#0B1324"/>
<path d="M40.0786 8.48209H41.846L40.4246 9.552L40.9736 11.2593L39.5596 10.2122L38.1495 11.2593L38.7023 9.552L37.2695 8.48209H39.0295L39.5596 6.82031L40.0786 8.48209Z" fill="#0B1324"/>
<path d="M25.3902 8.32585H27.1576L25.7361 9.39956L26.2852 11.1031L24.8712 10.0559L23.4611 11.1031L24.0139 9.39956L22.5811 8.32585H24.3372L24.8712 6.66406L25.3902 8.32585Z" fill="#0B1324"/>
<path d="M40.6916 32.5679H42.4515L41.0338 33.6378L41.5866 35.3451L40.1726 34.2942L38.7625 35.3451L39.3153 33.6378L37.8862 32.5679H39.6386L40.1726 30.9023L40.6916 32.5679Z" fill="#0B1324"/>
<path d="M18.3541 20.0639H20.1178L18.6963 21.1339L19.2491 22.8374L17.8313 21.7864L16.4174 22.8374L16.9777 21.1339L15.5449 20.0639H17.3011L17.8313 18.3945L18.3541 20.0639Z" fill="#0B1324"/>
<path d="M46.6631 20.2128H48.423L47.0015 21.2903L47.5581 22.9938L46.1403 21.9466L44.7226 22.9938L45.283 21.2903L43.854 20.2128H45.6101L46.1403 18.5586L46.6631 20.2128Z" fill="#0B1324"/>
<path d="M20.0351 27.0094H21.7988L20.3811 28.0831L20.9302 29.7866L19.5124 28.7357L18.106 29.7866L18.6588 28.0831L17.2261 27.0094H18.9822L19.5124 25.3477L20.0351 27.0094Z" fill="#0B1324"/>
<path d="M77.5938 1.55078H82.2493V2.38926H78.4926V4.78329H81.2866V5.59902H78.4926V8.38763H82.4674V9.2185H77.5938V1.55078Z" fill="#0B1324"/>
<path d="M83.9224 6.5627V1.55078H84.8286V6.44508C84.8286 7.67436 85.4118 8.53558 86.7579 8.53558C88.104 8.53558 88.6722 7.7047 88.6722 6.46026V1.55078H89.5595V6.53994C89.5595 8.13722 88.6304 9.35509 86.7462 9.35509C84.7952 9.35509 83.9224 8.1486 83.9224 6.5627Z" fill="#0B1324"/>
<path d="M91.6577 1.55078H94.268C95.9934 1.55078 96.9677 2.28682 96.9677 3.6982C96.9677 4.92747 96.2792 5.56866 95.208 5.8001L97.0696 9.21472H96.0837L94.268 5.91392H92.5526V9.21472H91.6577V1.55078ZM94.2187 5.102C95.4068 5.102 96.0803 4.77191 96.0803 3.72476C96.0803 2.67761 95.4185 2.37788 94.2003 2.37788H92.5451V5.102H94.2187Z" fill="#0B1324"/>
<path d="M98.4487 5.38263C98.4487 2.93168 99.8591 1.41406 101.736 1.41406C103.612 1.41406 105.004 2.93168 105.004 5.39022C105.004 7.84875 103.616 9.38156 101.736 9.38156C99.8558 9.38156 98.4487 7.86393 98.4487 5.3978V5.38263ZM104.09 5.3978C104.09 3.40214 103.101 2.24875 101.724 2.24875C100.348 2.24875 99.3553 3.38696 99.3553 5.3978C99.3553 7.40865 100.33 8.55827 101.724 8.55827C103.119 8.55827 104.101 7.38587 104.101 5.38263L104.09 5.3978Z" fill="#0B1324"/>
<path d="M106.824 1.55078H109.4C111.04 1.55078 112.141 2.20335 112.141 3.72476C112.141 5.35999 110.93 5.97462 109.34 5.97462H107.723V9.2185H106.82V1.55078H106.824ZM109.4 5.1627C110.619 5.1627 111.261 4.78329 111.261 3.75891C111.261 2.73452 110.626 2.37788 109.381 2.37788H107.73V5.1627H109.4Z" fill="#0B1324"/>
<path d="M115.308 1.5211H116.251L118.944 9.21919H118.008L117.256 7.02245H114.248L113.495 9.21919H112.623L115.311 1.5211H115.308ZM114.391 0.121094H115.289V1.09616H114.391V0.121094ZM116.985 6.2257L115.793 2.62516H115.77L114.533 6.2257H116.985ZM116.251 0.121094H117.165V1.09616H116.251V0.121094Z" fill="#0B1324"/>
<path d="M121.426 1.55078H120.528V9.2185H121.426V1.55078Z" fill="#0B1324"/>
<path d="M123.205 7.36467L123.957 7.02321C124.101 7.48112 124.391 7.87811 124.782 8.15253C125.173 8.42698 125.644 8.56348 126.119 8.5408C127.187 8.5408 127.898 8.08553 127.898 7.2812C127.898 6.47686 127.484 6.14299 125.984 5.67253C124.4 5.1793 123.46 4.75437 123.46 3.42267C123.464 2.26928 124.442 1.41562 125.908 1.41562C126.475 1.37928 127.039 1.5249 127.519 1.8316C127.998 2.13831 128.369 2.59036 128.578 3.12294L127.856 3.5289C127.707 3.1293 127.437 2.78816 127.082 2.55537C126.727 2.32258 126.308 2.21036 125.886 2.23513C124.923 2.23513 124.348 2.71697 124.348 3.37334C124.348 4.19285 124.856 4.46602 126.348 4.94028C127.841 5.41453 128.778 5.93811 128.778 7.2167C128.778 8.49527 127.687 9.38307 126.077 9.38307C125.446 9.41659 124.822 9.23817 124.303 8.87571C123.783 8.51325 123.397 7.98722 123.205 7.37985" fill="#0B1324"/>
<path d="M130.203 5.34825C130.203 2.9618 131.522 1.40625 133.429 1.40625C135.038 1.40625 135.892 2.34718 136.246 3.75855L135.378 3.99379C135.05 2.8328 134.531 2.24473 133.418 2.24473C132 2.24473 131.121 3.44744 131.121 5.34446C131.121 7.37427 132.019 8.53526 133.441 8.53526C134.52 8.53526 135.186 7.92061 135.506 6.67996L136.355 6.87725C135.979 8.39486 135.016 9.36611 133.429 9.36611C131.5 9.36611 130.203 7.84853 130.203 5.34825Z" fill="#0B1324"/>
<path d="M138.055 1.55078H138.958V4.76433H142.869V1.55078H143.775V9.2185H142.869V5.59902H138.958V9.2185H138.055V1.55078Z" fill="#0B1324"/>
<path d="M145.926 1.55078H150.589V2.38926H146.836V4.78329H149.626V5.59902H146.836V8.38763H150.807V9.2185H145.926V1.55078Z" fill="#0B1324"/>
<path d="M154.725 6.5627V1.55078H155.627V6.44508C155.627 7.67436 156.211 8.53558 157.553 8.53558C158.895 8.53558 159.471 7.7047 159.471 6.46026V1.55078H160.362V6.53994C160.362 8.13722 159.422 9.35509 157.546 9.35509C155.59 9.35509 154.725 8.1486 154.725 6.5627Z" fill="#0B1324"/>
<path d="M162.458 1.55078H163.408L167.402 7.61365H167.425V1.55078H168.282V9.2185H167.473L163.326 2.99252H163.303V9.2185H162.458V1.55078Z" fill="#0B1324"/>
<path d="M171.395 1.55078H170.49V9.2185H171.395V1.55078Z" fill="#0B1324"/>
<path d="M173.261 5.38263C173.261 2.93168 174.672 1.41406 176.552 1.41406C178.432 1.41406 179.815 2.93168 179.815 5.39022C179.815 7.84875 178.424 9.38156 176.552 9.38156C174.679 9.38156 173.261 7.86393 173.261 5.3978V5.38263ZM178.902 5.3978C178.902 3.40214 177.913 2.24875 176.537 2.24875C175.16 2.24875 174.167 3.38696 174.167 5.3978C174.167 7.40865 175.141 8.55827 176.537 8.55827C177.932 8.55827 178.917 7.38587 178.917 5.38263L178.902 5.3978Z" fill="#0B1324"/>
<path d="M181.636 1.55078H182.591L186.591 7.61365H186.603V1.55078H187.457V9.2185H186.648L182.516 2.99252H182.489V9.2185H181.636V1.55078Z" fill="#0B1324"/>
<path d="M77.5938 23.8047H81.6627V24.5217H78.3797V26.5819H80.8202V27.2762H78.3797V29.6779H81.8544V30.3911H77.5938V23.8047Z" fill="#0B1324"/>
<path d="M83.0762 29.0758V25.6953H83.8508V28.9202C83.8508 29.5386 84.1139 29.8308 84.7196 29.8308C85.3095 29.7906 85.861 29.5181 86.2537 29.072V25.6953H87.0358V30.3999H86.2537V29.6867C85.7858 30.1749 85.1474 30.4595 84.4748 30.4796C84.2868 30.5012 84.0963 30.4798 83.9173 30.417C83.7383 30.3542 83.5757 30.2516 83.4413 30.1168C83.307 29.982 83.2044 29.8185 83.1412 29.6383C83.078 29.4581 83.0558 29.2658 83.0762 29.0758Z" fill="#0B1324"/>
<path d="M88.6226 25.6989H89.3938V26.5753C89.5851 26.263 89.8558 26.0081 90.1784 25.8373C90.5001 25.6664 90.8618 25.5859 91.2253 25.6041H91.349L91.2963 26.3136C91.2663 26.3136 91.0975 26.3136 91.0707 26.3136C90.7206 26.3079 90.3756 26.4054 90.0798 26.594C89.7831 26.7827 89.5475 27.0544 89.4013 27.3759V30.4111H88.6301V25.6989" fill="#0B1324"/>
<path d="M92.1021 28.0332C92.1021 26.417 93.1431 25.5898 94.3129 25.5898C95.4827 25.5898 96.5129 26.417 96.5129 28.0332C96.5129 29.6495 95.4752 30.4842 94.3129 30.4842C93.1507 30.4842 92.1021 29.6457 92.1021 28.0332ZM95.7267 28.0332C95.7267 27.0582 95.2571 26.2501 94.3129 26.2501C93.3687 26.2501 92.8875 26.9785 92.8875 28.0332C92.8875 29.088 93.3537 29.8316 94.3129 29.8316C95.2003 29.8316 95.7158 29.1108 95.7158 28.0332H95.7267Z" fill="#0B1324"/>
<path d="M97.8516 25.6961H98.6261V26.3487C98.8158 26.1157 99.0539 25.9272 99.3238 25.7961C99.5929 25.6651 99.8878 25.5947 100.187 25.5898C101.273 25.5898 102.12 26.3904 102.12 28.0295C102.12 29.6685 101.266 30.4614 100.104 30.4614C99.8243 30.4566 99.5494 30.3939 99.2946 30.277C99.0406 30.1602 98.8133 29.9918 98.6261 29.7823V32.1649H97.8516V25.6961ZM101.345 28.0447C101.345 26.8495 100.774 26.2614 100.01 26.2614C99.7416 26.2749 99.4792 26.3462 99.2403 26.4705C99.0021 26.5948 98.7924 26.7694 98.6261 26.9823V29.1108C98.7891 29.3241 98.9971 29.4991 99.2336 29.6236C99.4709 29.7481 99.7316 29.8191 99.9989 29.8316C100.822 29.8316 101.345 29.289 101.345 28.0332V28.0447Z" fill="#0B1324"/>
<path d="M103.169 29.2726C103.169 28.3203 103.984 27.6411 106.335 27.311V27.0986C106.35 26.9782 106.337 26.856 106.297 26.7416C106.257 26.6272 106.191 26.5237 106.105 26.4393C106.018 26.3551 105.914 26.2923 105.799 26.2559C105.684 26.2195 105.563 26.2105 105.444 26.2297C104.803 26.2403 104.19 26.4935 103.725 26.9392L103.323 26.4535C103.919 25.8908 104.706 25.5799 105.523 25.5847C106.651 25.5847 107.106 26.169 107.106 27.1517V29.2232C107.08 29.615 107.125 30.0083 107.238 30.3841H106.448C106.374 30.1747 106.336 29.9541 106.335 29.7316C105.846 30.2069 105.19 30.4686 104.512 30.4601C103.691 30.4601 103.172 30.0313 103.172 29.2726H103.169ZM106.339 29.1663V27.8498C104.534 28.1343 103.939 28.5707 103.939 29.1587C103.939 29.6102 104.241 29.8492 104.737 29.8492C105.035 29.8475 105.33 29.7862 105.604 29.669C105.878 29.5518 106.127 29.3809 106.335 29.1663H106.339ZM104.136 24.3555H104.921V25.1977H104.136V24.3555ZM105.763 24.3555H106.568V25.1977H105.763V24.3555Z" fill="#0B1324"/>
<path d="M108.689 23.9336H109.494V24.6924H108.689V23.9336ZM108.708 25.6864H109.46V30.3872H108.708V25.6864Z" fill="#0B1324"/>
<path d="M110.735 29.6784L111.201 29.2117C111.387 29.4219 111.614 29.5895 111.869 29.7034C112.124 29.8173 112.4 29.8747 112.679 29.8719C113.431 29.8719 113.807 29.6139 113.807 29.1131C113.807 28.6123 113.389 28.4605 112.581 28.2784C111.577 28.0355 110.881 27.7738 110.881 26.8595C110.881 26.1537 111.517 25.5808 112.547 25.5808C112.878 25.5654 113.21 25.6168 113.521 25.7321C113.832 25.8474 114.117 26.0243 114.359 26.2524L113.958 26.7645C113.583 26.4117 113.093 26.2116 112.581 26.2031C111.889 26.2031 111.622 26.5028 111.622 26.8367C111.622 27.2692 111.998 27.4323 112.75 27.5955C113.826 27.8534 114.555 28.1077 114.555 29.0827C114.555 29.9781 113.743 30.4637 112.657 30.4637C112.296 30.4761 111.937 30.4107 111.604 30.272C111.27 30.1334 110.97 29.9244 110.723 29.6594" fill="#0B1324"/>
<path d="M115.631 28.0346C115.631 26.3196 116.759 25.5912 117.809 25.5912C118.219 25.5756 118.623 25.6958 118.959 25.9335C119.295 26.1712 119.544 26.5133 119.67 26.9077L119.012 27.1771C118.943 26.9042 118.786 26.6628 118.563 26.4925C118.341 26.3222 118.069 26.2331 117.79 26.24C117.109 26.24 116.421 26.7104 116.421 28.0346C116.421 29.1955 116.973 29.8443 117.771 29.8443C118.373 29.8443 118.745 29.5863 119.05 28.9034L119.689 29.15C119.313 29.9353 118.771 30.4855 117.749 30.4855C116.65 30.4855 115.631 29.647 115.631 28.0346Z" fill="#0B1324"/>
<path d="M120.93 23.8008H121.716V26.3883C122.181 25.8956 122.821 25.6079 123.495 25.5878C123.683 25.5661 123.874 25.5875 124.054 25.6505C124.233 25.7135 124.396 25.8165 124.53 25.9518C124.665 26.087 124.767 26.2511 124.83 26.4317C124.893 26.6124 124.914 26.805 124.894 26.9954V30.3872H124.115V27.1699C124.115 26.5401 123.852 26.2517 123.25 26.2517C122.659 26.2895 122.108 26.5624 121.716 27.0106V30.3949H120.93V23.8008Z" fill="#0B1324"/>
<path d="M126.202 28.0332C126.202 26.3259 127.356 25.5898 128.349 25.5898C129.477 25.5898 130.327 26.3715 130.327 28.0712V28.2306H126.976C127.003 29.2929 127.623 29.862 128.405 29.862C128.689 29.8724 128.971 29.8079 129.221 29.6748C129.473 29.5417 129.685 29.3446 129.838 29.1031L130.282 29.4826C130.072 29.8021 129.784 30.0616 129.444 30.2357C129.106 30.4098 128.728 30.4928 128.349 30.4766C127.221 30.4766 126.202 29.6685 126.202 28.0257V28.0332ZM129.586 27.6462C129.522 26.8115 129.119 26.2424 128.337 26.2424C127.702 26.2424 127.101 26.6787 126.991 27.6462H129.586Z" fill="#0B1324"/>
<path d="M131.685 25.6988H132.459V26.5752C132.652 26.2631 132.924 26.0086 133.246 25.8378C133.569 25.667 133.931 25.5863 134.295 25.6039H134.393L134.336 26.3134C134.262 26.3095 134.188 26.3095 134.114 26.3134C133.764 26.3085 133.42 26.4064 133.124 26.595C132.829 26.7836 132.594 27.0548 132.448 27.3758V30.411H131.674V25.6988" fill="#0B1324"/>
<path d="M137.687 23.8047H141.68V24.5217H138.48V26.6388H140.83V27.3483H138.48V30.3911H137.687V23.8047Z" fill="#0B1324"/>
<path d="M142.346 28.0332C142.346 26.417 143.388 25.5898 144.561 25.5898C145.734 25.5898 146.757 26.417 146.757 28.0332C146.757 29.6495 145.719 30.4842 144.561 30.4842C143.403 30.4842 142.346 29.6457 142.346 28.0332ZM145.979 28.0332C145.979 27.0582 145.497 26.2501 144.561 26.2501C143.625 26.2501 143.124 26.9785 143.124 28.0332C143.124 29.088 143.598 29.8316 144.561 29.8316C145.46 29.8316 145.979 29.1108 145.979 28.0332Z" fill="#0B1324"/>
<path d="M148.107 25.6967H148.886V26.4025C149.352 25.911 149.99 25.6236 150.664 25.6019C150.853 25.5803 151.044 25.6018 151.224 25.6648C151.403 25.7278 151.566 25.8307 151.701 25.9659C151.835 26.101 151.938 26.265 152.001 26.4456C152.065 26.6263 152.088 26.819 152.067 27.0095V30.4014H151.292V27.1688C151.292 26.5391 151.026 26.2507 150.423 26.2507C149.833 26.2909 149.283 26.5634 148.889 27.0095V30.3937H148.107V25.6967Z" fill="#0B1324"/>
<path d="M153.398 28.0463C153.398 26.4111 154.263 25.5916 155.421 25.5916C155.702 25.5962 155.979 25.66 156.233 25.7789C156.487 25.8978 156.715 26.0693 156.899 26.2821V23.8008H157.651V29.2263C157.624 29.619 157.672 30.0133 157.794 30.3872H156.99C156.924 30.1693 156.888 29.9434 156.884 29.7157C156.695 29.9502 156.456 30.1397 156.186 30.2708C155.915 30.4019 155.62 30.4715 155.32 30.4745C154.229 30.4745 153.383 29.7157 153.383 28.0577L153.398 28.0463ZM156.895 29.1124V26.9536C156.731 26.7419 156.523 26.5684 156.287 26.4454C156.05 26.3222 155.789 26.2522 155.523 26.2404C154.699 26.2404 154.173 26.8208 154.173 28.054C154.173 29.287 154.756 29.8258 155.516 29.8258C155.782 29.8127 156.044 29.7424 156.282 29.6193C156.52 29.4963 156.729 29.3235 156.895 29.1124Z" fill="#0B1324"/>
<path d="M158.904 29.6782L159.366 29.2115C159.552 29.4218 159.78 29.5895 160.036 29.7034C160.292 29.8172 160.568 29.8746 160.847 29.8717C161.6 29.8717 161.976 29.6137 161.976 29.1129C161.976 28.6121 161.563 28.4603 160.754 28.2782C159.749 28.0354 159.054 27.7736 159.054 26.8592C159.054 26.1535 159.686 25.5806 160.716 25.5806C161.048 25.5657 161.379 25.6174 161.691 25.7327C162.003 25.8479 162.289 26.0245 162.533 26.2522L162.13 26.7644C161.756 26.4115 161.266 26.2114 160.754 26.2029C160.065 26.2029 159.791 26.5026 159.791 26.8364C159.791 27.269 160.167 27.4322 160.919 27.5953C161.987 27.8533 162.728 28.1075 162.728 29.0825C162.728 29.978 161.908 30.4636 160.847 30.4636C160.486 30.4773 160.127 30.4125 159.793 30.2737C159.459 30.135 159.158 29.9254 158.911 29.6593" fill="#0B1324"/>
<path d="M78.421 36.1086H77.5938V35.4788H78.421V34.8528C78.421 34.056 78.846 33.5742 79.8501 33.5742C79.9817 33.5742 80.2261 33.6045 80.29 33.6045V34.2267C80.1809 34.2071 80.07 34.1982 79.9591 34.2002C79.5266 34.2002 79.207 34.352 79.207 34.8566V35.4788H80.2449V36.1086H79.207V40.1796H78.4323V36.1086" fill="#0B1324"/>
<path d="M81.3541 38.8747V35.4601H82.125V38.6965C82.125 39.3149 82.3957 39.6108 82.9974 39.6108C83.5864 39.5697 84.1359 39.2972 84.5278 38.852V35.4374H85.3099V40.1382H84.5278V39.4363C84.0624 39.9277 83.4228 40.2128 82.7493 40.2292C82.5617 40.2515 82.3716 40.2307 82.1931 40.1686C82.0146 40.1065 81.8522 40.0045 81.7182 39.8704C81.5841 39.7362 81.4817 39.5733 81.4187 39.3937C81.3557 39.2141 81.3336 39.0224 81.3541 38.8331V38.8747ZM82.125 34.1133H82.9147V34.9935H82.125V34.1133ZM83.7609 34.1133H84.5805V34.9935H83.7797L83.7609 34.1133Z" fill="#0B1324"/>
<path d="M86.9009 35.4761H87.6721V36.3525H87.6905C87.8827 36.0407 88.1534 35.7863 88.4759 35.6155C88.7976 35.4447 89.1586 35.3638 89.522 35.3812H89.624L89.5671 36.0907C89.5412 36.0907 89.3683 36.0907 89.3457 36.0907C88.9948 36.0859 88.6505 36.1833 88.3539 36.371C88.0573 36.5588 87.8208 36.829 87.6721 37.1493V40.1844H86.9009V35.4761Z" fill="#0B1324"/>
<path d="M93.1472 35.4763H93.9217V36.3527C94.1131 36.0404 94.3838 35.7855 94.7055 35.6147C95.028 35.4438 95.3898 35.3633 95.7533 35.3814H95.8619L95.8092 36.091C95.7833 36.091 95.6104 36.091 95.5878 36.091C95.2369 36.0862 94.8926 36.1835 94.596 36.3713C94.2994 36.559 94.0621 36.8292 93.9142 37.1494V40.1847H93.1396V35.4763" fill="#0B1324"/>
<path d="M96.3506 37.8378C96.3506 36.1229 97.4978 35.3906 98.498 35.3906C99.626 35.3906 100.472 36.176 100.472 37.8719V38.0351H97.1218C97.1519 39.0936 97.7685 39.6589 98.5506 39.6589C98.833 39.6712 99.1146 39.6073 99.3653 39.474C99.6151 39.3407 99.8265 39.1427 99.9761 38.9001L100.427 39.2795C100.217 39.5979 99.9284 39.8567 99.5909 40.0314C99.2533 40.206 98.8773 40.2907 98.498 40.2773C97.37 40.2773 96.3506 39.4692 96.3506 37.8264V37.8378ZM99.7354 37.4243C99.6753 36.5896 99.2725 36.0167 98.4904 36.0167C97.8471 36.0167 97.2455 36.453 97.1402 37.4243H99.7354Z" fill="#0B1324"/>
<path d="M101.289 40.8203C101.303 40.5769 101.394 40.3444 101.549 40.1572C101.704 39.9701 101.915 39.8381 102.15 39.7808C102.029 39.7362 101.925 39.6543 101.853 39.5467C101.78 39.439 101.744 39.3113 101.748 39.1813C101.773 39.0143 101.841 38.8568 101.944 38.7238C102.048 38.5909 102.183 38.4872 102.338 38.4226C102.11 38.281 101.922 38.0814 101.794 37.8437C101.666 37.606 101.602 37.3385 101.608 37.0681C101.608 36.0816 102.41 35.3797 103.538 35.3797C104.048 35.3654 104.546 35.5378 104.94 35.8653C105.277 35.634 105.664 35.4858 106.068 35.4328V36.1044C105.779 36.106 105.491 36.1587 105.219 36.26C105.378 36.4984 105.462 36.7803 105.459 37.0681C105.459 38.0811 104.643 38.745 103.541 38.745C103.286 38.7458 103.032 38.7061 102.789 38.6274C102.593 38.7147 102.458 38.8323 102.458 39.0069C102.458 39.1813 102.613 39.2951 103.116 39.3369L104.079 39.4166C105.286 39.4962 105.899 39.8832 105.899 40.6344C105.899 41.526 104.955 42.0003 103.578 42.0003C101.981 42.0003 101.292 41.545 101.292 40.8318L101.289 40.8203ZM105.189 40.7104C105.189 40.293 104.876 40.1033 103.876 40.0312L102.977 39.9705L102.71 39.944C102.255 40.1033 102.011 40.3955 102.011 40.7027C102.011 41.1694 102.503 41.4046 103.68 41.4046C104.62 41.4084 105.184 41.1239 105.184 40.699L105.189 40.7104ZM104.737 37.0795C104.737 36.3966 104.309 35.9678 103.538 35.9678C103.385 35.9502 103.23 35.9661 103.084 36.0145C102.938 36.0629 102.803 36.1426 102.69 36.2482C102.577 36.3538 102.489 36.4827 102.43 36.6262C102.371 36.7697 102.344 36.9242 102.349 37.0795C102.349 37.7586 102.826 38.1759 103.548 38.1759C104.271 38.1759 104.737 37.77 104.737 37.0795Z" fill="#0B1324"/>
<path d="M107.223 33.7266H108.031V34.4854H107.223V33.7266ZM107.242 35.4795H108.013V40.1803H107.242V35.4795Z" fill="#0B1324"/>
<path d="M109.374 37.8378C109.374 36.2178 110.408 35.3906 111.585 35.3906C112.762 35.3906 113.785 36.2178 113.785 37.8378C113.785 39.4578 112.743 40.2887 111.585 40.2887C110.427 40.2887 109.374 39.4465 109.374 37.8378ZM113.003 37.8378C113.003 36.8589 112.522 36.047 111.585 36.047C110.648 36.047 110.152 36.7717 110.152 37.8378C110.152 38.8319 110.626 39.6362 111.589 39.6362C112.48 39.6286 113.003 38.9077 113.003 37.8378Z" fill="#0B1324"/>
<path d="M115.131 35.4784H115.909V36.1879C116.37 35.6973 117.003 35.4086 117.673 35.3835C117.861 35.3614 118.053 35.3824 118.232 35.4449C118.412 35.5074 118.575 35.6099 118.71 35.7446C118.846 35.8795 118.948 36.0431 119.013 36.2236C119.076 36.4041 119.099 36.5967 119.08 36.7873V40.1792H118.305V36.9619C118.305 36.3396 118.034 36.0399 117.432 36.0399C116.842 36.085 116.292 36.3566 115.894 36.7988V40.183H115.116V35.4784" fill="#0B1324"/>
<path d="M120.351 39.0631C120.351 38.1183 121.17 37.4393 123.521 37.1129V36.8928C123.535 36.7718 123.522 36.6491 123.481 36.5342C123.44 36.4194 123.374 36.3157 123.287 36.2311C123.2 36.1466 123.095 36.0835 122.979 36.047C122.864 36.0103 122.741 36.0013 122.622 36.0202C121.983 36.0351 121.372 36.2909 120.911 36.7374L120.501 36.2554C121.098 35.6911 121.886 35.3788 122.705 35.3829C123.833 35.3829 124.284 35.9709 124.284 36.9536V39.0213C124.259 39.4059 124.305 39.7918 124.42 40.1595H123.633C123.557 39.952 123.519 39.7321 123.521 39.5108C123.028 39.9861 122.368 40.2452 121.686 40.2317C120.874 40.2317 120.351 39.8029 120.351 39.0441V39.0631ZM123.521 38.9417V37.6214C121.716 37.9097 121.114 38.346 121.114 38.934C121.114 39.3855 121.418 39.6284 121.915 39.6284C122.515 39.6312 123.091 39.3969 123.521 38.9758V38.9417Z" fill="#0B1324"/>
<path d="M126.65 33.5898H125.875V40.1763H126.65V33.5898Z" fill="#0B1324"/>
<path d="M128.026 37.8378C128.026 36.1229 129.154 35.3906 130.169 35.3906C131.297 35.3906 132.148 36.176 132.148 37.8719V38.0351H128.8C128.823 39.0936 129.444 39.6589 130.226 39.6589C130.508 39.6708 130.789 39.6068 131.04 39.4735C131.29 39.3402 131.501 39.1424 131.651 38.9001L132.106 39.2795C131.893 39.597 131.603 39.8549 131.264 40.0294C130.926 40.2038 130.549 40.2891 130.169 40.2773C129.041 40.2773 128.026 39.4692 128.026 37.8264V37.8378ZM131.41 37.4243C131.346 36.5896 130.936 36.0167 130.162 36.0167C129.522 36.0167 128.921 36.453 128.811 37.4243H131.41Z" fill="#0B1324"/>
<path d="M135.667 33.5977H139.744V34.3148H136.457V36.3711H138.901V37.073H136.457V39.4709H139.927V40.1803H135.667V33.5977Z" fill="#0B1324"/>
<path d="M141.206 35.478H141.985V36.1875C142.449 35.6933 143.089 35.4042 143.764 35.3832C143.952 35.3616 144.142 35.383 144.321 35.4457C144.501 35.5086 144.663 35.6111 144.797 35.746C144.932 35.8808 145.035 36.0443 145.097 36.2245C145.161 36.4047 145.182 36.5969 145.162 36.787V40.1788H144.391V36.9614C144.391 36.3392 144.125 36.0395 143.523 36.0395C142.933 36.0846 142.383 36.3562 141.985 36.7983V40.1826H141.206V35.478Z" fill="#0B1324"/>
<path d="M147.069 39.0406V36.1078H146.253V35.478H147.081V33.8086H147.833V35.478H149.066V36.1078H147.833V38.8737C147.833 39.3707 147.994 39.6325 148.585 39.6325C148.748 39.6313 148.911 39.6122 149.07 39.5755V40.2016C148.847 40.2402 148.623 40.2593 148.397 40.2585C147.4 40.2585 147.081 39.8791 147.081 39.0558" fill="#0B1324"/>
<path d="M150.014 35.4796H150.815L151.435 37.6877C151.597 38.2682 151.71 38.6476 151.853 39.2547H151.894C152.052 38.5983 152.142 38.2568 152.3 37.6801L152.909 35.4796H153.579L154.199 37.7256C154.361 38.2909 154.451 38.64 154.598 39.2432H154.617C154.775 38.6211 154.865 38.2872 155.023 37.7256L155.673 35.4492H156.402L154.955 40.15H154.237L153.225 36.4736H153.206L152.194 40.15H151.488L150.014 35.4796Z" fill="#0B1324"/>
<path d="M157.512 33.7266H158.324V34.4854H157.512V33.7266ZM157.531 35.4795H158.305V40.1803H157.534L157.531 35.4795Z" fill="#0B1324"/>
<path d="M159.667 37.8389C159.667 36.1164 160.795 35.3918 161.844 35.3918C162.253 35.3776 162.654 35.498 162.989 35.7349C163.323 35.9718 163.572 36.3121 163.698 36.7045L163.044 36.9739C162.974 36.7023 162.817 36.4622 162.596 36.2927C162.375 36.1233 162.103 36.0344 161.825 36.0406C161.145 36.0406 160.449 36.511 160.449 37.8389C160.449 38.9771 161.005 39.6448 161.806 39.6448C162.408 39.6448 162.776 39.3869 163.077 38.704L163.716 38.9544C163.34 39.7131 162.799 40.2899 161.776 40.2899C160.682 40.2899 159.667 39.4476 159.667 37.8389Z" fill="#0B1324"/>
<path d="M164.961 33.5977H165.736V37.828L167.857 35.4795H168.729L167.18 37.164L168.902 40.1803H168.079L166.68 37.7331L165.736 38.7385V40.1803H164.961V33.5977Z" fill="#0B1324"/>
<path d="M170.847 33.5898H170.08V40.1763H170.847V33.5898Z" fill="#0B1324"/>
<path d="M172.43 38.8749V35.4603H173.208V38.6966C173.208 39.315 173.472 39.611 174.073 39.611C174.665 39.5717 175.217 39.2991 175.611 38.8522V35.4375H176.394V40.1383H175.611V39.4365C175.145 39.9278 174.506 40.213 173.833 40.2294C172.926 40.2294 172.43 39.721 172.43 38.8332" fill="#0B1324"/>
<path d="M177.984 35.4784H178.766V36.188C178.995 35.9427 179.269 35.7454 179.574 35.6074C179.879 35.4693 180.207 35.3933 180.541 35.3836C180.73 35.3614 180.921 35.3823 181.1 35.4448C181.28 35.5074 181.443 35.6099 181.577 35.7448C181.713 35.8796 181.815 36.0434 181.879 36.2239C181.942 36.4044 181.964 36.597 181.944 36.7874V40.1792H181.17V36.9619C181.17 36.3397 180.905 36.04 180.301 36.04C179.711 36.0822 179.161 36.3543 178.766 36.7988V40.1831H177.984V35.4784Z" fill="#0B1324"/>
<path d="M182.982 40.8202C182.996 40.5757 183.089 40.3424 183.245 40.1552C183.401 39.9678 183.614 39.8365 183.85 39.7806C183.728 39.7368 183.623 39.6553 183.549 39.5477C183.476 39.4401 183.437 39.3118 183.441 39.1811C183.441 38.8852 183.692 38.6234 184.035 38.4223C183.802 38.2834 183.61 38.0849 183.478 37.8471C183.346 37.6093 183.279 37.3404 183.283 37.0678C183.283 36.0814 184.087 35.3795 185.22 35.3795C185.728 35.3674 186.225 35.5397 186.618 35.8651C186.955 35.6336 187.342 35.4854 187.746 35.4326V36.1042C187.454 36.1058 187.164 36.1584 186.889 36.2597C187.052 36.4966 187.136 36.7795 187.13 37.0678C187.13 38.0809 186.325 38.7448 185.22 38.7448C184.964 38.7447 184.711 38.7051 184.467 38.6272C184.271 38.7145 184.136 38.8321 184.136 39.0066C184.136 39.1811 184.29 39.2949 184.802 39.3367L185.764 39.4164C186.968 39.496 187.577 39.883 187.577 40.6342C187.577 41.5259 186.633 42.0001 185.265 42.0001C183.662 42.0001 182.97 41.5448 182.97 40.8315L182.982 40.8202ZM186.87 40.7101C186.87 40.2927 186.554 40.1031 185.554 40.031L184.662 39.9703L184.391 39.9437C183.933 40.1031 183.689 40.3952 183.689 40.7025C183.689 41.1692 184.185 41.4044 185.362 41.4044C186.317 41.4082 186.866 41.1237 186.866 40.6987L186.87 40.7101ZM186.419 37.102C186.419 36.4191 185.987 35.9904 185.227 35.9904C185.073 35.9729 184.918 35.9888 184.772 36.0371C184.625 36.0855 184.49 36.1652 184.377 36.2706C184.264 36.376 184.174 36.5048 184.114 36.6482C184.055 36.7917 184.026 36.9464 184.031 37.102C184.031 37.7811 184.508 38.1985 185.235 38.1985C185.96 38.1985 186.43 37.7697 186.43 37.0792L186.419 37.102Z" fill="#0B1324"/>
</g>
<defs>
<clipPath id="clip0_1937_51189">
<rect width="188" height="42" fill="white" transform="translate(0.529297)"/>
</clipPath>
</defs>
</svg>
