<svg width="36" height="36" viewBox="0 0 36 36" fill="none" xmlns="http://www.w3.org/2000/svg">
        <path
          fillRule="evenodd"
          clipRule="evenodd"
          d="M11 13C11 12.4477 11.4477 12 12 12H24C24.5523 12 25 12.4477 25 13C25 13.5523 24.5523 14 24 14H12C11.4477 14 11 13.5523 11 13Z"
          fill="#036A53"
        />
        <path
          fillRule="evenodd"
          clipRule="evenodd"
          d="M11 18C11 17.4477 11.4477 17 12 17H18C18.5523 17 19 17.4477 19 18C19 18.5523 18.5523 19 18 19H12C11.4477 19 11 18.5523 11 18Z"
          fill="#036A53"
        />
        <path
          fillRule="evenodd"
          clipRule="evenodd"
          d="M11 23C11 22.4477 11.4477 22 12 22H24C24.5523 22 25 22.4477 25 23C25 23.5523 24.5523 24 24 24H12C11.4477 24 11 23.5523 11 23Z"
          fill="#036A53"
        />
      </svg>