<svg width="169" height="20" viewBox="0 0 169 20" fill="none" xmlns="http://www.w3.org/2000/svg">
<path d="M17.3285 16.9321H16.8591L13.2324 0.668532H6.68776V19.3321H10.0797V3.06853H10.5492L14.1713 19.3321H20.7159V0.668532H17.3285V16.9321ZM86.0379 0.668532L81.2374 19.332H84.786L85.7754 15.2285H92.2924L93.2865 19.332H96.8304L92.0346 0.668532H86.0379ZM86.5809 11.9626L88.7994 2.88969H89.2594L91.478 11.9814L86.5809 11.9626ZM3.47042 0.668532H0.027832V19.3321H3.47042V0.668532ZM23.1824 3.86853H28.5028V19.3321H31.9454V3.86853H37.2658V0.668532H23.1824V3.86853ZM42.5126 11.5203H50.0741V8.32028H42.5126V3.86853H50.8061V0.668532H39.0698V19.3321H50.9626V16.1321H42.5126V11.5203ZM73.5968 3.86853H82.4106V0.668532H70.1589V19.3321H73.5968V11.5721H80.1092V8.37208H73.5968V3.86853ZM118.097 11.5203H125.659V8.32028H118.097V3.86853H126.391V0.668532H114.655V19.3321H126.547V16.1321H118.097V11.5203ZM140.833 10.5791C141.515 9.88536 142.012 9.02532 142.279 8.08028C142.562 7.23948 142.645 6.34168 142.521 5.46144C142.397 4.5812 142.069 3.74396 141.565 3.0192C141.061 2.29444 140.395 1.70311 139.623 1.29428C138.85 0.885444 137.993 0.670924 137.124 0.668532H128.757V19.332H132.199V12.3014H136.847C137.48 12.3753 138.063 12.684 138.488 13.169C138.912 13.654 139.147 14.2814 139.149 14.932V19.3415H142.6V14.6356C142.529 13.1048 141.898 11.6572 140.833 10.5791ZM136.626 8.81908H132.231V4.1132H136.626C137.237 4.1132 137.822 4.36112 138.254 4.80236C138.685 5.24364 138.928 5.84212 138.928 6.46616C138.928 7.0902 138.685 7.68868 138.254 8.12996C137.822 8.5712 137.237 8.81908 136.626 8.81908ZM67.4764 6.25488C67.4757 5.46212 67.3078 4.67884 66.9839 3.95842C66.5516 2.97878 65.8526 2.14714 64.9704 1.56297C64.0882 0.978808 63.0597 0.666828 62.009 0.664308H53.6462V19.3278H57.0982V12.302H61.7418C62.374 12.3758 62.9576 12.6845 63.3821 13.1695C63.8062 13.6544 64.0417 14.2819 64.0432 14.9326V19.342H67.4948V14.6361C67.4264 13.114 66.8083 11.6719 65.7598 10.589C66.4413 9.89524 66.9389 9.0352 67.2049 8.09016C67.3955 7.49832 67.4874 6.87792 67.4764 6.25488ZM61.4934 8.81956H57.1025V4.11368H61.4934C62.1037 4.11368 62.6889 4.3616 63.1204 4.80288C63.5519 5.24412 63.7944 5.8426 63.7944 6.46664C63.7944 7.09068 63.5519 7.68916 63.1204 8.13044C62.6889 8.57172 62.1037 8.81956 61.4934 8.81956ZM105.078 0C103.125 0 101.252 0.793268 99.8708 2.20531C98.4899 3.61735 97.7137 5.53248 97.7137 7.5294V12.4706C97.7137 14.4675 98.4899 16.3826 99.8708 17.7947C101.252 19.2067 103.125 20 105.078 20C107.031 20 108.904 19.2067 110.285 17.7947C111.666 16.3826 112.441 14.4675 112.441 12.4706V12.353H109.22V12.4706C109.22 13.5938 108.784 14.6711 108.007 15.4654C107.23 16.2597 106.176 16.7059 105.078 16.7059C103.979 16.7059 102.926 16.2597 102.149 15.4654C101.372 14.6711 100.936 13.5938 100.936 12.4706V7.5294C100.936 6.40616 101.372 5.32888 102.149 4.5346C102.926 3.74034 103.979 3.29412 105.078 3.29412C106.176 3.29412 107.23 3.74034 108.007 4.5346C108.784 5.32888 109.22 6.40616 109.22 7.5294V7.64704H112.441V7.5294C112.441 5.53248 111.666 3.61735 110.285 2.20531C108.904 0.793268 107.031 0 105.078 0ZM149.513 5.44076C150.795 5.44076 151.834 4.37836 151.834 3.06785C151.834 1.75733 150.795 0.694948 149.513 0.694948C148.231 0.694948 147.192 1.75733 147.192 3.06785C147.192 4.37836 148.231 5.44076 149.513 5.44076ZM168.972 0.694948H152.906V5.44076H168.972V0.694948ZM155.226 19.3131C156.508 19.3131 157.547 18.2507 157.547 16.9402C157.547 15.6297 156.508 14.5673 155.226 14.5673C153.944 14.5673 152.906 15.6297 152.906 16.9402C152.906 18.2507 153.944 19.3131 155.226 19.3131ZM151.834 14.5673H147.192V19.3131H151.834V14.5673Z" fill="#02604B"/>
<path fill-rule="evenodd" clip-rule="evenodd" d="M149.467 12.3234H149.466C148.211 12.3234 147.192 11.2822 147.192 9.99788C147.192 8.71352 148.211 7.67236 149.466 7.67236H163.116V12.3243H149.467V12.3234Z" fill="#02604B"/>
</svg>
