<svg width="100" height="100" viewBox="0 0 100 100" fill="none" xmlns="http://www.w3.org/2000/svg">
<path d="M18.3452 5.59567e-05C16.7118 0.00878677 15.3945 1.33158 15.3988 2.95559V94.115H10.9464C9.32176 94.1238 8.00443 95.4291 8.00005 97.0444C7.99565 97.8259 8.30302 98.5768 8.85629 99.1269C9.40956 99.6813 10.1605 99.9956 10.9464 100H89.0316C89.8176 100 90.5773 99.69 91.1349 99.1356C91.6926 98.5811 92.0044 97.8302 92 97.0444C91.9956 96.2673 91.6838 95.5208 91.1262 94.9707C90.5685 94.4206 89.8132 94.115 89.0316 94.115H84.6011V2.95558C84.6011 2.16976 84.2894 1.41886 83.7317 0.864409C83.1741 0.309971 82.4188 0 81.6284 0L18.3452 5.59567e-05ZM21.2916 5.88061H78.6822V94.1153H64.4467V69.7289V69.7332C64.4511 68.9474 64.1393 68.1965 63.5816 67.6421C63.024 67.0876 62.2643 66.7777 61.4783 66.7777H38.5041C37.7181 66.782 36.9672 67.092 36.414 67.6464C35.8607 68.2009 35.5489 68.9518 35.5533 69.7332V94.1196H21.2953L21.2916 5.88061ZM35.2281 16.3626V16.367C34.4421 16.3626 33.6868 16.6726 33.1336 17.2227C32.5759 17.7727 32.2598 18.5237 32.2598 19.3007C32.2554 20.0866 32.5671 20.8375 33.1248 21.3919C33.6824 21.9464 34.4421 22.2563 35.2281 22.2563H64.7704C65.5564 22.252 66.3073 21.942 66.8605 21.3876C67.4138 20.8331 67.7256 20.0822 67.7212 19.3007C67.7168 17.6811 66.3995 16.3714 64.7704 16.367L35.2281 16.3626ZM35.2281 33.0006V33.0049C34.4465 33.0006 33.6912 33.3062 33.1336 33.8562C32.5759 34.4063 32.2641 35.1529 32.2598 35.9343C32.2554 36.7158 32.5671 37.4711 33.1248 38.0255C33.6824 38.5799 34.4421 38.8899 35.2281 38.8855H64.7704C65.5564 38.8855 66.3073 38.5712 66.8605 38.0168C67.4138 37.4623 67.7256 36.7158 67.7212 35.9343C67.7168 34.3147 66.3951 33.0049 64.7704 33.0049L35.2281 33.0006ZM35.2281 49.6296V49.6339C34.4421 49.6296 33.6825 49.9395 33.1248 50.494C32.5671 51.0484 32.2554 51.8037 32.2598 52.5851C32.2642 53.3666 32.5759 54.1131 33.1336 54.6632C33.6912 55.2133 34.4465 55.5189 35.2281 55.5145H64.7704C66.3951 55.5102 67.7168 54.2048 67.7212 52.5852C67.7255 51.8037 67.4138 51.0528 66.8605 50.5027C66.3073 49.9483 65.5564 49.6339 64.7704 49.6339L35.2281 49.6296ZM41.4721 72.6625H58.5223V94.1107H41.4721V72.6625Z" fill="black"/>
</svg>
