<svg width="100" height="100" viewBox="0 0 100 100" fill="none" xmlns="http://www.w3.org/2000/svg">
<path d="M38.8908 0C17.4481 0 0 17.4427 0 38.8908C0 60.3336 17.4427 77.7816 38.8908 77.7816C45.7554 77.7816 52.2086 75.9899 57.8122 72.8546L82.1817 97.224C83.9629 99 86.3743 100 88.8899 100C91.4056 100 93.817 99 95.5931 97.224L97.2233 95.5937C98.9993 93.8177 99.9993 91.401 99.9993 88.8906C99.9993 86.375 98.9993 83.9635 97.2233 82.1823L72.8486 57.8129C75.984 52.2087 77.7756 45.7555 77.7756 38.8915C77.7756 17.4434 60.3336 0 38.8908 0ZM38.8908 5.55735C57.3336 5.55735 72.2243 20.4481 72.2243 38.8908C72.2243 57.3336 57.3336 72.2243 38.8908 72.2243C20.4481 72.2243 5.55735 57.3336 5.55735 38.8908C5.55735 20.4481 20.4481 5.55735 38.8908 5.55735ZM69.7243 62.5416L76.6306 69.4427L69.4431 76.6302L62.542 69.7239C65.2347 67.6509 67.6513 65.2343 69.7243 62.5416ZM80.5577 73.3698L93.2973 86.1094C94.0317 86.849 94.4431 87.8438 94.4431 88.8906C94.4431 89.9323 94.0317 90.9322 93.2921 91.6666L91.667 93.2969C90.9274 94.0313 89.9326 94.4427 88.891 94.4427C87.8441 94.4427 86.8494 94.0313 86.1098 93.2969L73.3702 80.5573L80.5577 73.3698Z" fill="black"/>
<path d="M38.8702 22.2241C28.7139 22.2449 19.5674 28.4324 15.7607 37.8495C15.4899 38.5161 15.4899 39.2609 15.7607 39.9328C19.5681 49.3495 28.7139 55.5315 38.8702 55.5582H38.891C49.0733 55.5322 58.2351 49.3134 62.0271 39.8555C62.2927 39.1888 62.2875 38.4388 62.0167 37.7721C58.1833 28.3762 49.027 22.2254 38.8806 22.2254H38.8702V22.2241ZM38.8806 27.7814H38.891C46.3233 27.7866 52.7657 32.245 56.0271 38.8388C52.7979 45.4691 46.35 49.9743 38.891 50.0003C31.4483 49.9847 25.0003 45.5055 21.7603 38.8909C24.9999 32.2764 31.4426 27.7971 38.8803 27.7763L38.8806 27.7814Z" fill="black"/>
<path d="M38.8904 33.3335C35.854 33.3335 33.333 35.8543 33.333 38.8909C33.333 41.9273 35.8538 44.4482 38.8904 44.4482C41.9268 44.4482 44.4477 41.9274 44.4477 38.8909C44.4477 35.8544 41.9269 33.3335 38.8904 33.3335Z" fill="black"/>
</svg>
