<svg width="100" height="100" viewBox="0 0 100 100" fill="none" xmlns="http://www.w3.org/2000/svg">
<path d="M50 0C63.8081 0 76.3089 5.59672 85.3561 14.6439C94.4063 23.6942 100 36.1919 100 50C100 63.8081 94.4033 76.3089 85.3561 85.3561C76.3058 94.4064 63.8081 100 50 100C36.1919 100 23.6911 94.4033 14.6439 85.3561C5.59366 76.3058 0 63.8081 0 50C0 36.1919 5.59672 23.6911 14.6439 14.6439C23.6942 5.59366 36.1919 0 50 0ZM52.93 24.7107V42.8755H73.4156C75.0352 42.8755 76.3456 44.1859 76.3456 45.8055C76.3456 46.5097 76.0976 47.1527 75.6843 47.6578L52.4034 81.2718C51.488 82.5975 49.6663 82.9312 48.3406 82.0158C47.5201 81.4494 47.0822 80.5401 47.0792 79.6124H47.07V61.4506H26.5844C24.9648 61.4506 23.6544 60.1372 23.6544 58.5206C23.6544 57.8164 23.9024 57.1704 24.3157 56.6652L47.5966 23.0513C48.512 21.7256 50.3337 21.3888 51.6594 22.3073C52.4799 22.8737 52.9178 23.7861 52.9208 24.7107H52.93ZM47.07 45.8055V34.0702L32.1658 55.5906H50C51.6166 55.5906 52.93 56.9041 52.93 58.5206V70.256L67.8342 48.7355H50C48.3834 48.7355 47.07 47.4251 47.07 45.8055ZM81.2136 18.7894C73.2258 10.8015 62.1915 5.86002 50 5.86002C37.8115 5.86002 26.7742 10.8015 18.7864 18.7894C10.7985 26.7773 5.85696 37.8115 5.85696 50.0031C5.85696 62.1915 10.7985 73.2288 18.7864 81.2167C26.7742 89.2046 37.8085 94.1461 50 94.1461C62.1885 94.1461 73.2258 89.2046 81.2136 81.2167C89.2015 73.2288 94.143 62.1946 94.143 50.0031C94.143 37.8146 89.2015 26.7773 81.2136 18.7894Z" fill="black"/>
</svg>
