<svg width="100" height="100" viewBox="0 0 100 100" fill="none" xmlns="http://www.w3.org/2000/svg">
<path d="M65.3372 46.6306C64.6386 45.443 65.0697 43.9126 66.2854 43.2642L84.4579 33.5722C85.5818 32.9728 86.9778 33.3459 87.6529 34.4259L97.4084 50.0348C99.339 53.1238 99.3746 57.0345 97.5004 60.1581L83.7358 83.0991C81.9843 86.0183 78.8295 87.8046 75.425 87.8046H67.4257V95.0736C67.4257 97.6618 63.9124 98.4471 62.8103 96.1053L53.1183 75.5098C52.7927 74.8178 52.8129 74.0127 53.1728 73.3378L62.8647 55.1654C64.0518 52.9397 67.4257 53.7832 67.4257 56.3056V63.5746H75.3043L65.3372 46.6306ZM80.9265 63.5746H86.8097C88.335 63.5746 89.7713 62.8564 90.6864 61.6362L92.0653 59.7978L93.345 57.6648C94.2821 56.103 94.2643 54.1477 93.299 52.6032L84.7424 38.9126L70.7951 46.3512L80.9265 63.5746ZM86.8097 68.4206H65.0027C63.6645 68.4206 62.5797 67.3358 62.5797 65.9976L58.0205 74.546L62.7271 84.5474C63.0671 83.6202 63.9576 82.9586 65.0027 82.9586H75.425C77.1273 82.9586 78.7047 82.0655 79.5804 80.6058L86.8918 68.4202C86.8644 68.4205 86.837 68.4206 86.8097 68.4206Z" fill="black"/>
<path d="M40.4623 36.8984C39.8288 38.0247 38.4228 38.4556 37.2669 37.8777L17.8829 28.1857C16.628 27.5582 16.1667 25.9993 16.8781 24.79L26.8851 7.77796C28.6265 4.81765 31.8045 3 35.239 3H62.0993C65.5038 3 68.6586 4.78622 70.4101 7.7055L74.4073 14.3673L79.6694 11.7363C81.8375 10.6522 84.0778 13.0715 82.8307 15.1501L71.9272 33.3226C71.5153 34.0091 70.7909 34.4478 69.9918 34.4948L49.3963 35.7063C46.9288 35.8514 45.8533 32.6425 47.91 31.2714L53.2566 27.707L49.3216 21.1486L40.4623 36.8984ZM46.4493 16.3703L43.1441 10.3576C42.2926 8.8085 40.6651 7.84599 38.8975 7.84599H35.239C33.5217 7.84599 31.9327 8.75482 31.0621 10.235L22.3701 25.0113L37.37 32.5112L46.4493 16.3703ZM51.0757 14.7266C51.1689 14.8338 51.2547 14.9516 51.3317 15.0799L58.6007 27.1948C59.2328 28.2484 58.973 29.5971 58.023 30.3445L68.43 29.7323L74.4008 19.7809C73.3029 20.2308 72.026 19.8175 71.4063 18.7846L66.2547 10.1987C65.379 8.7391 63.8016 7.84599 62.0993 7.84599H47.291C47.3248 7.90461 47.3581 7.96366 47.3908 8.02314L51.0757 14.7266Z" fill="black"/>
<path d="M8.33636 44.863L3.08343 41.361C1.08872 40.0312 2.03013 36.922 4.42746 36.922H25.0229C25.8331 36.922 26.5896 37.3269 27.039 38.001L39.154 56.1734C40.6231 58.3771 37.9976 61.0027 35.7939 59.5335L30.5843 56.0605L25.8024 63.575H45.6184C46.9566 63.575 48.0414 64.6598 48.0414 65.998V85.3819C48.0414 86.7201 46.9566 87.8049 45.6184 87.8049H24.5901C20.9744 87.8049 17.6593 85.7923 15.9912 82.5844L4.25963 60.0237C2.62963 56.8891 2.8345 53.1158 4.7943 50.1761L8.33636 44.863ZM27.8247 51.3706C28.1974 50.785 28.7788 50.4144 29.4092 50.2925L23.7262 41.768H12.4301L13.0405 42.1749C14.1539 42.9172 14.4548 44.4216 13.7125 45.535L8.82642 52.8642C7.84651 54.334 7.74408 56.2206 8.55908 57.7879L15.4183 70.9787C15.4245 70.9687 15.4307 70.9587 15.4369 70.9487L27.8247 51.3706ZM22.7314 68.421L19.5463 73.5171C18.6516 74.9487 18.5663 76.7427 19.3213 78.2527C20.2614 80.08 20.8198 81.1171 20.9963 81.3641C21.9025 82.3657 23.202 82.9589 24.5901 82.9589H43.1954V68.421H22.7314Z" fill="black"/>
</svg>
