<svg width="100" height="100" viewBox="0 0 100 100" fill="none" xmlns="http://www.w3.org/2000/svg">
<path fill-rule="evenodd" clip-rule="evenodd" d="M36.4955 6.58221C35.2038 5.81447 33.596 5.80542 32.2957 6.55864L1.9391 24.1431C1.03739 24.6655 0.731889 25.8163 1.25676 26.7138C1.51749 27.1596 1.93407 27.4587 2.39783 27.5833L15.2463 35.2663L2.06154 43.1031C1.89395 43.2027 1.74749 43.324 1.62361 43.4615C1.48221 43.5884 1.35788 43.7392 1.25693 43.9117C0.732055 44.8092 1.03753 45.96 1.93924 46.4824L13.9883 53.4619V72.6C13.9883 73.9374 14.7019 75.1739 15.8628 75.8479L47.9725 94.4878C49.1549 95.1742 50.6181 95.1705 51.7969 94.4779L83.9179 75.6094C85.0691 74.933 85.7757 73.7019 85.7757 72.3713V53.5986L98.0608 46.4824C98.9623 45.96 99.2679 44.8092 98.743 43.9117C98.6421 43.7392 98.5177 43.5884 98.3762 43.4615C98.2525 43.324 98.1061 43.2027 97.9384 43.1031L84.7536 35.2663L97.6022 27.5833C98.066 27.4587 98.4825 27.1596 98.7432 26.7138C99.2681 25.8163 98.9626 24.6655 98.061 24.1431L67.7042 6.55864C66.4039 5.80542 64.7963 5.81447 63.5046 6.58221L50.0001 14.6092L36.4955 6.58221ZM6.56048 44.8087L18.9194 37.4626L46.3321 53.8548L34.4465 60.9621L6.56048 44.8087ZM22.5983 35.276L50.0001 51.6615L77.4016 35.276L50.0001 18.9886L22.5983 35.276ZM47.9929 57.2484L35.504 64.7162C35.1774 64.9115 34.8152 64.997 34.4609 64.9836C34.115 64.997 33.7612 64.9157 33.4399 64.7296L17.7666 55.6504V72.6L20.457 74.1618L47.9929 90.1467V57.2484ZM51.7711 90.1269L81.9974 72.3713V55.7872L66.56 64.7296C66.2386 64.9157 65.8849 64.997 65.539 64.9836C65.1847 64.997 64.8225 64.9115 64.4959 64.7162L51.7711 57.1072V90.1269ZM93.4394 44.8087L81.0807 37.4626L53.6678 53.8548L65.5536 60.9621L93.4394 44.8087ZM93.3282 25.7524L81.0748 33.0797L53.6841 16.7989L65.4419 9.81023C65.5534 9.74396 65.6913 9.74321 65.8034 9.80819L93.3282 25.7524ZM18.9251 33.0797L46.3158 16.7989L34.558 9.81023C34.4465 9.74396 34.3086 9.74321 34.1965 9.80819L6.67175 25.7524L18.9251 33.0797Z" fill="black"/>
<path d="M63.1984 6.06642C64.6768 5.18775 66.5168 5.17703 68.005 6.03908L98.3615 23.624C99.5494 24.3123 99.9543 25.8311 99.2609 27.0166C98.9352 27.5735 98.4241 27.9538 97.8536 28.1319L85.9249 35.2647L98.2452 42.5869C98.446 42.7063 98.6231 42.8518 98.7775 43.0147L98.9132 43.1465C99.0444 43.2838 99.1606 43.4387 99.2599 43.6084C99.9534 44.794 99.5494 46.3137 98.3615 47.002L86.3761 53.9444V72.3711C86.3761 73.9154 85.5556 75.3434 84.2218 76.127L52.1007 94.9951C50.7352 95.7973 49.0406 95.802 47.671 95.0069L15.5617 76.3672C14.2167 75.5863 13.3888 74.1518 13.3888 72.5996V53.8076L1.6388 47.002C0.450708 46.3136 0.0460555 44.7939 0.73939 43.6084C0.867023 43.3904 1.02352 43.1973 1.20228 43.0332C1.36101 42.8622 1.54608 42.7112 1.75502 42.5869L14.0744 35.2647L2.14564 28.1319C1.57556 27.9537 1.06494 27.5732 0.73939 27.0166C0.0460485 25.8311 0.45072 24.3124 1.6388 23.624L31.9952 6.03908C33.4834 5.17709 35.3235 5.18783 36.8019 6.06642L50.0001 13.9111L63.1984 6.06642ZM67.7042 6.55861C66.4041 5.80548 64.7966 5.81449 63.505 6.58205L50.0001 14.6094L36.4953 6.58205C35.2037 5.81456 33.5961 5.80554 32.296 6.55861L1.93959 24.1436C1.03787 24.666 0.732094 25.8164 1.25697 26.7139C1.51762 27.1595 1.93403 27.4584 2.39759 27.583L15.2462 35.2666L2.06166 43.1035C1.89415 43.2031 1.74799 43.3245 1.62416 43.4619C1.48275 43.5888 1.35792 43.7396 1.25697 43.9121C0.732357 44.8095 1.03798 45.9601 1.93959 46.4824L13.9884 53.4619V72.5996C13.9884 73.937 14.7025 75.1737 15.8634 75.8477L47.9728 94.4883C49.1551 95.1746 50.6183 95.17 51.797 94.4776L83.9181 75.6094C85.0693 74.9331 85.7755 73.7017 85.7755 72.3711V53.5986L98.0607 46.4824C98.9621 45.9601 99.2679 44.8095 98.7433 43.9121C98.6425 43.7397 98.5175 43.5888 98.3761 43.4619C98.2524 43.3245 98.1062 43.2031 97.9386 43.1035L84.754 35.2666L97.6027 27.583C98.0663 27.4584 98.4827 27.1595 98.7433 26.7139C99.2682 25.8164 98.9623 24.666 98.0607 24.1436L67.7042 6.55861ZM33.4396 64.7295C33.761 64.9156 34.1151 64.9968 34.4611 64.9834C34.8153 64.9968 35.1775 64.9111 35.504 64.7158L47.9933 57.2481V90.1465L17.7667 72.5996V55.6504L33.4396 64.7295ZM81.9972 72.3711L51.7716 90.127V57.1074L64.4962 64.7158C64.8228 64.9111 65.185 64.9968 65.5392 64.9834C65.885 64.9968 66.2384 64.9155 66.5597 64.7295L81.9972 55.7871V72.3711ZM18.3663 72.2539L47.3927 89.1045V58.3067L35.8117 65.2315C35.3893 65.4839 34.9202 65.5962 34.4611 65.583C34.0125 65.5962 33.5549 65.4893 33.1398 65.249L18.3663 56.6914V72.2539ZM66.8605 65.249C66.4451 65.4895 65.9871 65.5964 65.5382 65.583C65.0794 65.596 64.6107 65.4837 64.1886 65.2315L52.3712 58.1651V89.0781L81.3976 72.0264V56.8281L66.8605 65.249ZM46.3322 53.8545L34.4464 60.9619L6.56068 44.8086L18.9201 37.4629L46.3322 53.8545ZM93.4396 44.8086L65.5538 60.9619L53.6681 53.8545L81.0812 37.4629L93.4396 44.8086ZM7.74623 44.8008L34.4406 60.2656L45.1622 53.8545L18.9181 38.1611L7.74623 44.8008ZM54.837 53.8545L65.5587 60.2656L92.2531 44.8008L81.0812 38.1611L54.837 53.8545ZM77.4015 35.2764L50.0001 51.6611L22.5988 35.2764L50.0001 18.9883L77.4015 35.2764ZM23.7706 35.2774L50.0001 50.9619L76.2286 35.2774L50.0001 19.6865L23.7706 35.2774ZM34.1964 9.80861C34.3085 9.74366 34.4463 9.74438 34.5578 9.81056L46.3156 16.7988L18.9249 33.0801L6.67201 25.752L34.1964 9.80861ZM65.4425 9.81056C65.5539 9.74442 65.6917 9.74367 65.8038 9.80861L93.3283 25.752L81.0753 33.0801L53.6847 16.7988L65.4425 9.81056ZM7.85462 25.7598L18.9259 32.3799L45.1408 16.7988L34.3732 10.3985L7.85462 25.7598ZM54.8576 16.7988L81.0734 32.3799L92.1447 25.7598L65.6261 10.3985L54.8576 16.7988Z" fill="black"/>
</svg>
