<svg width="100" height="100" viewBox="0 0 100 100" fill="none" xmlns="http://www.w3.org/2000/svg">
<path d="M27.1321 49.3911H23.5732V35.3466C23.6407 32.6059 24.9276 30.0399 27.0884 28.3518L27.7994 27.764L27.8034 27.76C29.9284 25.9924 31.1597 23.3709 31.1558 20.6024V5.94162C31.1478 2.67268 28.5064 0.0233106 25.2375 0.0114136H16.8287C13.5557 0.0153853 10.9025 2.66872 10.8985 5.94162V20.6024C10.8946 23.367 12.1219 25.9924 14.2509 27.76L14.954 28.3518C17.1267 30.032 18.4256 32.6019 18.4891 35.3466V49.3881L14.9302 49.3921C11.6572 49.3921 9.00397 52.0494 9 55.3223V87.9648C9.00794 91.2656 10.3624 94.4154 12.7496 96.6913C14.9779 98.8204 17.945 100.008 21.0273 100C21.2457 100 21.4563 100 21.6787 99.9841V99.9802C28.2008 99.4916 33.2056 93.9824 33.0662 87.4405V55.3227C33.0623 52.0497 30.4089 49.3924 27.1321 49.3924L27.1321 49.3911ZM18.211 24.4512L17.5079 23.8593V23.8554C16.5388 23.053 15.9827 21.8614 15.9827 20.6023V5.9415C15.9827 5.4728 16.36 5.09149 16.8287 5.09149H25.2375C25.7022 5.1034 26.0716 5.47678 26.0716 5.9415V20.6023C26.0756 21.8614 25.5155 23.0531 24.5463 23.8554L23.8353 24.4432V24.4472C22.7668 25.3329 21.8175 26.3617 21.0192 27.4977C20.2248 26.3577 19.2835 25.333 18.211 24.4512ZM14.9301 54.4753H27.1321C27.6008 54.4753 27.9782 54.8527 27.9821 55.3214V82.8238H14.084V55.3214C14.088 54.8527 14.4653 54.4753 14.9301 54.4753ZM21.4124 94.9069C19.5058 95.0101 17.639 94.327 16.2528 93.0122C14.8665 91.7014 14.0841 89.8743 14.0841 87.9638V87.9042H27.9385C27.8193 91.5426 25.0349 94.5335 21.4124 94.9069Z" fill="black"/>
<path d="M88.2384 12.0426L79.3411 1.58031C78.209 0.201988 76.3343 -0.318329 74.6501 0.277539C72.97 0.873345 71.8419 2.46211 71.83 4.24555V13.7347C71.83 14.5132 71.4169 15.2322 70.7417 15.6214L65.6575 18.5567C65.1808 18.7911 64.6446 18.8824 64.1164 18.8149C63.6953 18.8507 63.2743 18.7593 62.9049 18.5567L57.8207 15.6214C57.1455 15.2322 56.7324 14.5133 56.7284 13.7347V4.24555C56.7364 2.44625 55.5924 0.841477 53.8884 0.257609C52.2202 -0.358057 50.3414 0.154338 49.2172 1.53262L40.2841 12.0427C36.6775 16.2609 36.2366 22.3382 39.1998 27.0329L47.5847 40.3911C48.6532 42.1983 50.4485 43.4575 52.5101 43.8388V87.9645C52.665 94.4985 58.0073 99.7181 64.5454 99.7181C71.0794 99.7181 76.422 94.4989 76.5766 87.9645V43.7524C78.3838 43.2598 79.9251 42.0841 80.8744 40.4714L89.315 27.0339C92.2781 22.339 91.8372 16.2656 88.2306 12.0477L88.2384 12.0426ZM64.5491 94.919C60.7122 94.915 57.5981 91.8049 57.5942 87.964V44.0173H71.4923V87.964C71.4883 91.8009 68.3861 94.9071 64.5491 94.919ZM85.0171 24.3321L76.5448 37.853H76.5408C76.1555 38.5203 75.4406 38.9334 74.67 38.9334H53.8686C53.0622 38.9254 52.3235 38.4806 51.9382 37.7696L43.4976 24.328C41.7221 21.5119 41.9843 17.8615 44.153 15.3313L51.6085 6.55713V13.7346C51.6204 16.3283 53.0106 18.7234 55.2587 20.0183L60.3429 22.9497V22.9537C61.471 23.6329 62.7817 23.9586 64.1004 23.8791C65.5263 23.9864 66.9484 23.6646 68.1876 22.9537L73.2718 20.0223V20.0183C75.5199 18.7235 76.9062 16.3283 76.9141 13.7346V6.55713L84.3696 15.3353H84.3736C86.5343 17.8695 86.7926 21.5158 85.0171 24.3321Z" fill="black"/>
</svg>
