<svg width="68" height="68" viewBox="0 0 68 68" fill="none" xmlns="http://www.w3.org/2000/svg">
<path d="M60.5708 17.2895L35.0708 2.41451C34.7458 2.22491 34.3763 2.125 34 2.125C33.6237 2.125 33.2542 2.22491 32.9292 2.41451L7.42921 17.2895C7.10841 17.4767 6.84226 17.7446 6.65728 18.0667C6.47231 18.3888 6.37499 18.7537 6.375 19.1251V48.8751C6.37499 49.2465 6.47231 49.6114 6.65728 49.9335C6.84226 50.2555 7.10841 50.5235 7.42921 50.7107L32.9292 65.5857C33.2542 65.7753 33.6237 65.8752 34 65.8752C34.3763 65.8752 34.7458 65.7753 35.0708 65.5857L60.5708 50.7107C60.8916 50.5235 61.1577 50.2555 61.3427 49.9335C61.5277 49.6114 61.625 49.2465 61.625 48.8751V19.1251C61.625 18.7537 61.5277 18.3888 61.3427 18.0667C61.1577 17.7446 60.8916 17.4767 60.5708 17.2895ZM34 6.71019L55.2832 19.1251L34 31.54L12.7168 19.1251L34 6.71019ZM10.625 22.8251L31.875 35.2203V60.05L10.625 47.6549V22.8251ZM36.125 60.05V35.2203L57.375 22.8251V47.6549L36.125 60.05Z" fill="#787878"/>
</svg>
