<svg width="68" height="68" viewBox="0 0 68 68" fill="none" xmlns="http://www.w3.org/2000/svg">
<rect width="68" height="68" rx="34" fill="#CDE4DF"/>
<path d="M34.75 27H32.25V33.25H26V35.75H32.25V42H34.75V35.75H41V33.25H34.75V27Z" fill="#036A53"/>
<path d="M52 23.9286V16H44.0714V18.6429H22.9286V16H15V23.9286H17.6429V45.0714H15V53H22.9286V50.3571H44.0714V53H52V45.0714H49.3571V23.9286H52ZM46.7143 18.6429H49.3571V21.2857H46.7143V18.6429ZM17.6429 18.6429H20.2857V21.2857H17.6429V18.6429ZM20.2857 50.3571H17.6429V47.7143H20.2857V50.3571ZM49.3571 50.3571H46.7143V47.7143H49.3571V50.3571ZM46.7143 45.0714H44.0714V47.7143H22.9286V45.0714H20.2857V23.9286H22.9286V21.2857H44.0714V23.9286H46.7143V45.0714Z" fill="#036A53"/>
</svg>
