<svg width="68" height="68" viewBox="0 0 68 68" fill="none" xmlns="http://www.w3.org/2000/svg">
<path d="M62.3475 33.8725L45.9212 27.965L39.0363 19.3375C38.4387 18.6073 37.6865 18.0189 36.834 17.6147C35.9814 17.2105 35.0498 17.0005 34.1062 17H17.1063C16.0692 17.0054 15.0491 17.2636 14.1345 17.7524C13.2198 18.2412 12.4382 18.9458 11.8575 19.805L6.09875 28.305C4.9058 30.053 4.26205 32.1175 4.25 34.2338V51C4.25 51.5636 4.47388 52.1041 4.8724 52.5026C5.27091 52.9011 5.81141 53.125 6.375 53.125H10.9225C11.4118 54.9257 12.4801 56.5153 13.9625 57.6486C15.4449 58.7819 17.259 59.3959 19.125 59.3959C20.991 59.3959 22.8051 58.7819 24.2875 57.6486C25.7699 56.5153 26.8381 54.9257 27.3275 53.125H40.6725C41.1618 54.9257 42.2301 56.5153 43.7125 57.6486C45.1949 58.7819 47.009 59.3959 48.875 59.3959C50.741 59.3959 52.5551 58.7819 54.0375 57.6486C55.5199 56.5153 56.5882 54.9257 57.0775 53.125H61.625C62.1886 53.125 62.7291 52.9011 63.1276 52.5026C63.5261 52.1041 63.75 51.5636 63.75 51V35.87C63.7498 35.4333 63.6151 35.0072 63.3641 34.6498C63.1132 34.2924 62.7582 34.021 62.3475 33.8725ZM19.125 55.25C18.2844 55.25 17.4627 55.0007 16.7638 54.5337C16.0649 54.0667 15.5202 53.403 15.1985 52.6264C14.8768 51.8498 14.7927 50.9953 14.9567 50.1709C15.1206 49.3464 15.5254 48.5892 16.1198 47.9948C16.7142 47.4004 17.4714 46.9956 18.2959 46.8317C19.1203 46.6677 19.9748 46.7518 20.7514 47.0735C21.528 47.3952 22.1917 47.9399 22.6587 48.6388C23.1257 49.3377 23.375 50.1594 23.375 51C23.375 52.1272 22.9272 53.2082 22.1302 54.0052C21.3332 54.8022 20.2522 55.25 19.125 55.25ZM48.875 55.25C48.0344 55.25 47.2127 55.0007 46.5138 54.5337C45.8149 54.0667 45.2702 53.403 44.9485 52.6264C44.6268 51.8498 44.5427 50.9953 44.7067 50.1709C44.8707 49.3464 45.2754 48.5892 45.8698 47.9948C46.4642 47.4004 47.2214 46.9956 48.0459 46.8317C48.8703 46.6677 49.7248 46.7518 50.5014 47.0735C51.278 47.3952 51.9417 47.9399 52.4087 48.6388C52.8757 49.3377 53.125 50.1594 53.125 51C53.125 52.1272 52.6772 53.2082 51.8802 54.0052C51.0832 54.8022 50.0022 55.25 48.875 55.25ZM59.5 48.875H57.0775C56.5882 47.0743 55.5199 45.4847 54.0375 44.3514C52.5551 43.2181 50.741 42.6041 48.875 42.6041C47.009 42.6041 45.1949 43.2181 43.7125 44.3514C42.2301 45.4847 41.1618 47.0743 40.6725 48.875H27.3275C26.8381 47.0743 25.7699 45.4847 24.2875 44.3514C22.8051 43.2181 20.991 42.6041 19.125 42.6041C17.259 42.6041 15.4449 43.2181 13.9625 44.3514C12.4801 45.4847 11.4118 47.0743 10.9225 48.875H8.5V34.2338C8.49918 32.9528 8.88424 31.7014 9.605 30.6425L15.3638 22.1425C15.5634 21.862 15.8283 21.6342 16.1355 21.4787C16.4428 21.3232 16.7832 21.2447 17.1275 21.25H34.1275C34.4397 21.2495 34.7481 21.3178 35.031 21.45C35.3138 21.5822 35.564 21.7751 35.7638 22.015L42.9888 31.0887C43.2379 31.3908 43.5596 31.6248 43.9238 31.7687L59.5 37.3575V48.875Z" fill="#787878"/>
</svg>
