<svg width="68" height="68" viewBox="0 0 68 68" fill="none" xmlns="http://www.w3.org/2000/svg">
<rect width="68" height="68" rx="34" fill="#CDE4DF"/>
<path d="M31.1668 34.0007C32.7316 34.0007 34.0002 32.7321 34.0002 31.1673C34.0002 29.6025 32.7316 28.334 31.1668 28.334C29.602 28.334 28.3335 29.6025 28.3335 31.1673C28.3335 32.7321 29.602 34.0007 31.1668 34.0007Z" fill="#036A53"/>
<path d="M39.6665 53.8327C39.4804 53.8329 39.2961 53.7963 39.1243 53.7251C38.9524 53.6539 38.7963 53.5494 38.6649 53.4176L23.4965 38.2494C22.9668 37.717 22.6685 36.9971 22.6665 36.246V25.4994C22.6673 24.7481 22.966 24.0279 23.4972 23.4967C24.0284 22.9655 24.7486 22.6668 25.4998 22.666H36.2465C36.6187 22.665 36.9874 22.7379 37.3313 22.8803C37.6752 23.0228 37.9874 23.2321 38.2498 23.4961L53.418 38.6644C53.5496 38.7959 53.654 38.9521 53.7253 39.1239C53.7965 39.2958 53.8332 39.48 53.8332 39.666C53.8332 39.8521 53.7965 40.0363 53.7253 40.2081C53.654 40.38 53.5496 40.5361 53.418 40.6676L40.6681 53.4176C40.5367 53.5494 40.3806 53.6539 40.2087 53.7251C40.0368 53.7963 39.8525 53.8329 39.6665 53.8327ZM25.4998 25.4994V36.246L39.6665 50.4127L50.4132 39.666L36.2465 25.4994H25.4998Z" fill="#036A53"/>
<path d="M28.3332 53.8327H16.9998C16.2486 53.8319 15.5284 53.5331 14.9972 53.0019C14.4661 52.4708 14.1673 51.7506 14.1665 50.9994V16.9993C14.1673 16.2481 14.4661 15.5279 14.9972 14.9967C15.5284 14.4656 16.2486 14.1668 16.9998 14.166H50.9998C51.751 14.1668 52.4713 14.4656 53.0024 14.9967C53.5336 15.5279 53.8324 16.2481 53.8332 16.9993V28.3327H50.9998V16.9993H16.9998V50.9994H28.3332V53.8327Z" fill="#036A53"/>
</svg>
