<svg width="68" height="69" viewBox="0 0 68 69" fill="none" xmlns="http://www.w3.org/2000/svg">
<rect y="0.5" width="68" height="68" rx="34" fill="#CDE4DF"/>
<path d="M19.8333 41.5827V40.166H17V41.5827C17 44.2127 18.0448 46.7351 19.9045 48.5948C21.7643 50.4546 24.2866 51.4993 26.9167 51.4993H31.1667V48.666H26.9167C25.0381 48.666 23.2364 47.9197 21.908 46.5914C20.5796 45.263 19.8333 43.4613 19.8333 41.5827Z" fill="#036A53"/>
<path d="M45.3333 27.4167V28.8333H48.1667V27.4167C48.1667 24.7866 47.1219 22.2643 45.2621 20.4045C43.4024 18.5448 40.8801 17.5 38.25 17.5H34V20.3333H38.25C39.1802 20.3333 40.1013 20.5165 40.9607 20.8725C41.8201 21.2285 42.6009 21.7502 43.2587 22.408C43.9164 23.0657 44.4382 23.8466 44.7941 24.706C45.1501 25.5654 45.3333 26.4865 45.3333 27.4167Z" fill="#036A53"/>
<path d="M26.9165 27.416H18.4165C17.2893 27.416 16.2083 27.8638 15.4113 28.6608C14.6143 29.4578 14.1665 30.5388 14.1665 31.666V34.4993H16.9998V31.666C16.9998 31.2903 17.1491 30.93 17.4148 30.6643C17.6804 30.3986 18.0408 30.2493 18.4165 30.2493H26.9165C27.2922 30.2493 27.6526 30.3986 27.9182 30.6643C28.1839 30.93 28.3332 31.2903 28.3332 31.666V34.4993H31.1665V31.666C31.1665 30.5388 30.7187 29.4578 29.9217 28.6608C29.1247 27.8638 28.0437 27.416 26.9165 27.416Z" fill="#036A53"/>
<path d="M22.6667 25.9993C23.7874 25.9993 24.883 25.667 25.8149 25.0443C26.7468 24.4217 27.4731 23.5367 27.902 22.5012C28.3309 21.4658 28.4431 20.3264 28.2244 19.2272C28.0058 18.1279 27.4661 17.1182 26.6736 16.3257C25.8811 15.5332 24.8714 14.9936 23.7722 14.7749C22.673 14.5563 21.5336 14.6685 20.4981 15.0974C19.4627 15.5263 18.5777 16.2526 17.955 17.1845C17.3323 18.1163 17 19.2119 17 20.3327C17 21.8356 17.597 23.2769 18.6597 24.3396C19.7224 25.4023 21.1638 25.9993 22.6667 25.9993ZM22.6667 17.4994C23.227 17.4994 23.7748 17.6655 24.2408 17.9769C24.7067 18.2882 25.0699 18.7307 25.2843 19.2484C25.4988 19.7661 25.5549 20.3358 25.4456 20.8854C25.3362 21.4351 25.0664 21.9399 24.6701 22.3362C24.2739 22.7324 23.769 23.0022 23.2194 23.1116C22.6698 23.2209 22.1001 23.1648 21.5824 22.9503C21.0647 22.7359 20.6222 22.3727 20.3108 21.9068C19.9995 21.4409 19.8333 20.8931 19.8333 20.3327C19.8333 19.5812 20.1318 18.8606 20.6632 18.3292C21.1945 17.7979 21.9152 17.4994 22.6667 17.4994Z" fill="#036A53"/>
<path d="M49.5835 47.25H41.0835C39.9563 47.25 38.8753 47.6978 38.0783 48.4948C37.2813 49.2918 36.8335 50.3728 36.8335 51.5V54.3333H39.6668V51.5C39.6668 51.1243 39.8161 50.7639 40.0818 50.4983C40.3474 50.2326 40.7078 50.0833 41.0835 50.0833H49.5835C49.9592 50.0833 50.3196 50.2326 50.5852 50.4983C50.8509 50.7639 51.0002 51.1243 51.0002 51.5V54.3333H53.8335V51.5C53.8335 50.3728 53.3857 49.2918 52.5887 48.4948C51.7917 47.6978 50.7107 47.25 49.5835 47.25Z" fill="#036A53"/>
<path d="M39.6665 40.1667C39.6665 41.2874 39.9988 42.383 40.6215 43.3149C41.2442 44.2468 42.1292 44.9731 43.1646 45.402C44.2001 45.8309 45.3395 45.9431 46.4387 45.7244C47.5379 45.5058 48.5476 44.9661 49.3401 44.1736C50.1326 43.3811 50.6723 42.3714 50.891 41.2722C51.1096 40.173 50.9974 39.0336 50.5685 37.9981C50.1396 36.9627 49.4133 36.0777 48.4814 35.455C47.5495 34.8323 46.4539 34.5 45.3332 34.5C43.8303 34.5 42.3889 35.097 41.3262 36.1597C40.2635 37.2224 39.6665 38.6638 39.6665 40.1667ZM48.1665 40.1667C48.1665 40.727 48.0003 41.2748 47.689 41.7408C47.3777 42.2067 46.9352 42.5699 46.4174 42.7843C45.8997 42.9988 45.33 43.0549 44.7804 42.9456C44.2308 42.8362 43.7259 42.5664 43.3297 42.1701C42.9335 41.7739 42.6636 41.269 42.5543 40.7194C42.445 40.1698 42.5011 39.6001 42.7155 39.0824C42.93 38.5647 43.2931 38.1222 43.7591 37.8108C44.225 37.4995 44.7728 37.3333 45.3332 37.3333C46.0846 37.3333 46.8053 37.6318 47.3366 38.1632C47.868 38.6946 48.1665 39.4152 48.1665 40.1667Z" fill="#036A53"/>
</svg>
