<svg width="68" height="68" viewBox="0 0 68 68" fill="none" xmlns="http://www.w3.org/2000/svg">
<path d="M25.7125 4.25012C21.6372 4.23625 17.6474 5.41841 14.2375 7.65012L27.8375 21.2501C28.2904 21.6366 28.6615 22.1097 28.9287 22.6418C29.196 23.1738 29.3541 23.754 29.3937 24.348C29.4333 24.9421 29.3536 25.5381 29.1593 26.1009C28.9651 26.6637 28.6601 27.182 28.2625 27.6251C27.8194 28.0227 27.3011 28.3277 26.7383 28.5219C26.1755 28.7162 25.5795 28.7959 24.9854 28.7563C24.3914 28.7167 23.8112 28.5586 23.2792 28.2913C22.7471 28.0241 22.274 27.6531 21.8875 27.2001L7.86251 13.6001C5.43766 17.1683 4.17583 21.3991 4.25001 25.7126C4.27239 31.3979 6.5408 36.844 10.561 40.8642C14.5811 44.8843 20.0272 47.1527 25.7125 47.1751C27.5731 47.1853 29.4281 46.9713 31.2375 46.5376L45.475 60.7751C47.4757 62.7758 50.1893 63.8998 53.0188 63.8998C55.8482 63.8998 58.5618 62.7758 60.5625 60.7751C62.5632 58.7744 63.6872 56.0608 63.6872 53.2314C63.6872 50.4019 62.5632 47.6883 60.5625 45.6876L46.325 31.4501C46.7586 29.6407 46.9727 27.7857 46.9625 25.9251C47.019 23.099 46.5112 20.2899 45.4686 17.6625C44.426 15.0351 42.8697 12.6421 40.8908 10.6236C38.9119 8.60512 36.5502 7.00174 33.9439 5.90735C31.3376 4.81296 28.5392 4.24956 25.7125 4.25012ZM42.7125 25.7126C42.7094 27.2226 42.4948 28.7247 42.075 30.1751L41.4375 32.5126L43.1375 34.2126L57.375 48.4501C57.9813 49.0241 58.4638 49.7162 58.7927 50.4836C59.1216 51.251 59.29 52.0777 59.2875 52.9126C59.3114 53.7506 59.1528 54.5838 58.8225 55.3544C58.4923 56.125 57.9984 56.8145 57.375 57.3751C56.7994 57.9795 56.1071 58.4606 55.34 58.7894C54.5729 59.1181 53.7471 59.2876 52.9125 59.2876C52.0779 59.2876 51.2521 59.1181 50.485 58.7894C49.7179 58.4606 49.0256 57.9795 48.45 57.3751L34.2125 43.1376L32.5125 41.4376L30.175 42.0751C28.7246 42.4949 27.2225 42.7095 25.7125 42.7126C21.197 42.7001 16.8597 40.9499 13.6 37.8251C11.9515 36.274 10.6461 34.3949 9.76774 32.3088C8.88937 30.2227 8.45753 27.9757 8.50001 25.7126C8.50294 24.1328 8.71735 22.5605 9.13751 21.0376L18.4875 30.3876C19.2776 31.2474 20.2309 31.9412 21.2919 32.4288C22.3528 32.9163 23.5002 33.1878 24.6672 33.2274C25.8342 33.2669 26.9973 33.0738 28.0889 32.6592C29.1804 32.2446 30.1785 31.6169 31.025 30.8126C31.8293 29.9662 32.457 28.968 32.8716 27.8765C33.2862 26.7849 33.4793 25.6218 33.4397 24.4548C33.4002 23.2879 33.1287 22.1404 32.6412 21.0795C32.1536 20.0185 31.4598 19.0652 30.6 18.2751L21.25 8.92512C22.6243 8.49047 24.0586 8.27532 25.5 8.28762C30.0155 8.30016 34.3529 10.0503 37.6125 13.1751C40.8752 16.5341 42.704 21.03 42.7125 25.7126Z" fill="#787878"/>
</svg>
